STARTFONT 2.3
FONT -FontForge-Bungee Shade-Book-R-Normal--9-90-72-72-P-77-ISO10646-1
SIZE 9 72 72  4
FONTBOUNDINGBOX 24 24 -6 -9
COMMENT "Generated by fontforge, http://fontforge.sourceforge.net"
COMMENT "Copyright 2008 The Bungee Project Authors (david@djr.com)"
STARTPROPERTIES 40
FOUNDRY "FontForge"
FAMILY_NAME "Bungee Shade"
WEIGHT_NAME "Book"
SLANT "R"
SETWIDTH_NAME "Normal"
ADD_STYLE_NAME ""
PIXEL_SIZE 9
POINT_SIZE 90
RESOLUTION_X 72
RESOLUTION_Y 72
SPACING "P"
AVERAGE_WIDTH 77
CHARSET_REGISTRY "ISO10646"
CHARSET_ENCODING "1"
FONTNAME_REGISTRY ""
CHARSET_COLLECTIONS "ISO8859-2 ISO8859-9 ISO8859-4 ISO10646-1"
BITS_PER_PIXEL 4
FONT_NAME "BungeeShade-Regular"
FACE_NAME "Bungee Shade"
COPYRIGHT "Copyright 2008 The Bungee Project Authors (david@djr.com)"
FONT_VERSION "1.000;PS 1.0;hotconv 1.0.72;makeotf.lib2.5.5900"
FONT_ASCENT 8
FONT_DESCENT 1
UNDERLINE_POSITION 0
UNDERLINE_THICKNESS 0
X_HEIGHT 6
CAP_HEIGHT 6
RAW_ASCENT 860
RAW_DESCENT 140
NORM_SPACE 3
RELATIVE_WEIGHT 40
RELATIVE_SETWIDTH 50
SUPERSCRIPT_X 0
SUPERSCRIPT_Y 3
SUPERSCRIPT_SIZE 5
SUBSCRIPT_X 0
SUBSCRIPT_Y 0
SUBSCRIPT_SIZE 5
AVG_LOWERCASE_WIDTH 74
AVG_UPPERCASE_WIDTH 75
ENDPROPERTIES
CHARS 1065
STARTCHAR space
ENCODING 32
SWIDTH 325 0
DWIDTH 3 0
BBX 1 1 0 0
BITMAP
00
ENDCHAR
STARTCHAR exclam
ENCODING 33
SWIDTH 524 0
DWIDTH 5 0
BBX 5 8 0 -1
BITMAP
071110
6C1010
6D1010
6E1010
5E8710
3C1010
7D1110
6FF500
ENDCHAR
STARTCHAR quotedbl
ENCODING 34
SWIDTH 746 0
DWIDTH 7 0
BBX 7 6 0 1
BITMAP
26144120
B7164110
C8164110
B8075010
BFDEFB10
12122000
ENDCHAR
STARTCHAR numbersign
ENCODING 35
SWIDTH 850 0
DWIDTH 8 0
BBX 8 8 0 -1
BITMAP
01713420
09516211
8C337333
6B227131
85211201
E9123130
BE199110
5FBBF500
ENDCHAR
STARTCHAR dollar
ENCODING 36
SWIDTH 750 0
DWIDTH 7 0
BBX 7 11 0 -3
BITMAP
00111000
00101110
26122120
A814B900
BA110020
AFC84110
29331210
A8112110
BEC10400
03FF6000
00220000
ENDCHAR
STARTCHAR percent
ENCODING 37
SWIDTH 1131 0
DWIDTH 10 0
BBX 11 8 0 -1
BITMAP
033325120000
863466210000
D63463212200
DA2281412110
8FFCA1819110
011972B14210
000C65F54300
000FD5EFA000
ENDCHAR
STARTCHAR ampersand
ENCODING 38
SWIDTH 866 0
DWIDTH 8 0
BBX 8 8 0 -1
BITMAP
01411200
1D022100
4F11B100
3E313320
B627D413
D6100021
CC433320
4EFFF900
ENDCHAR
STARTCHAR quotesingle
ENCODING 39
SWIDTH 456 0
DWIDTH 4 0
BBX 4 6 0 1
BITMAP
1612
A911
A911
AA01
9FD2
1210
ENDCHAR
STARTCHAR parenleft
ENCODING 40
SWIDTH 529 0
DWIDTH 5 0
BBX 5 10 0 -2
BITMAP
001110
161220
971420
C71100
C71100
C71100
C81110
BD4220
5EFD20
002100
ENDCHAR
STARTCHAR parenright
ENCODING 41
SWIDTH 529 0
DWIDTH 5 0
BBX 5 10 0 -2
BITMAP
031100
972120
CF6110
1D6110
0D6110
0D6110
0A4110
871420
CFD300
120000
ENDCHAR
STARTCHAR asterisk
ENCODING 42
SWIDTH 818 0
DWIDTH 7 0
BBX 8 7 0 0
BITMAP
00361200
05562220
4A123221
9FC22460
08518120
0EFAF500
02524000
ENDCHAR
STARTCHAR plus
ENCODING 43
SWIDTH 834 0
DWIDTH 8 0
BBX 8 8 0 -1
BITMAP
00032100
00A71100
02741210
6A113101
9FF71B70
12C70200
00CF8000
00120000
ENDCHAR
STARTCHAR comma
ENCODING 44
SWIDTH 484 0
DWIDTH 4 0
BBX 5 5 0 -2
BITMAP
032200
781110
BC5110
9A1200
9F9100
ENDCHAR
STARTCHAR hyphen
ENCODING 45
SWIDTH 520 0
DWIDTH 5 0
BBX 5 4 0 0
BITMAP
031110
A61120
DFFC20
222100
ENDCHAR
STARTCHAR period
ENCODING 46
SWIDTH 484 0
DWIDTH 4 0
BBX 5 4 0 -1
BITMAP
032200
881010
B91210
AFE500
ENDCHAR
STARTCHAR slash
ENCODING 47
SWIDTH 487 0
DWIDTH 4 0
BBX 5 11 0 -3
BITMAP
002110
0A4110
0F2110
2F1110
4D1100
6B1100
891100
A71100
C50100
EF9000
220000
ENDCHAR
STARTCHAR zero
ENCODING 48
SWIDTH 827 0
DWIDTH 7 0
BBX 8 8 0 -1
BITMAP
01233320
28225111
9816F011
A815F011
A814E011
AA200111
8F743530
1AEFD500
ENDCHAR
STARTCHAR one
ENCODING 49
SWIDTH 701 0
DWIDTH 6 0
BBX 7 8 0 -1
BITMAP
06112000
8A121000
9D711000
4BC11000
07C11000
06711210
98233220
BFFFF700
ENDCHAR
STARTCHAR two
ENCODING 50
SWIDTH 739 0
DWIDTH 7 0
BBX 7 8 0 -1
BITMAP
06111100
7B122110
8FEB2110
15201110
57114300
C6146210
D7333220
CFFFFA10
ENDCHAR
STARTCHAR three
ENCODING 51
SWIDTH 737 0
DWIDTH 7 0
BBX 7 8 0 -1
BITMAP
15111100
B7122100
CEB81200
3B312210
1ECC4110
27000210
B8233310
BFFFB200
ENDCHAR
STARTCHAR four
ENCODING 52
SWIDTH 809 0
DWIDTH 7 0
BBX 7 8 0 -1
BITMAP
16126120
9915C110
A915C110
A9126110
9D222310
4FFFB110
0128C220
0007FD30
ENDCHAR
STARTCHAR five
ENCODING 53
SWIDTH 747 0
DWIDTH 7 0
BBX 7 8 0 -1
BITMAP
16111110
99122110
99139800
99111120
9ECC5110
58000110
A9233410
AFFFC200
ENDCHAR
STARTCHAR six
ENCODING 54
SWIDTH 793 0
DWIDTH 7 0
BBX 7 8 0 -1
BITMAP
02233210
28100010
9813A800
A8322120
A826C110
AA112110
9F743520
1AEFC400
ENDCHAR
STARTCHAR seven
ENCODING 55
SWIDTH 727 0
DWIDTH 7 0
BBX 7 8 0 -1
BITMAP
25111110
C6122110
DFFE2110
22411110
0A123300
2F016000
3F221000
3FF70000
ENDCHAR
STARTCHAR eight
ENCODING 56
SWIDTH 811 0
DWIDTH 7 0
BBX 8 8 0 -1
BITMAP
01233210
1B14B110
5F301120
49132210
8717E111
C8212111
BE633520
3BFFD500
ENDCHAR
STARTCHAR nine
ENCODING 57
SWIDTH 793 0
DWIDTH 7 0
BBX 7 8 0 -1
BITMAP
01233310
37100110
B717A210
CB133410
AFCA7110
2C200110
1F433410
1FFFC300
ENDCHAR
STARTCHAR colon
ENCODING 58
SWIDTH 484 0
DWIDTH 4 0
BBX 5 8 0 -1
BITMAP
021200
680010
B81010
BA3310
8C8500
981010
B91210
AFE500
ENDCHAR
STARTCHAR semicolon
ENCODING 59
SWIDTH 484 0
DWIDTH 4 0
BBX 5 8 0 -2
BITMAP
031200
881010
BA3310
9C8500
781110
BC5110
9A1200
9F9100
ENDCHAR
STARTCHAR less
ENCODING 60
SWIDTH 814 0
DWIDTH 7 0
BBX 7 7 0 -1
BITMAP
00011120
02211120
3B129A10
7C112110
6FB52110
17CFFC40
00015600
ENDCHAR
STARTCHAR equal
ENCODING 61
SWIDTH 834 0
DWIDTH 8 0
BBX 8 7 0 -1
BITMAP
02111110
5A122201
9D888850
29333330
8A111101
9FEEEE70
12222100
ENDCHAR
STARTCHAR greater
ENCODING 62
SWIDTH 814 0
DWIDTH 7 0
BBX 7 7 0 -1
BITMAP
07111000
6D122110
6FFB6210
04741220
1A014730
6E9DB300
49410000
ENDCHAR
STARTCHAR question
ENCODING 63
SWIDTH 756 0
DWIDTH 7 0
BBX 7 8 0 -1
BITMAP
25111220
B7122120
CFCA3110
2B311110
0F526100
0E211000
1F411000
1FFA0000
ENDCHAR
STARTCHAR at
ENCODING 64
SWIDTH 967 0
DWIDTH 9 0
BBX 9 11 0 -3
BITMAP
0012111100
036DFFD410
4966556710
9992764710
A991864710
A992003420
A98A778600
AB26887000
7F83222000
0AFFFE6000
0012220000
ENDCHAR
STARTCHAR A
ENCODING 65
SWIDTH 830 0
DWIDTH 7 0
BBX 8 8 0 -1
BITMAP
00311110
05422110
0B13A210
49238111
98211121
B817F111
B914F311
AFA2FF60
ENDCHAR
STARTCHAR B
ENCODING 66
SWIDTH 825 0
DWIDTH 7 0
BBX 8 8 0 -1
BITMAP
17111110
8A122110
9A14A120
9A222210
9A15E221
9A112021
9B333330
8FFFFA10
ENDCHAR
STARTCHAR C
ENCODING 67
SWIDTH 728 0
DWIDTH 7 0
BBX 7 8 0 -1
BITMAP
01111110
28122110
9815EA00
A8122000
A8110000
AA112210
8F633220
1BFFF910
ENDCHAR
STARTCHAR D
ENCODING 68
SWIDTH 846 0
DWIDTH 8 0
BBX 8 8 0 -1
BITMAP
17111120
8A122201
9A139111
9A14F311
9A12F311
9A118111
9B333430
8FFFE800
ENDCHAR
STARTCHAR E
ENCODING 69
SWIDTH 754 0
DWIDTH 7 0
BBX 7 8 0 -1
BITMAP
17111110
8A122110
9A14BA10
9A211100
9A114300
9A138310
9B333220
8FFFFB10
ENDCHAR
STARTCHAR F
ENCODING 70
SWIDTH 718 0
DWIDTH 6 0
BBX 7 8 0 -1
BITMAP
17111110
8A122110
9A14FA00
9A211100
9A100100
9A14C100
9B231000
8FD30000
ENDCHAR
STARTCHAR G
ENCODING 71
SWIDTH 808 0
DWIDTH 7 0
BBX 7 8 0 -1
BITMAP
02111120
28122110
9815EA10
A8124220
A813C110
AA237110
8F633320
1BFFFE40
ENDCHAR
STARTCHAR H
ENCODING 72
SWIDTH 859 0
DWIDTH 8 0
BBX 8 8 0 -1
BITMAP
17124411
8A12F311
9A118211
9A211121
9A14F311
9A12F311
9B12F521
8FC1FF70
ENDCHAR
STARTCHAR I
ENCODING 73
SWIDTH 705 0
DWIDTH 6 0
BBX 7 8 0 -1
BITMAP
16111110
A8122010
BD712500
5CB12000
08B11000
06611200
89233210
BFFFE600
ENDCHAR
STARTCHAR J
ENCODING 74
SWIDTH 788 0
DWIDTH 7 0
BBX 7 8 0 -1
BITMAP
00016120
00099110
000A9110
032A9110
A6187110
D7122110
BD522410
3CFEB200
ENDCHAR
STARTCHAR K
ENCODING 75
SWIDTH 846 0
DWIDTH 8 0
BBX 8 8 0 -1
BITMAP
17124121
8A148110
9A132120
9A212201
9A139111
9A14F311
9B13F421
8FD3FF70
ENDCHAR
STARTCHAR L
ENCODING 76
SWIDTH 795 0
DWIDTH 7 0
BBX 7 8 0 -1
BITMAP
17120000
8A110000
9A110000
9A112220
9A13C110
9A128110
9B333320
8FFFFE40
ENDCHAR
STARTCHAR M
ENCODING 77
SWIDTH 949 0
DWIDTH 9 0
BBX 9 8 0 -1
BITMAP
1711031110
8A11452010
9A11321010
9A11121010
9A156A1010
9A149F1010
9B224F2210
8FC23FF500
ENDCHAR
STARTCHAR N
ENCODING 78
SWIDTH 853 0
DWIDTH 8 0
BBX 8 8 0 -1
BITMAP
17114311
8A219311
9A111111
9A121111
9A157221
9A15F211
9B14F421
8FC2FF70
ENDCHAR
STARTCHAR O
ENCODING 79
SWIDTH 837 0
DWIDTH 8 0
BBX 8 8 0 -1
BITMAP
01233320
28115111
9816F211
A814F211
A813F111
AA200111
8F743530
1AEFD600
ENDCHAR
STARTCHAR P
ENCODING 80
SWIDTH 782 0
DWIDTH 7 0
BBX 7 8 0 -1
BITMAP
17111110
8A123210
9A15D110
9A113110
9A211220
9A14E700
9B231000
8FD20000
ENDCHAR
STARTCHAR Q
ENCODING 81
SWIDTH 837 0
DWIDTH 8 0
BBX 8 10 0 -3
BITMAP
01233320
28100011
9815F111
A814F211
A813F211
A9216111
9D222210
4FF40510
01EFA100
00120000
ENDCHAR
STARTCHAR R
ENCODING 82
SWIDTH 843 0
DWIDTH 8 0
BBX 8 8 0 -1
BITMAP
17111110
8A122110
9A15B210
9A223210
9A100011
9A15F411
9B23F622
8FD3EF90
ENDCHAR
STARTCHAR S
ENCODING 83
SWIDTH 750 0
DWIDTH 7 0
BBX 7 8 0 -1
BITMAP
02111110
37122120
A814A900
BA110010
AFC84110
29331210
A9233410
BFFFC200
ENDCHAR
STARTCHAR T
ENCODING 84
SWIDTH 756 0
DWIDTH 7 0
BBX 7 8 0 -1
BITMAP
34111120
E4122110
EFE10D30
26E10200
05E10100
05E10100
05E22100
04FE5000
ENDCHAR
STARTCHAR U
ENCODING 85
SWIDTH 846 0
DWIDTH 8 0
BBX 8 8 0 -1
BITMAP
16125311
9913F211
A913F211
A913F211
A9229111
AB022201
7F732330
1AEFD600
ENDCHAR
STARTCHAR V
ENCODING 86
SWIDTH 830 0
DWIDTH 7 0
BBX 8 8 0 -1
BITMAP
26125211
A813F111
B814F111
B914F111
AD11B110
6F412110
1EA33210
08FFE300
ENDCHAR
STARTCHAR W
ENCODING 87
SWIDTH 931 0
DWIDTH 8 0
BBX 9 8 0 -1
BITMAP
1612061210
A9113F1110
A9124C1110
A912131110
A910111100
AC11721100
6F43C63100
1EF6DF8000
ENDCHAR
STARTCHAR X
ENCODING 88
SWIDTH 837 0
DWIDTH 8 0
BBX 8 8 0 -1
BITMAP
16125311
9912E111
AE213220
4F722120
0A114110
5915F111
AA15F321
AFC3FF60
ENDCHAR
STARTCHAR Y
ENCODING 89
SWIDTH 805 0
DWIDTH 7 0
BBX 8 8 0 -1
BITMAP
25126121
C715F111
C715D111
CC112220
7F812110
0BF21200
02F41200
01FF8000
ENDCHAR
STARTCHAR Z
ENCODING 90
SWIDTH 760 0
DWIDTH 7 0
BBX 7 8 0 -1
BITMAP
16111110
99122110
9FF71120
13802200
06121100
67102210
C8333220
BFFFFC20
ENDCHAR
STARTCHAR bracketleft
ENCODING 91
SWIDTH 529 0
DWIDTH 5 0
BBX 5 10 0 -2
BITMAP
031110
972220
C71520
C71100
C71100
C71100
C71110
C71120
CFFD20
122100
ENDCHAR
STARTCHAR backslash
ENCODING 92
SWIDTH 487 0
DWIDTH 4 0
BBX 5 11 0 -3
BITMAP
021100
B51100
E71100
C91100
9B1100
7E1100
5F1110
3F3110
1F5020
0EFA10
012000
ENDCHAR
STARTCHAR bracketright
ENCODING 93
SWIDTH 529 0
DWIDTH 5 0
BBX 5 10 0 -2
BITMAP
031110
971210
CF6110
1D6110
0D6110
0D6110
0A4110
871110
CFFC20
122100
ENDCHAR
STARTCHAR asciicircum
ENCODING 94
SWIDTH 814 0
DWIDTH 7 0
BBX 7 7 0 0
BITMAP
00333200
07522200
0E237110
3B27A110
770AE010
BF95FE50
12002100
ENDCHAR
STARTCHAR underscore
ENCODING 95
SWIDTH 834 0
DWIDTH 8 0
BBX 8 4 0 -3
BITMAP
03111110
6A111101
9FFFFF80
12222200
ENDCHAR
STARTCHAR grave
ENCODING 96
SWIDTH 600 0
DWIDTH 5 0
BBX 6 4 0 5
BITMAP
141110
B82101
BFFE91
002400
ENDCHAR
STARTCHAR a
ENCODING 97
SWIDTH 830 0
DWIDTH 7 0
BBX 8 8 0 -1
BITMAP
00311110
05422110
0B13A210
49238111
98211121
B817F111
B914F311
AFA2FF60
ENDCHAR
STARTCHAR b
ENCODING 98
SWIDTH 825 0
DWIDTH 7 0
BBX 8 8 0 -1
BITMAP
17111110
8A122110
9A14A120
9A222210
9A15E221
9A112021
9B333330
8FFFFA10
ENDCHAR
STARTCHAR c
ENCODING 99
SWIDTH 728 0
DWIDTH 7 0
BBX 7 8 0 -1
BITMAP
01111110
28122110
9815EA00
A8122000
A8110000
AA112210
8F633220
1BFFF910
ENDCHAR
STARTCHAR d
ENCODING 100
SWIDTH 846 0
DWIDTH 8 0
BBX 8 8 0 -1
BITMAP
17111120
8A122201
9A139111
9A14F311
9A12F311
9A118111
9B333430
8FFFE800
ENDCHAR
STARTCHAR e
ENCODING 101
SWIDTH 754 0
DWIDTH 7 0
BBX 7 8 0 -1
BITMAP
17111110
8A122110
9A14BA10
9A211100
9A114300
9A138310
9B333220
8FFFFB10
ENDCHAR
STARTCHAR f
ENCODING 102
SWIDTH 718 0
DWIDTH 6 0
BBX 7 8 0 -1
BITMAP
17111110
8A122110
9A14FA00
9A211100
9A100100
9A14C100
9B231000
8FD30000
ENDCHAR
STARTCHAR g
ENCODING 103
SWIDTH 808 0
DWIDTH 7 0
BBX 7 8 0 -1
BITMAP
02111120
28122110
9815EA10
A8124220
A813C110
AA237110
8F633320
1BFFFE40
ENDCHAR
STARTCHAR h
ENCODING 104
SWIDTH 859 0
DWIDTH 8 0
BBX 8 8 0 -1
BITMAP
17124411
8A12F311
9A118211
9A211121
9A14F311
9A12F311
9B12F521
8FC1FF70
ENDCHAR
STARTCHAR i
ENCODING 105
SWIDTH 705 0
DWIDTH 6 0
BBX 7 8 0 -1
BITMAP
16111110
A8122010
BD712500
5CB12000
08B11000
06611200
89233210
BFFFE600
ENDCHAR
STARTCHAR j
ENCODING 106
SWIDTH 788 0
DWIDTH 7 0
BBX 7 8 0 -1
BITMAP
00016120
00099110
000A9110
032A9110
A6187110
D7122110
BD522410
3CFEB200
ENDCHAR
STARTCHAR k
ENCODING 107
SWIDTH 846 0
DWIDTH 8 0
BBX 8 8 0 -1
BITMAP
17124121
8A148110
9A132120
9A212201
9A139111
9A14F311
9B13F421
8FD3FF70
ENDCHAR
STARTCHAR l
ENCODING 108
SWIDTH 795 0
DWIDTH 7 0
BBX 7 8 0 -1
BITMAP
17120000
8A110000
9A110000
9A112220
9A13C110
9A128110
9B333320
8FFFFE40
ENDCHAR
STARTCHAR m
ENCODING 109
SWIDTH 949 0
DWIDTH 9 0
BBX 9 8 0 -1
BITMAP
1711031110
8A11452010
9A11321010
9A11121010
9A156A1010
9A149F1010
9B224F2210
8FC23FF500
ENDCHAR
STARTCHAR n
ENCODING 110
SWIDTH 853 0
DWIDTH 8 0
BBX 8 8 0 -1
BITMAP
17114311
8A219311
9A111111
9A121111
9A157221
9A15F211
9B14F421
8FC2FF70
ENDCHAR
STARTCHAR o
ENCODING 111
SWIDTH 837 0
DWIDTH 8 0
BBX 8 8 0 -1
BITMAP
01233320
28115111
9816F211
A814F211
A813F111
AA200111
8F743530
1AEFD600
ENDCHAR
STARTCHAR p
ENCODING 112
SWIDTH 782 0
DWIDTH 7 0
BBX 7 8 0 -1
BITMAP
17111110
8A123210
9A15D110
9A113110
9A211220
9A14E700
9B231000
8FD20000
ENDCHAR
STARTCHAR q
ENCODING 113
SWIDTH 837 0
DWIDTH 8 0
BBX 8 10 0 -3
BITMAP
01233320
28100011
9815F111
A814F211
A813F211
A9216111
9D222210
4FF40510
01EFA100
00120000
ENDCHAR
STARTCHAR r
ENCODING 114
SWIDTH 843 0
DWIDTH 8 0
BBX 8 8 0 -1
BITMAP
17111110
8A122110
9A15B210
9A223210
9A100011
9A15F411
9B23F622
8FD3EF90
ENDCHAR
STARTCHAR s
ENCODING 115
SWIDTH 750 0
DWIDTH 7 0
BBX 7 8 0 -1
BITMAP
02111110
37122120
A814A900
BA110010
AFC84110
29331210
A9233410
BFFFC200
ENDCHAR
STARTCHAR t
ENCODING 116
SWIDTH 756 0
DWIDTH 7 0
BBX 7 8 0 -1
BITMAP
34111120
E4122110
EFE10D30
26E10200
05E10100
05E10100
05E22100
04FE5000
ENDCHAR
STARTCHAR u
ENCODING 117
SWIDTH 846 0
DWIDTH 8 0
BBX 8 8 0 -1
BITMAP
16125311
9913F211
A913F211
A913F211
A9229111
AB022201
7F732330
1AEFD600
ENDCHAR
STARTCHAR v
ENCODING 118
SWIDTH 830 0
DWIDTH 7 0
BBX 8 8 0 -1
BITMAP
26125211
A813F111
B814F111
B914F111
AD11B110
6F412110
1EA33210
08FFE300
ENDCHAR
STARTCHAR w
ENCODING 119
SWIDTH 931 0
DWIDTH 8 0
BBX 9 8 0 -1
BITMAP
1612061210
A9113F1110
A9124C1110
A912131110
A910111100
AC11721100
6F43C63100
1EF6DF8000
ENDCHAR
STARTCHAR x
ENCODING 120
SWIDTH 837 0
DWIDTH 8 0
BBX 8 8 0 -1
BITMAP
16125311
9912E111
AE213220
4F722120
0A114110
5915F111
AA15F321
AFC3FF60
ENDCHAR
STARTCHAR y
ENCODING 121
SWIDTH 805 0
DWIDTH 7 0
BBX 8 8 0 -1
BITMAP
25126121
C715F111
C715D111
CC112220
7F812110
0BF21200
02F41200
01FF8000
ENDCHAR
STARTCHAR z
ENCODING 122
SWIDTH 760 0
DWIDTH 7 0
BBX 7 8 0 -1
BITMAP
16111110
99122110
9FF71120
13802200
06121100
67102210
C8333220
BFFFFC20
ENDCHAR
STARTCHAR braceleft
ENCODING 123
SWIDTH 555 0
DWIDTH 5 0
BBX 5 10 0 -2
BITMAP
001110
072220
5C1230
782200
C42400
FB1100
8D1120
6F6220
2DFE40
002100
ENDCHAR
STARTCHAR bar
ENCODING 124
SWIDTH 447 0
DWIDTH 4 0
BBX 4 11 0 -3
BITMAP
0211
6911
9911
9911
9911
9911
9911
9911
9A01
9FC2
1210
ENDCHAR
STARTCHAR braceright
ENCODING 125
SWIDTH 555 0
DWIDTH 5 0
BBX 5 10 0 -2
BITMAP
031100
971120
CF4110
1E5220
0EA210
0B5220
0B3110
871310
CFC200
120000
ENDCHAR
STARTCHAR asciitilde
ENCODING 126
SWIDTH 834 0
DWIDTH 8 0
BBX 8 4 0 1
BITMAP
01111120
39111101
9DAB9740
45568400
ENDCHAR
STARTCHAR uni00A0
ENCODING 160
SWIDTH 325 0
DWIDTH 3 0
BBX 1 1 0 0
BITMAP
00
ENDCHAR
STARTCHAR exclamdown
ENCODING 161
SWIDTH 523 0
DWIDTH 5 0
BBX 5 8 0 -1
BITMAP
071110
6C1010
7F9700
3D1010
5D1010
6C1010
6C1110
6FF600
ENDCHAR
STARTCHAR cent
ENCODING 162
SWIDTH 728 0
DWIDTH 7 0
BBX 7 10 0 -2
BITMAP
00031100
00831110
18122110
8915EB10
A8122000
A9112210
9D112110
4FE40510
02EFA100
00220000
ENDCHAR
STARTCHAR sterling
ENCODING 163
SWIDTH 795 0
DWIDTH 7 0
BBX 7 8 0 -1
BITMAP
01211200
1A112100
8913C400
B3203120
F913B110
CA100110
9B333320
8FFFFE30
ENDCHAR
STARTCHAR currency
ENCODING 164
SWIDTH 921 0
DWIDTH 8 0
BBX 8 10 0 -2
BITMAP
00200011
05321245
6B211021
7F612011
0D61E711
0D62D622
0A231222
6B1AAB51
8F787DB1
02000100
ENDCHAR
STARTCHAR yen
ENCODING 165
SWIDTH 803 0
DWIDTH 7 0
BBX 8 8 0 -1
BITMAP
26128121
C715F111
C8126220
8E212030
1E412210
5E511430
4CF41600
01FF7000
ENDCHAR
STARTCHAR brokenbar
ENCODING 166
SWIDTH 447 0
DWIDTH 4 0
BBX 4 11 0 -3
BITMAP
0211
6911
9911
9B33
9D82
4901
9911
9911
9A01
9FC1
1210
ENDCHAR
STARTCHAR section
ENCODING 167
SWIDTH 750 0
DWIDTH 7 0
BBX 7 8 0 -1
BITMAP
01233210
28138810
98211110
B8145110
BD211210
6EA83110
49234400
9FFEA100
ENDCHAR
STARTCHAR dieresis
ENCODING 168
SWIDTH 600 0
DWIDTH 5 0
BBX 7 4 -1 5
BITMAP
01213110
0D318020
1FFEFB10
02112000
ENDCHAR
STARTCHAR copyright
ENCODING 169
SWIDTH 967 0
DWIDTH 9 0
BBX 9 11 0 -3
BITMAP
0012111100
035DEDB410
4965117710
99945DE710
A99421D710
A99411A710
A998217710
AB4CEDA310
7F83224300
1AFFFE7000
0012200000
ENDCHAR
STARTCHAR ordfeminine
ENCODING 170
SWIDTH 620 0
DWIDTH 6 0
BBX 6 8 0 -1
BITMAP
043220
2A2521
762721
C53121
D64D12
DB7882
A73322
DFFFA0
ENDCHAR
STARTCHAR guillemotleft
ENCODING 171
SWIDTH 912 0
DWIDTH 8 0
BBX 8 7 0 -1
BITMAP
00011012
02213221
67249133
B8227122
BE737A42
3AED8DE4
00010010
ENDCHAR
STARTCHAR logicalnot
ENCODING 172
SWIDTH 834 0
DWIDTH 8 0
BBX 8 7 0 -1
BITMAP
02111110
39111111
9A000011
9FFFF411
1222F411
0000FE50
00001100
ENDCHAR
STARTCHAR uni00AD
ENCODING 173
SWIDTH 520 0
DWIDTH 5 0
BBX 5 4 0 0
BITMAP
031110
A61120
DFFC20
222100
ENDCHAR
STARTCHAR registered
ENCODING 174
SWIDTH 660 0
DWIDTH 6 0
BBX 6 6 0 1
BITMAP
03ABC2
596083
B97663
BA8B83
AD7563
4EFD50
ENDCHAR
STARTCHAR macron
ENCODING 175
SWIDTH 600 0
DWIDTH 5 0
BBX 6 4 0 5
BITMAP
031111
961111
DFFF90
122200
ENDCHAR
STARTCHAR degree
ENCODING 176
SWIDTH 583 0
DWIDTH 5 0
BBX 6 5 0 2
BITMAP
033330
875A21
C72211
CA2120
7FFA10
ENDCHAR
STARTCHAR plusminus
ENCODING 177
SWIDTH 834 0
DWIDTH 8 0
BBX 8 8 0 -1
BITMAP
00151100
00B71100
02643200
5C731571
9FF71CA0
27840510
6B233321
8FFFFF60
ENDCHAR
STARTCHAR twosuperior
ENCODING 178
SWIDTH 585 0
DWIDTH 5 0
BBX 5 7 0 0
BITMAP
272230
9EB330
382230
962620
D62110
DFFE50
122200
ENDCHAR
STARTCHAR threesuperior
ENCODING 179
SWIDTH 584 0
DWIDTH 5 0
BBX 6 7 0 0
BITMAP
262210
BD8210
6E1220
4D9511
671120
CFFC20
122000
ENDCHAR
STARTCHAR acute
ENCODING 180
SWIDTH 600 0
DWIDTH 5 0
BBX 6 4 0 5
BITMAP
011111
761221
DDDE50
331000
ENDCHAR
STARTCHAR mu
ENCODING 181
SWIDTH 813 0
DWIDTH 7 0
BBX 7 8 0 -2
BITMAP
02112120
6913C110
A916E110
A924B110
A9222110
A9100100
AC69C500
6B700000
ENDCHAR
STARTCHAR paragraph
ENCODING 182
SWIDTH 782 0
DWIDTH 7 0
BBX 7 8 0 -1
BITMAP
02111120
46122210
C5100110
E6100110
DA121210
8FA15110
08C28220
07FDFB10
ENDCHAR
STARTCHAR periodcentered
ENCODING 183
SWIDTH 464 0
DWIDTH 4 0
BBX 4 4 0 1
BITMAP
0322
9711
C813
CFE4
ENDCHAR
STARTCHAR cedilla
ENCODING 184
SWIDTH 600 0
DWIDTH 5 0
BBX 5 5 0 -3
BITMAP
002100
057120
0C2110
2FE500
021000
ENDCHAR
STARTCHAR onesuperior
ENCODING 185
SWIDTH 557 0
DWIDTH 5 0
BBX 5 7 0 0
BITMAP
272300
AD5200
4D7200
094220
771220
CFFE40
122100
ENDCHAR
STARTCHAR ordmasculine
ENCODING 186
SWIDTH 625 0
DWIDTH 6 0
BBX 6 8 0 -1
BITMAP
023331
662311
D63D11
D63D11
DA2121
AB8851
773322
CFFFA0
ENDCHAR
STARTCHAR guillemotright
ENCODING 187
SWIDTH 912 0
DWIDTH 8 0
BBX 8 6 0 0
BITMAP
2AA8AA93
A9149137
9D516712
3B316321
A924B112
67248400
ENDCHAR
STARTCHAR onequarter
ENCODING 188
SWIDTH 1303 0
DWIDTH 12 0
BBX 12 8 0 -1
BITMAP
272317220000
AD526B121211
2D7289161B11
094286191C11
8712342A1511
BFFFF24D2121
0002E24DEE12
0005FB104FA0
ENDCHAR
STARTCHAR onehalf
ENCODING 189
SWIDTH 1260 0
DWIDTH 11 0
BBX 12 8 0 -1
BITMAP
272317220000
AD526B121110
3D7289171121
0942861DB321
771234292240
CFFEF2472721
1224E2883321
0005FBCFFF50
ENDCHAR
STARTCHAR threequarters
ENCODING 190
SWIDTH 1313 0
DWIDTH 12 0
BBX 12 8 0 -1
BITMAP
362227220000
CD326D121221
4E112A161B11
4D9517191C21
6711452B1511
BFEDF33E2121
0001F23CEF22
0003FC103FB1
ENDCHAR
STARTCHAR questiondown
ENCODING 191
SWIDTH 756 0
DWIDTH 7 0
BBX 7 8 0 -1
BITMAP
00151200
00980100
00BC7500
03421100
67113400
C7158310
CC311120
5EFFFC20
ENDCHAR
STARTCHAR Agrave
ENCODING 192
SWIDTH 830 0
DWIDTH 7 0
BBX 8 11 0 -1
BITMAP
00221000
0598AA30
0C810000
08901210
05322110
0B13A210
49238111
98211121
B817F111
B914F311
AFA2FF60
ENDCHAR
STARTCHAR Aacute
ENCODING 193
SWIDTH 830 0
DWIDTH 7 0
BBX 8 11 0 -1
BITMAP
00000200
01899630
0B700000
0C811110
08422110
0B13A210
49238111
98211121
B817F111
B914F311
AFA2FF60
ENDCHAR
STARTCHAR Acircumflex
ENCODING 194
SWIDTH 830 0
DWIDTH 7 0
BBX 8 11 0 -1
BITMAP
00012100
01411110
0AB8B710
0C800010
08322110
0A13A210
49238111
98211121
B817F111
B914F311
AFA2FF60
ENDCHAR
STARTCHAR Atilde
ENCODING 195
SWIDTH 830 0
DWIDTH 7 0
BBX 8 10 0 -1
BITMAP
00333300
09742120
0CC55410
08522110
0C13A210
49238111
98211121
B817F111
B914F311
AFA2FF60
ENDCHAR
STARTCHAR Adieresis
ENCODING 196
SWIDTH 830 0
DWIDTH 7 0
BBX 8 11 0 -1
BITMAP
00213110
09317110
0F408010
0FC66610
09522110
0C13A210
4A238111
98211121
B817F111
B914F311
AFA2FF60
ENDCHAR
STARTCHAR Aring
ENCODING 197
SWIDTH 830 0
DWIDTH 7 0
BBX 8 11 0 -1
BITMAP
00022200
01422110
0B64B110
0D823110
0B322110
0B13A210
49238111
98211121
B817F111
B914F311
AFA2FF60
ENDCHAR
STARTCHAR AE
ENCODING 198
SWIDTH 1105 0
DWIDTH 10 0
BBX 10 8 0 -1
BITMAP
0151111112
0A32222212
1C12F01AB2
6913902120
A821121870
B817F01043
B925F23323
AFA3FFFFC3
ENDCHAR
STARTCHAR Ccedilla
ENCODING 199
SWIDTH 728 0
DWIDTH 7 0
BBX 7 10 0 -3
BITMAP
01233210
28100010
9815FA00
A8122000
A9110000
AC122100
8FD31840
1AF21A10
01FE6000
00210000
ENDCHAR
STARTCHAR Egrave
ENCODING 200
SWIDTH 754 0
DWIDTH 7 0
BBX 7 11 0 -1
BITMAP
00210000
09799800
2F400100
1A110110
7A122110
9A14BA10
9A211100
9A114300
9A138310
9B333220
8FFFFB10
ENDCHAR
STARTCHAR Eacute
ENCODING 201
SWIDTH 754 0
DWIDTH 7 0
BBX 7 11 0 -1
BITMAP
00000200
01899620
0C500100
1A111110
8A122110
9A14BA10
9A211100
9A114300
9A138310
9B333220
8FFFFB10
ENDCHAR
STARTCHAR Ecircumflex
ENCODING 202
SWIDTH 754 0
DWIDTH 7 0
BBX 7 11 0 -1
BITMAP
00122100
04311200
1F789500
2B111110
9A122110
9A14BA10
9A211100
9A114300
9A138310
9B333220
8FFFFB10
ENDCHAR
STARTCHAR Edieresis
ENCODING 203
SWIDTH 754 0
DWIDTH 7 0
BBX 7 11 0 -1
BITMAP
01223110
0B126110
3F126000
3C666640
6A122110
9A14BA10
9A211100
9A114300
9A138310
9B333220
8FFFFB10
ENDCHAR
STARTCHAR Igrave
ENCODING 204
SWIDTH 705 0
DWIDTH 6 0
BBX 7 11 0 -1
BITMAP
00200000
1A699600
6E200000
49111010
98122010
BD712500
5CB12000
08B11000
06611200
89233210
BFFFE600
ENDCHAR
STARTCHAR Iacute
ENCODING 205
SWIDTH 705 0
DWIDTH 6 0
BBX 7 11 0 -1
BITMAP
00001100
05898500
4D001100
69101110
88122010
BD712500
5CB12000
08B11000
06611200
89233210
BFFFE600
ENDCHAR
STARTCHAR Icircumflex
ENCODING 206
SWIDTH 705 0
DWIDTH 6 0
BBX 7 11 0 -1
BITMAP
00122000
04111200
3D597300
69111110
88122010
BD712500
5CB12000
08B11000
06611200
89233210
BFFFE600
ENDCHAR
STARTCHAR Idieresis
ENCODING 207
SWIDTH 705 0
DWIDTH 6 0
BBX 7 11 0 -1
BITMAP
02132200
39181100
9A080000
9B666610
98122010
BD712500
5CB12000
08B11000
06611200
89233210
BFFFE600
ENDCHAR
STARTCHAR Eth
ENCODING 208
SWIDTH 856 0
DWIDTH 8 0
BBX 8 8 0 -1
BITMAP
07111110
7B122202
8B13D321
A3318411
FA12C311
CB100011
8C233330
7FFFE900
ENDCHAR
STARTCHAR Ntilde
ENCODING 209
SWIDTH 853 0
DWIDTH 8 0
BBX 8 10 0 -1
BITMAP
00333300
09933110
1817F411
8A219311
9A111111
9A121111
9A157221
9A15F211
9B14F421
8FC2FF70
ENDCHAR
STARTCHAR Ograve
ENCODING 210
SWIDTH 837 0
DWIDTH 8 0
BBX 8 11 0 -1
BITMAP
00110000
04989820
0C810000
08621030
59115112
A816F211
A814F211
A813F111
AA200111
8F743530
1AEFD600
ENDCHAR
STARTCHAR Oacute
ENCODING 211
SWIDTH 837 0
DWIDTH 8 0
BBX 8 11 0 -1
BITMAP
00000100
00789730
0A700000
0B401220
69115111
A816F211
A814F211
A813F111
AA200111
8F743530
1AEFD600
ENDCHAR
STARTCHAR Ocircumflex
ENCODING 212
SWIDTH 837 0
DWIDTH 8 0
BBX 8 11 0 -1
BITMAP
00022100
03611110
0CA79710
0A311130
69115112
A816F211
A814F211
A813F111
AA200111
8F743530
1AEFD600
ENDCHAR
STARTCHAR Otilde
ENCODING 213
SWIDTH 837 0
DWIDTH 8 0
BBX 8 11 0 -1
BITMAP
00211110
05712110
0C842110
0B743420
6A115111
A816F211
A814F211
A813F111
AA200111
8F743530
1AEFD600
ENDCHAR
STARTCHAR Odieresis
ENCODING 214
SWIDTH 837 0
DWIDTH 8 0
BBX 8 11 0 -1
BITMAP
00313110
0B417110
0F408010
0C965730
6A115111
A816F211
A814F211
A813F111
AA200111
8F743530
1AEFD600
ENDCHAR
STARTCHAR multiply
ENCODING 215
SWIDTH 834 0
DWIDTH 8 0
BBX 7 7 0 0
BITMAP
00100100
05113110
4F721110
1CD13110
05213120
3E58F410
2D72C600
ENDCHAR
STARTCHAR Oslash
ENCODING 216
SWIDTH 837 0
DWIDTH 8 0
BBX 8 10 0 -2
BITMAP
00001220
01233410
28144C21
98188221
A813A411
A825B311
A97A0011
9E244530
3F9BD600
28400000
ENDCHAR
STARTCHAR Ugrave
ENCODING 217
SWIDTH 846 0
DWIDTH 8 0
BBX 8 11 0 -1
BITMAP
00110000
05989820
0D810000
1815D111
9913F211
A913F211
A913F211
A9229111
AB022201
7F732330
1AEFD600
ENDCHAR
STARTCHAR Uacute
ENCODING 218
SWIDTH 846 0
DWIDTH 8 0
BBX 8 11 0 -1
BITMAP
00000210
00799730
08900010
1802C411
9913F211
A913F211
A913F211
A9229111
AB022201
7F732330
1AEFD600
ENDCHAR
STARTCHAR Ucircumflex
ENCODING 219
SWIDTH 846 0
DWIDTH 8 0
BBX 8 11 0 -1
BITMAP
00012100
01511110
0AB9C830
1815E411
9913F211
A913F211
A913F211
A923F211
AB022201
7F732330
1AEFD600
ENDCHAR
STARTCHAR Udieresis
ENCODING 220
SWIDTH 846 0
DWIDTH 8 0
BBX 8 11 0 -1
BITMAP
00313110
0A417110
0F508000
4C69F762
A913F211
A913F211
A913F211
A912A111
9A022201
7F732330
19EFD600
ENDCHAR
STARTCHAR Yacute
ENCODING 221
SWIDTH 805 0
DWIDTH 7 0
BBX 8 11 0 -1
BITMAP
00000200
01899620
0B600000
2705D221
C715F111
C715D111
CC112220
7F812110
0BF21200
02F41200
01FF8000
ENDCHAR
STARTCHAR Thorn
ENCODING 222
SWIDTH 792 0
DWIDTH 7 0
BBX 7 8 0 -1
BITMAP
17120000
8A223320
9A111120
9A15D110
9A113110
9A211220
9B16E600
8FD30000
ENDCHAR
STARTCHAR germandbls
ENCODING 223
SWIDTH 859 0
DWIDTH 8 0
BBX 8 8 0 -1
BITMAP
16111110
8A122110
9A136120
9A145211
9A14E711
9A144011
9B265341
8FDFFC30
ENDCHAR
STARTCHAR agrave
ENCODING 224
SWIDTH 830 0
DWIDTH 7 0
BBX 8 11 0 -1
BITMAP
00221000
0598AA30
0C810000
08901210
05322110
0B13A210
49238111
98211121
B817F111
B914F311
AFA2FF60
ENDCHAR
STARTCHAR aacute
ENCODING 225
SWIDTH 830 0
DWIDTH 7 0
BBX 8 11 0 -1
BITMAP
00000200
01899630
0B700000
0C811110
08422110
0B13A210
49238111
98211121
B817F111
B914F311
AFA2FF60
ENDCHAR
STARTCHAR acircumflex
ENCODING 226
SWIDTH 830 0
DWIDTH 7 0
BBX 8 11 0 -1
BITMAP
00012100
01411110
0AB8B710
0C800010
08322110
0A13A210
49238111
98211121
B817F111
B914F311
AFA2FF60
ENDCHAR
STARTCHAR atilde
ENCODING 227
SWIDTH 830 0
DWIDTH 7 0
BBX 8 10 0 -1
BITMAP
00333300
09742120
0CC55410
08522110
0C13A210
49238111
98211121
B817F111
B914F311
AFA2FF60
ENDCHAR
STARTCHAR adieresis
ENCODING 228
SWIDTH 830 0
DWIDTH 7 0
BBX 8 11 0 -1
BITMAP
00213110
09317110
0F408010
0FC66610
09522110
0C13A210
4A238111
98211121
B817F111
B914F311
AFA2FF60
ENDCHAR
STARTCHAR aring
ENCODING 229
SWIDTH 830 0
DWIDTH 7 0
BBX 8 11 0 -1
BITMAP
00022200
01422110
0B64B110
0D823110
0B322110
0B13A210
49238111
98211121
B817F111
B914F311
AFA2FF60
ENDCHAR
STARTCHAR ae
ENCODING 230
SWIDTH 1105 0
DWIDTH 10 0
BBX 10 8 0 -1
BITMAP
0151111112
0A32222212
1C12F01AB2
6913902120
A821121870
B817F01043
B925F23323
AFA3FFFFC3
ENDCHAR
STARTCHAR ccedilla
ENCODING 231
SWIDTH 728 0
DWIDTH 7 0
BBX 7 10 0 -3
BITMAP
01233210
28100010
9815FA00
A8122000
A9110000
AC122100
8FD31840
1AF21A10
01FE6000
00210000
ENDCHAR
STARTCHAR egrave
ENCODING 232
SWIDTH 754 0
DWIDTH 7 0
BBX 7 11 0 -1
BITMAP
00210000
09799800
2F400100
1A110110
7A122110
9A14BA10
9A211100
9A114300
9A138310
9B333220
8FFFFB10
ENDCHAR
STARTCHAR eacute
ENCODING 233
SWIDTH 754 0
DWIDTH 7 0
BBX 7 11 0 -1
BITMAP
00000200
01899620
0C500100
1A111110
8A122110
9A14BA10
9A211100
9A114300
9A138310
9B333220
8FFFFB10
ENDCHAR
STARTCHAR ecircumflex
ENCODING 234
SWIDTH 754 0
DWIDTH 7 0
BBX 7 11 0 -1
BITMAP
00122100
04311200
1F789500
2B111110
9A122110
9A14BA10
9A211100
9A114300
9A138310
9B333220
8FFFFB10
ENDCHAR
STARTCHAR edieresis
ENCODING 235
SWIDTH 754 0
DWIDTH 7 0
BBX 7 11 0 -1
BITMAP
01223110
0B126110
3F126000
3C666640
6A122110
9A14BA10
9A211100
9A114300
9A138310
9B333220
8FFFFB10
ENDCHAR
STARTCHAR igrave
ENCODING 236
SWIDTH 705 0
DWIDTH 6 0
BBX 7 11 0 -1
BITMAP
00200000
1A699600
6E200000
49111010
98122010
BD712500
5CB12000
08B11000
06611200
89233210
BFFFE600
ENDCHAR
STARTCHAR iacute
ENCODING 237
SWIDTH 705 0
DWIDTH 6 0
BBX 7 11 0 -1
BITMAP
00001100
05898500
4D001100
69101110
88122010
BD712500
5CB12000
08B11000
06611200
89233210
BFFFE600
ENDCHAR
STARTCHAR icircumflex
ENCODING 238
SWIDTH 705 0
DWIDTH 6 0
BBX 7 11 0 -1
BITMAP
00122000
04111200
3D597300
69111110
88122010
BD712500
5CB12000
08B11000
06611200
89233210
BFFFE600
ENDCHAR
STARTCHAR idieresis
ENCODING 239
SWIDTH 705 0
DWIDTH 6 0
BBX 7 11 0 -1
BITMAP
02132200
39181100
9A080000
9B666610
98122010
BD712500
5CB12000
08B11000
06611200
89233210
BFFFE600
ENDCHAR
STARTCHAR eth
ENCODING 240
SWIDTH 856 0
DWIDTH 8 0
BBX 8 8 0 -1
BITMAP
07111110
7B122202
8B13D321
A3318411
FA12C311
CB100011
8C233330
7FFFE900
ENDCHAR
STARTCHAR ntilde
ENCODING 241
SWIDTH 853 0
DWIDTH 8 0
BBX 8 10 0 -1
BITMAP
00333300
09933110
1817F411
8A219311
9A111111
9A121111
9A157221
9A15F211
9B14F421
8FC2FF70
ENDCHAR
STARTCHAR ograve
ENCODING 242
SWIDTH 837 0
DWIDTH 8 0
BBX 8 11 0 -1
BITMAP
00110000
04989820
0C810000
08621030
59115112
A816F211
A814F211
A813F111
AA200111
8F743530
1AEFD600
ENDCHAR
STARTCHAR oacute
ENCODING 243
SWIDTH 837 0
DWIDTH 8 0
BBX 8 11 0 -1
BITMAP
00000100
00789730
0A700000
0B401220
69115111
A816F211
A814F211
A813F111
AA200111
8F743530
1AEFD600
ENDCHAR
STARTCHAR ocircumflex
ENCODING 244
SWIDTH 837 0
DWIDTH 8 0
BBX 8 11 0 -1
BITMAP
00022100
03611110
0CA79710
0A311130
69115112
A816F211
A814F211
A813F111
AA200111
8F743530
1AEFD600
ENDCHAR
STARTCHAR otilde
ENCODING 245
SWIDTH 837 0
DWIDTH 8 0
BBX 8 11 0 -1
BITMAP
00211110
05712110
0C842110
0B743420
6A115111
A816F211
A814F211
A813F111
AA200111
8F743530
1AEFD600
ENDCHAR
STARTCHAR odieresis
ENCODING 246
SWIDTH 837 0
DWIDTH 8 0
BBX 8 11 0 -1
BITMAP
00313110
0B417110
0F408010
0C965730
6A115111
A816F211
A814F211
A813F111
AA200111
8F743530
1AEFD600
ENDCHAR
STARTCHAR divide
ENCODING 247
SWIDTH 834 0
DWIDTH 8 0
BBX 8 8 0 -2
BITMAP
00002000
00C40100
02876320
4A111101
9EA76960
37E41400
00EFC200
00120000
ENDCHAR
STARTCHAR oslash
ENCODING 248
SWIDTH 837 0
DWIDTH 8 0
BBX 8 10 0 -2
BITMAP
00001220
01233410
28144C21
98188221
A813A411
A825B311
A97A0011
9E244530
3F9BD600
28400000
ENDCHAR
STARTCHAR ugrave
ENCODING 249
SWIDTH 846 0
DWIDTH 8 0
BBX 8 11 0 -1
BITMAP
00110000
05989820
0D810000
1815D111
9913F211
A913F211
A913F211
A9229111
AB022201
7F732330
1AEFD600
ENDCHAR
STARTCHAR uacute
ENCODING 250
SWIDTH 846 0
DWIDTH 8 0
BBX 8 11 0 -1
BITMAP
00000210
00799730
08900010
1802C411
9913F211
A913F211
A913F211
A9229111
AB022201
7F732330
1AEFD600
ENDCHAR
STARTCHAR ucircumflex
ENCODING 251
SWIDTH 846 0
DWIDTH 8 0
BBX 8 11 0 -1
BITMAP
00012100
01511110
0AB9C830
1815E411
9913F211
A913F211
A913F211
A923F211
AB022201
7F732330
1AEFD600
ENDCHAR
STARTCHAR udieresis
ENCODING 252
SWIDTH 846 0
DWIDTH 8 0
BBX 8 11 0 -1
BITMAP
00313110
0A417110
0F508000
4C69F762
A913F211
A913F211
A913F211
A912A111
9A022201
7F732330
19EFD600
ENDCHAR
STARTCHAR yacute
ENCODING 253
SWIDTH 805 0
DWIDTH 7 0
BBX 8 11 0 -1
BITMAP
00000200
01899620
0B600000
2705D221
C715F111
C715D111
CC112220
7F812110
0BF21200
02F41200
01FF8000
ENDCHAR
STARTCHAR thorn
ENCODING 254
SWIDTH 792 0
DWIDTH 7 0
BBX 7 8 0 -1
BITMAP
17120000
8A223320
9A111120
9A15D110
9A113110
9A211220
9B16E600
8FD30000
ENDCHAR
STARTCHAR ydieresis
ENCODING 255
SWIDTH 805 0
DWIDTH 7 0
BBX 8 11 0 -1
BITMAP
01223110
1C116110
2F217000
5A6BF661
C715F111
C715D111
CB113110
6F712100
0BF21100
02F41200
01FF8000
ENDCHAR
STARTCHAR Amacron
ENCODING 256
SWIDTH 830 0
DWIDTH 7 0
BBX 8 10 0 -1
BITMAP
00211100
08700020
0CC66610
08522110
0C13A210
4A238111
98211121
B817F111
B914F311
AFA2FF60
ENDCHAR
STARTCHAR amacron
ENCODING 257
SWIDTH 830 0
DWIDTH 7 0
BBX 8 10 0 -1
BITMAP
00211100
08700020
0CC66610
08522110
0C13A210
4A238111
98211121
B817F111
B914F311
AFA2FF60
ENDCHAR
STARTCHAR Abreve
ENCODING 258
SWIDTH 830 0
DWIDTH 7 0
BBX 8 11 0 -1
BITMAP
00322210
08627110
0DB42200
0AC55510
05522120
0C13A220
49238111
98211121
B817F111
B914F311
AFA2FF60
ENDCHAR
STARTCHAR abreve
ENCODING 259
SWIDTH 830 0
DWIDTH 7 0
BBX 8 11 0 -1
BITMAP
00322210
08627110
0DB42200
0AC55510
05522120
0C13A220
49238111
98211121
B817F111
B914F311
AFA2FF60
ENDCHAR
STARTCHAR Aogonek
ENCODING 260
SWIDTH 830 0
DWIDTH 7 0
BBX 8 11 0 -4
BITMAP
00311110
05422110
0B13A210
49238111
98211121
B817F111
B914F211
AFA3E121
0005F101
0003FF80
00002200
ENDCHAR
STARTCHAR aogonek
ENCODING 261
SWIDTH 830 0
DWIDTH 7 0
BBX 8 11 0 -4
BITMAP
00311110
05422110
0B13A210
49238111
98211121
B817F111
B914F211
AFA3E121
0005F101
0003FF80
00002200
ENDCHAR
STARTCHAR Cacute
ENCODING 262
SWIDTH 728 0
DWIDTH 7 0
BBX 7 11 0 -1
BITMAP
00000210
00799730
0A800010
0B401110
06122110
7815EA00
A8122000
A8110000
AA112210
9F633220
2BFFF910
ENDCHAR
STARTCHAR cacute
ENCODING 263
SWIDTH 728 0
DWIDTH 7 0
BBX 7 11 0 -1
BITMAP
00000210
00799730
0A800010
0B401110
06122110
7815EA00
A8122000
A8110000
AA112210
9F633220
2BFFF910
ENDCHAR
STARTCHAR Ccircumflex
ENCODING 264
SWIDTH 728 0
DWIDTH 7 0
BBX 7 11 0 -1
BITMAP
00012100
02311110
0D789510
0F521110
07122110
7815EA00
A8122000
A8110000
AA112210
8F633220
2BFFF910
ENDCHAR
STARTCHAR ccircumflex
ENCODING 265
SWIDTH 728 0
DWIDTH 7 0
BBX 7 11 0 -1
BITMAP
00012100
02311110
0D789510
0F521110
07122110
7815EA00
A8122000
A8110000
AA112210
8F633220
2BFFF910
ENDCHAR
STARTCHAR Cdotaccent
ENCODING 266
SWIDTH 728 0
DWIDTH 7 0
BBX 7 11 0 -1
BITMAP
00021100
00B31100
01F40000
04521110
49122110
9815EA00
A8122000
A8110000
AA112210
8F633220
1BFFF910
ENDCHAR
STARTCHAR cdotaccent
ENCODING 267
SWIDTH 728 0
DWIDTH 7 0
BBX 7 11 0 -1
BITMAP
00021100
00B31100
01F40000
04521110
49122110
9815EA00
A8122000
A8110000
AA112210
8F633220
1BFFF910
ENDCHAR
STARTCHAR Ccaron
ENCODING 268
SWIDTH 728 0
DWIDTH 7 0
BBX 7 11 0 -1
BITMAP
00600000
0A641210
0F943200
09521110
16122110
8815EA00
A8122000
A8110000
AA112210
8F633220
1BFFF910
ENDCHAR
STARTCHAR ccaron
ENCODING 269
SWIDTH 728 0
DWIDTH 7 0
BBX 7 11 0 -1
BITMAP
00600000
0A641210
0F943200
09521110
16122110
8815EA00
A8122000
A8110000
AA112210
8F633220
1BFFF910
ENDCHAR
STARTCHAR Dcaron
ENCODING 270
SWIDTH 846 0
DWIDTH 8 0
BBX 8 11 0 -1
BITMAP
00510000
07942120
0BC52310
07111120
8A122201
9A139111
9A14F311
9A12F311
9A118111
9B333430
8FFFE800
ENDCHAR
STARTCHAR dcaron
ENCODING 271
SWIDTH 846 0
DWIDTH 8 0
BBX 8 11 0 -1
BITMAP
00510000
07942120
0BC52310
07111120
8A122201
9A139111
9A14F311
9A12F311
9A118111
9B333430
8FFFE800
ENDCHAR
STARTCHAR Dcroat
ENCODING 272
SWIDTH 856 0
DWIDTH 8 0
BBX 8 8 0 -1
BITMAP
07111110
7B122202
8B13D321
A3318411
FA12C311
CB100011
8C233330
7FFFE900
ENDCHAR
STARTCHAR dcroat
ENCODING 273
SWIDTH 856 0
DWIDTH 8 0
BBX 8 8 0 -1
BITMAP
07111110
7B122202
8B13D321
A3318411
FA12C311
CB100011
8C233330
7FFFE900
ENDCHAR
STARTCHAR Emacron
ENCODING 274
SWIDTH 754 0
DWIDTH 7 0
BBX 7 10 0 -1
BITMAP
01111100
0C300000
1B111110
6A122110
9A14BA10
9A211100
9A114300
9A138310
9B333220
8FFFFB10
ENDCHAR
STARTCHAR emacron
ENCODING 275
SWIDTH 754 0
DWIDTH 7 0
BBX 7 10 0 -1
BITMAP
01111100
0C300000
1B111110
6A122110
9A14BA10
9A211100
9A114300
9A138310
9B333220
8FFFFB10
ENDCHAR
STARTCHAR Ebreve
ENCODING 276
SWIDTH 754 0
DWIDTH 7 0
BBX 7 11 0 -1
BITMAP
00323210
0B426110
1F932100
09111110
7A122110
9A14BA10
9A211100
9A114300
9A138310
9B333220
8FFFFB10
ENDCHAR
STARTCHAR ebreve
ENCODING 277
SWIDTH 754 0
DWIDTH 7 0
BBX 7 11 0 -1
BITMAP
00323210
0B426110
1F932100
09111110
7A122110
9A14BA10
9A211100
9A114300
9A138310
9B333220
8FFFFB10
ENDCHAR
STARTCHAR Edotaccent
ENCODING 278
SWIDTH 754 0
DWIDTH 7 0
BBX 7 11 0 -1
BITMAP
00222000
01C10100
05E00100
17111110
8A122110
9A14BA10
9A211100
9A114300
9A138310
9B333220
8FFFFB10
ENDCHAR
STARTCHAR edotaccent
ENCODING 279
SWIDTH 754 0
DWIDTH 7 0
BBX 7 11 0 -1
BITMAP
00222000
01C10100
05E00100
17111110
8A122110
9A14BA10
9A211100
9A114300
9A138310
9B333220
8FFFFB10
ENDCHAR
STARTCHAR Eogonek
ENCODING 280
SWIDTH 754 0
DWIDTH 7 0
BBX 7 11 0 -4
BITMAP
16111110
8A122110
9A14BA10
9A211100
9A114300
9A138310
9B332220
8FFF4330
000E6010
000DFC10
00012100
ENDCHAR
STARTCHAR eogonek
ENCODING 281
SWIDTH 754 0
DWIDTH 7 0
BBX 7 11 0 -4
BITMAP
16111110
8A122110
9A14BA10
9A211100
9A114300
9A138310
9B332220
8FFF4330
000E6010
000DFC10
00012100
ENDCHAR
STARTCHAR Ecaron
ENCODING 282
SWIDTH 754 0
DWIDTH 7 0
BBX 7 11 0 -1
BITMAP
00600000
0B631210
0F943200
09111110
8A122110
9A14BA10
9A211100
9A114300
9A138310
9B333220
8FFFFB10
ENDCHAR
STARTCHAR ecaron
ENCODING 283
SWIDTH 754 0
DWIDTH 7 0
BBX 7 11 0 -1
BITMAP
00600000
0B631210
0F943200
09111110
8A122110
9A14BA10
9A211100
9A114300
9A138310
9B333220
8FFFFB10
ENDCHAR
STARTCHAR Gcircumflex
ENCODING 284
SWIDTH 808 0
DWIDTH 7 0
BBX 7 11 0 -1
BITMAP
00012100
00411120
07C8B720
09200010
05122110
7815EA00
A8124220
A813C110
AA237110
9F633320
2BFFFE40
ENDCHAR
STARTCHAR gcircumflex
ENCODING 285
SWIDTH 808 0
DWIDTH 7 0
BBX 7 11 0 -1
BITMAP
00012100
00411120
07C8B720
09200010
05122110
7815EA00
A8124220
A813C110
AA237110
9F633320
2BFFFE40
ENDCHAR
STARTCHAR Gbreve
ENCODING 286
SWIDTH 808 0
DWIDTH 7 0
BBX 7 11 0 -1
BITMAP
00222210
07727110
0CC42200
08521120
15122110
8815EA10
A8124220
A813C110
AA237110
8F633320
1BFFFE40
ENDCHAR
STARTCHAR gbreve
ENCODING 287
SWIDTH 808 0
DWIDTH 7 0
BBX 7 11 0 -1
BITMAP
00222210
07727110
0CC42200
08521120
15122110
8815EA10
A8124220
A813C110
AA237110
8F633320
1BFFFE40
ENDCHAR
STARTCHAR Gdotaccent
ENCODING 288
SWIDTH 808 0
DWIDTH 7 0
BBX 7 11 0 -1
BITMAP
00021100
00761100
00D60000
00421120
17122110
8815EA10
A8124220
A813C110
AA237110
8F633320
1BFFFE40
ENDCHAR
STARTCHAR gdotaccent
ENCODING 289
SWIDTH 808 0
DWIDTH 7 0
BBX 7 11 0 -1
BITMAP
00021100
00761100
00D60000
00421120
17122110
8815EA10
A8124220
A813C110
AA237110
8F633320
1BFFFE40
ENDCHAR
STARTCHAR Gcommaaccent
ENCODING 290
SWIDTH 808 0
DWIDTH 7 0
BBX 7 11 0 -4
BITMAP
01233220
28100010
9815FA10
A8125220
A923B110
AC121210
8FE869B0
1BF61840
00CA4200
00C83200
00BE5000
ENDCHAR
STARTCHAR gcommaaccent
ENCODING 291
SWIDTH 808 0
DWIDTH 7 0
BBX 7 11 0 -4
BITMAP
01233220
28100010
9815FA10
A8125220
A923B110
AC121210
8FE869B0
1BF61840
00CA4200
00C83200
00BE5000
ENDCHAR
STARTCHAR Hcircumflex
ENCODING 292
SWIDTH 859 0
DWIDTH 8 0
BBX 8 11 0 -1
BITMAP
00022100
01612120
09A7A620
1814E411
8A12F311
9A118211
9A211121
9A14F311
9A12F311
9B12F521
8FC1FF70
ENDCHAR
STARTCHAR hcircumflex
ENCODING 293
SWIDTH 859 0
DWIDTH 8 0
BBX 8 11 0 -1
BITMAP
00022100
01612120
09A7A620
1814E411
8A12F311
9A118211
9A211121
9A14F311
9A12F311
9B12F521
8FC1FF70
ENDCHAR
STARTCHAR Hbar
ENCODING 294
SWIDTH 879 0
DWIDTH 8 0
BBX 8 8 0 -1
BITMAP
06122412
69116312
A5322231
EB13B312
8B211121
8B13F511
8C20E612
7FC1DF90
ENDCHAR
STARTCHAR hbar
ENCODING 295
SWIDTH 879 0
DWIDTH 8 0
BBX 8 8 0 -1
BITMAP
06122412
69116312
A5322231
EB13B312
8B211121
8B13F511
8C20E612
7FC1DF90
ENDCHAR
STARTCHAR Itilde
ENCODING 296
SWIDTH 705 0
DWIDTH 6 0
BBX 7 10 0 -1
BITMAP
03133100
3D231100
69111110
88122010
BD712500
5CB12000
08B11000
06611200
89233210
BFFFE600
ENDCHAR
STARTCHAR itilde
ENCODING 297
SWIDTH 705 0
DWIDTH 6 0
BBX 7 10 0 -1
BITMAP
03133100
3D231100
69111110
88122010
BD712500
5CB12000
08B11000
06611200
89233210
BFFFE600
ENDCHAR
STARTCHAR Imacron
ENCODING 298
SWIDTH 705 0
DWIDTH 6 0
BBX 7 10 0 -1
BITMAP
02011000
3C000000
6B666610
88122010
BD712500
5CB12000
08B11000
06611200
89233210
BFFFE600
ENDCHAR
STARTCHAR imacron
ENCODING 299
SWIDTH 705 0
DWIDTH 6 0
BBX 7 10 0 -1
BITMAP
02011000
3C000000
6B666610
88122010
BD712500
5CB12000
08B11000
06611200
89233210
BFFFE600
ENDCHAR
STARTCHAR Ibreve
ENCODING 300
SWIDTH 705 0
DWIDTH 6 0
BBX 7 11 0 -1
BITMAP
02223200
3B163100
7F523000
39111110
98122010
BD712500
5CB12000
08B11000
06611200
89233210
BFFFE600
ENDCHAR
STARTCHAR ibreve
ENCODING 301
SWIDTH 705 0
DWIDTH 6 0
BBX 7 11 0 -1
BITMAP
02223200
3B163100
7F523000
39111110
98122010
BD712500
5CB12000
08B11000
06611200
89233210
BFFFE600
ENDCHAR
STARTCHAR Iogonek
ENCODING 302
SWIDTH 705 0
DWIDTH 6 0
BBX 7 11 0 -4
BITMAP
15111110
A8122010
BD712500
5CB12000
08B11000
06611200
89232110
BFFC2500
007D1010
006FF600
00022000
ENDCHAR
STARTCHAR iogonek
ENCODING 303
SWIDTH 705 0
DWIDTH 6 0
BBX 7 11 0 -4
BITMAP
15111110
A8122010
BD712500
5CB12000
08B11000
06611200
89232110
BFFC2500
007D1010
006FF600
00022000
ENDCHAR
STARTCHAR Idotaccent
ENCODING 304
SWIDTH 705 0
DWIDTH 6 0
BBX 7 11 0 -1
BITMAP
00212000
03A11000
08B00000
16111110
A8122010
BD712500
5CB12000
08B11000
06611200
89233210
BFFFE600
ENDCHAR
STARTCHAR dotlessi
ENCODING 305
SWIDTH 705 0
DWIDTH 6 0
BBX 7 8 0 -1
BITMAP
16111110
A8122010
BD712500
5CB12000
08B11000
06611200
89233210
BFFFE600
ENDCHAR
STARTCHAR IJ
ENCODING 306
SWIDTH 844 0
DWIDTH 8 0
BBX 8 8 0 -1
BITMAP
16125311
8A14F211
9A14F211
9A04F211
9D88F111
29213011
8B233420
8FFFE700
ENDCHAR
STARTCHAR ij
ENCODING 307
SWIDTH 844 0
DWIDTH 8 0
BBX 8 8 0 -1
BITMAP
16125311
8A14F211
9A14F211
9A04F211
9D88F111
29213011
8B233420
8FFFE700
ENDCHAR
STARTCHAR Jcircumflex
ENCODING 308
SWIDTH 788 0
DWIDTH 7 0
BBX 8 11 0 -1
BITMAP
00001210
00161112
008C9B93
006A9020
00099110
000A9110
032A9110
A6187110
D7122110
BD522410
3CFEB200
ENDCHAR
STARTCHAR jcircumflex
ENCODING 309
SWIDTH 788 0
DWIDTH 7 0
BBX 8 11 0 -1
BITMAP
00001210
00161112
008C9B93
006A9020
00099110
000A9110
032A9110
A6187110
D7122110
BD522410
3CFEB200
ENDCHAR
STARTCHAR Kcommaaccent
ENCODING 310
SWIDTH 846 0
DWIDTH 8 0
BBX 8 11 0 -4
BITMAP
17125221
8A148110
9A132120
9A212201
9A139121
9A14F311
9B13F411
8FD5AC70
00CA4100
00C83100
00BE5000
ENDCHAR
STARTCHAR kcommaaccent
ENCODING 311
SWIDTH 846 0
DWIDTH 8 0
BBX 8 11 0 -4
BITMAP
17125221
8A148110
9A132120
9A212201
9A139121
9A14F311
9B13F411
8FD5AC70
00CA4100
00C83100
00BE5000
ENDCHAR
STARTCHAR kgreenlandic
ENCODING 312
SWIDTH 846 0
DWIDTH 8 0
BBX 8 8 0 -1
BITMAP
17124121
8A148110
9A132120
9A212201
9A139111
9A14F311
9B13F421
8FD3FF70
ENDCHAR
STARTCHAR Lacute
ENCODING 313
SWIDTH 795 0
DWIDTH 7 0
BBX 7 11 0 -1
BITMAP
00001100
06897400
7A001100
89233000
8A110000
9A110000
9A112220
9A13C110
9A128110
9B333320
8FFFFE40
ENDCHAR
STARTCHAR lacute
ENCODING 314
SWIDTH 795 0
DWIDTH 7 0
BBX 7 11 0 -1
BITMAP
00001100
06897400
7A001100
89233000
8A110000
9A110000
9A112220
9A13C110
9A128110
9B333320
8FFFFE40
ENDCHAR
STARTCHAR Lcommaaccent
ENCODING 315
SWIDTH 795 0
DWIDTH 7 0
BBX 7 11 0 -4
BITMAP
17120000
8A110000
9A110000
9A113220
9A13C110
9A111210
9EB769B0
8FF41840
00E93100
00D63200
00DD4000
ENDCHAR
STARTCHAR lcommaaccent
ENCODING 316
SWIDTH 795 0
DWIDTH 7 0
BBX 7 11 0 -4
BITMAP
17120000
8A110000
9A110000
9A113220
9A13C110
9A111210
9EB769B0
8FF41840
00E93100
00D63200
00DD4000
ENDCHAR
STARTCHAR Lcaron
ENCODING 317
SWIDTH 795 0
DWIDTH 7 0
BBX 7 8 0 -1
BITMAP
17125120
8A14C110
9A14B110
9A14F820
9A13D110
9A128110
9B333320
8FFFFE40
ENDCHAR
STARTCHAR lcaron
ENCODING 318
SWIDTH 795 0
DWIDTH 7 0
BBX 7 8 0 -1
BITMAP
17125120
8A14C110
9A14B110
9A14F820
9A13D110
9A128110
9B333320
8FFFFE40
ENDCHAR
STARTCHAR Ldot
ENCODING 319
SWIDTH 795 0
DWIDTH 7 0
BBX 7 8 0 -1
BITMAP
17120000
8A112120
9A13C220
9A14F850
9A13D010
9A113110
9B333320
8FFFFE30
ENDCHAR
STARTCHAR ldot
ENCODING 320
SWIDTH 795 0
DWIDTH 7 0
BBX 7 8 0 -1
BITMAP
17120000
8A112120
9A13C220
9A14F850
9A13D010
9A113110
9B333320
8FFFFE30
ENDCHAR
STARTCHAR Lslash
ENCODING 321
SWIDTH 805 0
DWIDTH 7 0
BBX 8 8 0 -1
BITMAP
06120000
6B110000
8A112000
A3212220
F713E111
DB128111
8C233321
7FFFFE50
ENDCHAR
STARTCHAR lslash
ENCODING 322
SWIDTH 805 0
DWIDTH 7 0
BBX 8 8 0 -1
BITMAP
06120000
6B110000
8A112000
A3212220
F713E111
DB128111
8C233321
7FFFFE50
ENDCHAR
STARTCHAR Nacute
ENCODING 323
SWIDTH 853 0
DWIDTH 8 0
BBX 8 11 0 -1
BITMAP
00000210
00799740
08900010
1804C411
8A219311
9A111111
9A121111
9A157221
9A15F211
9B14F421
8FC2FF70
ENDCHAR
STARTCHAR nacute
ENCODING 324
SWIDTH 853 0
DWIDTH 8 0
BBX 8 11 0 -1
BITMAP
00000210
00799740
08900010
1804C411
8A219311
9A111111
9A121111
9A157221
9A15F211
9B14F421
8FC2FF70
ENDCHAR
STARTCHAR Ncommaaccent
ENCODING 325
SWIDTH 853 0
DWIDTH 8 0
BBX 8 11 0 -4
BITMAP
17125311
8A229311
9A111111
9A121111
9A158221
9A15F211
9B14F411
8FD5AC70
00BA4100
00C83100
00BE5000
ENDCHAR
STARTCHAR ncommaaccent
ENCODING 326
SWIDTH 853 0
DWIDTH 8 0
BBX 8 11 0 -4
BITMAP
17125311
8A229311
9A111111
9A121111
9A158221
9A15F211
9B14F411
8FD5AC70
00BA4100
00C83100
00BE5000
ENDCHAR
STARTCHAR Ncaron
ENCODING 327
SWIDTH 853 0
DWIDTH 8 0
BBX 8 11 0 -1
BITMAP
00410000
08842120
0CB52410
1817C511
8A219311
9A111111
9A121111
9A157221
9A15F211
9B14F421
8FC2FF70
ENDCHAR
STARTCHAR ncaron
ENCODING 328
SWIDTH 853 0
DWIDTH 8 0
BBX 8 11 0 -1
BITMAP
00410000
08842120
0CB52410
1817C511
8A219311
9A111111
9A121111
9A157221
9A15F211
9B14F421
8FC2FF70
ENDCHAR
STARTCHAR napostrophe
ENCODING 329
SWIDTH 853 0
DWIDTH 8 0
BBX 8 12 0 -1
BITMAP
02110000
58220000
BC320000
9A200000
8C444642
8A22A311
9A112111
9A121111
9A157221
9A15F211
9B14F421
8FC2FF70
ENDCHAR
STARTCHAR Eng
ENCODING 330
SWIDTH 846 0
DWIDTH 8 0
BBX 8 9 0 -2
BITMAP
01233320
28101011
8915F111
A914F211
A914F211
A914F121
AA164111
9FCF7530
000CB500
ENDCHAR
STARTCHAR eng
ENCODING 331
SWIDTH 846 0
DWIDTH 8 0
BBX 8 9 0 -2
BITMAP
01233320
28101011
8915F111
A914F211
A914F211
A914F121
AA164111
9FCF7530
000CB500
ENDCHAR
STARTCHAR Omacron
ENCODING 332
SWIDTH 837 0
DWIDTH 8 0
BBX 8 10 0 -1
BITMAP
00211100
0A700010
0B965730
6A115111
A816F211
A814F211
A813F111
AA200111
8F743540
1AEFD600
ENDCHAR
STARTCHAR omacron
ENCODING 333
SWIDTH 837 0
DWIDTH 8 0
BBX 8 10 0 -1
BITMAP
00211100
0A700010
0B965730
6A115111
A816F211
A814F211
A813F111
AA200111
8F743540
1AEFD600
ENDCHAR
STARTCHAR Obreve
ENCODING 334
SWIDTH 837 0
DWIDTH 8 0
BBX 8 11 0 -1
BITMAP
00322210
09627110
0CB42410
07854420
5A115111
A816F211
A814F211
A813F111
AA200111
8F743530
1AEFD600
ENDCHAR
STARTCHAR obreve
ENCODING 335
SWIDTH 837 0
DWIDTH 8 0
BBX 8 11 0 -1
BITMAP
00322210
09627110
0CB42410
07854420
5A115111
A816F211
A814F211
A813F111
AA200111
8F743530
1AEFD600
ENDCHAR
STARTCHAR Ohungarumlaut
ENCODING 336
SWIDTH 837 0
DWIDTH 8 0
BBX 8 12 0 -1
BITMAP
00211210
02A09210
0881C110
0C61B010
0B965730
6A115111
A816F211
A814F211
A813F111
AA200111
8F743540
1AEFD600
ENDCHAR
STARTCHAR ohungarumlaut
ENCODING 337
SWIDTH 837 0
DWIDTH 8 0
BBX 8 12 0 -1
BITMAP
00211210
02A09210
0881C110
0C61B010
0B965730
6A115111
A816F211
A814F211
A813F111
AA200111
8F743540
1AEFD600
ENDCHAR
STARTCHAR OE
ENCODING 338
SWIDTH 1115 0
DWIDTH 10 0
BBX 10 8 0 -1
BITMAP
0111111112
2812222211
9823A01AB3
A816F02101
A816F01431
AA13801842
8F63333332
2BFFFFFFD3
ENDCHAR
STARTCHAR oe
ENCODING 339
SWIDTH 1115 0
DWIDTH 10 0
BBX 10 8 0 -1
BITMAP
0111111112
2812222211
9823A01AB3
A816F02101
A816F01431
AA13801842
8F63333332
2BFFFFFFD3
ENDCHAR
STARTCHAR Racute
ENCODING 340
SWIDTH 843 0
DWIDTH 8 0
BBX 8 11 0 -1
BITMAP
00001300
019A9620
0C600110
08220120
7A122110
9A15B220
9A223210
9A100011
9A15F411
9B23F622
8FD3EF90
ENDCHAR
STARTCHAR racute
ENCODING 341
SWIDTH 843 0
DWIDTH 8 0
BBX 8 11 0 -1
BITMAP
00001300
019A9620
0C600110
08220120
7A122110
9A15B220
9A223210
9A100011
9A15F411
9B23F622
8FD3EF90
ENDCHAR
STARTCHAR Rcommaaccent
ENCODING 342
SWIDTH 843 0
DWIDTH 8 0
BBX 8 11 0 -4
BITMAP
17233210
8A100110
9A15B210
9A223220
9A15F421
9A12F411
9B10E612
8FC49C90
00BA4100
00B93200
00AE6000
ENDCHAR
STARTCHAR rcommaaccent
ENCODING 343
SWIDTH 843 0
DWIDTH 8 0
BBX 8 11 0 -4
BITMAP
17233210
8A100110
9A15B210
9A223220
9A15F421
9A12F411
9B10E612
8FC49C90
00BA4100
00B93200
00AE6000
ENDCHAR
STARTCHAR Rcaron
ENCODING 344
SWIDTH 843 0
DWIDTH 8 0
BBX 8 11 0 -1
BITMAP
00510000
06842120
0BB52520
09999610
59122120
9A15B210
9A223210
9A100011
9A15F411
9B23F622
8FD3EF90
ENDCHAR
STARTCHAR rcaron
ENCODING 345
SWIDTH 843 0
DWIDTH 8 0
BBX 8 11 0 -1
BITMAP
00510000
06842120
0BB52520
09999610
59122120
9A15B210
9A223210
9A100011
9A15F411
9B23F622
8FD3EF90
ENDCHAR
STARTCHAR Sacute
ENCODING 346
SWIDTH 750 0
DWIDTH 7 0
BBX 7 11 0 -1
BITMAP
00001200
02899700
1E200100
1E201110
17122120
9814A900
BA110010
AFC84110
29331210
A9233410
BFFFC200
ENDCHAR
STARTCHAR sacute
ENCODING 347
SWIDTH 750 0
DWIDTH 7 0
BBX 7 11 0 -1
BITMAP
00001200
02899700
1E200100
1E201110
17122120
9814A900
BA110010
AFC84110
29331210
A9233410
BFFFC200
ENDCHAR
STARTCHAR Scircumflex
ENCODING 348
SWIDTH 750 0
DWIDTH 7 0
BBX 7 11 0 -1
BITMAP
00012100
03211200
1E698500
3E411110
27122120
9814A900
BA110010
AFC84110
29331210
A9233410
BFFFC200
ENDCHAR
STARTCHAR scircumflex
ENCODING 349
SWIDTH 750 0
DWIDTH 7 0
BBX 7 11 0 -1
BITMAP
00012100
03211200
1E698500
3E411110
27122120
9814A900
BA110010
AFC84110
29331210
A9233410
BFFFC200
ENDCHAR
STARTCHAR Scedilla
ENCODING 350
SWIDTH 750 0
DWIDTH 7 0
BBX 7 10 0 -3
BITMAP
02111110
37122110
A814A900
BA110010
AFB84110
28331110
A9313410
BFC14200
07FC1000
01200000
ENDCHAR
STARTCHAR scedilla
ENCODING 351
SWIDTH 750 0
DWIDTH 7 0
BBX 7 10 0 -3
BITMAP
02111110
37122110
A814A900
BA110010
AFB84110
28331110
A9313410
BFC14200
07FC1000
01200000
ENDCHAR
STARTCHAR Scaron
ENCODING 352
SWIDTH 750 0
DWIDTH 7 0
BBX 7 11 0 -1
BITMAP
01500000
0B531200
1F843200
0A411110
26122120
A814A900
BA110010
AFC84110
29331210
A9233410
BFFFC200
ENDCHAR
STARTCHAR scaron
ENCODING 353
SWIDTH 750 0
DWIDTH 7 0
BBX 7 11 0 -1
BITMAP
01500000
0B531200
1F843200
0A411110
26122120
A814A900
BA110010
AFC84110
29331210
A9233410
BFFFC200
ENDCHAR
STARTCHAR Tcommaaccent
ENCODING 354
SWIDTH 756 0
DWIDTH 7 0
BBX 7 11 0 -4
BITMAP
34333320
E4010010
EFE10D30
26E10200
05E10100
05E10100
05F65100
04E11100
04F62100
03F22000
02FB1000
ENDCHAR
STARTCHAR tcommaaccent
ENCODING 355
SWIDTH 756 0
DWIDTH 7 0
BBX 7 11 0 -4
BITMAP
34333320
E4010010
EFE10D30
26E10200
05E10100
05E10100
05F65100
04E11100
04F62100
03F22000
02FB1000
ENDCHAR
STARTCHAR Tcaron
ENCODING 356
SWIDTH 756 0
DWIDTH 7 0
BBX 7 11 0 -1
BITMAP
01500000
1C431200
2F834200
35111120
D4122110
EFE10D30
26E10200
05E10100
05E10100
05E22100
04FE5000
ENDCHAR
STARTCHAR tcaron
ENCODING 357
SWIDTH 756 0
DWIDTH 7 0
BBX 7 11 0 -1
BITMAP
01500000
1C431200
2F834200
35111120
D4122110
EFE10D30
26E10200
05E10100
05E10100
05E22100
04FE5000
ENDCHAR
STARTCHAR Tbar
ENCODING 358
SWIDTH 756 0
DWIDTH 7 0
BBX 7 8 0 -1
BITMAP
24111120
D4122110
FDB10B30
6C722400
4F710710
3DE10300
05E21100
04FE4000
ENDCHAR
STARTCHAR tbar
ENCODING 359
SWIDTH 756 0
DWIDTH 7 0
BBX 7 8 0 -1
BITMAP
24111120
D4122110
FDB10B30
6C722400
4F710710
3DE10300
05E21100
04FE4000
ENDCHAR
STARTCHAR Utilde
ENCODING 360
SWIDTH 846 0
DWIDTH 8 0
BBX 8 11 0 -1
BITMAP
00111110
03712110
0B842100
1815F411
9913F211
A913F211
A913F211
A9229111
AB022201
7F732330
1AEFD600
ENDCHAR
STARTCHAR utilde
ENCODING 361
SWIDTH 846 0
DWIDTH 8 0
BBX 8 11 0 -1
BITMAP
00111110
03712110
0B842100
1815F411
9913F211
A913F211
A913F211
A9229111
AB022201
7F732330
1AEFD600
ENDCHAR
STARTCHAR Umacron
ENCODING 362
SWIDTH 846 0
DWIDTH 8 0
BBX 8 10 0 -1
BITMAP
00211110
08800010
0969F762
8913F211
A913F211
A913F211
A912A111
AA022201
8F732330
1AEFD600
ENDCHAR
STARTCHAR umacron
ENCODING 363
SWIDTH 846 0
DWIDTH 8 0
BBX 8 10 0 -1
BITMAP
00211110
08800010
0969F762
8913F211
A913F211
A913F211
A912A111
AA022201
8F732330
1AEFD600
ENDCHAR
STARTCHAR Ubreve
ENCODING 364
SWIDTH 846 0
DWIDTH 8 0
BBX 8 11 0 -1
BITMAP
00322210
08727210
0CC32200
1716F411
9912E211
A913F211
A913F211
A912A111
AB022201
7F732330
1AEFD600
ENDCHAR
STARTCHAR ubreve
ENCODING 365
SWIDTH 846 0
DWIDTH 8 0
BBX 8 11 0 -1
BITMAP
00322210
08727210
0CC32200
1716F411
9912E211
A913F211
A913F211
A912A111
AB022201
7F732330
1AEFD600
ENDCHAR
STARTCHAR Uring
ENCODING 366
SWIDTH 846 0
DWIDTH 8 0
BBX 8 12 0 -1
BITMAP
00011100
0363C110
0B721110
0CB32200
1716E411
9912F211
A913F211
A913F211
A913F211
AB037201
7F732330
1AEFD600
ENDCHAR
STARTCHAR uring
ENCODING 367
SWIDTH 846 0
DWIDTH 8 0
BBX 8 12 0 -1
BITMAP
00011100
0363C110
0B721110
0CB32200
1716E411
9912F211
A913F211
A913F211
A913F211
AB037201
7F732330
1AEFD600
ENDCHAR
STARTCHAR Uhungarumlaut
ENCODING 368
SWIDTH 846 0
DWIDTH 8 0
BBX 8 12 0 -1
BITMAP
00111220
01A08310
06A1B110
0980C000
0969F762
8912E211
A913F211
A913F211
A912A111
AA022201
8F732330
1AEFD600
ENDCHAR
STARTCHAR uhungarumlaut
ENCODING 369
SWIDTH 846 0
DWIDTH 8 0
BBX 8 12 0 -1
BITMAP
00111220
01A08310
06A1B110
0980C000
0969F762
8912E211
A913F211
A913F211
A912A111
AA022201
8F732330
1AEFD600
ENDCHAR
STARTCHAR Uogonek
ENCODING 370
SWIDTH 846 0
DWIDTH 8 0
BBX 8 11 0 -4
BITMAP
16124311
9912F211
A913F211
A913F211
A913F211
AA218112
8E322340
1BF72710
00B90100
00AFE300
00021000
ENDCHAR
STARTCHAR uogonek
ENCODING 371
SWIDTH 846 0
DWIDTH 8 0
BBX 8 11 0 -4
BITMAP
16124311
9912F211
A913F211
A913F211
A913F211
AA218112
8E322340
1BF72710
00B90100
00AFE300
00021000
ENDCHAR
STARTCHAR Wcircumflex
ENCODING 372
SWIDTH 931 0
DWIDTH 8 0
BBX 9 11 0 -1
BITMAP
0001220000
0061112000
05E5984000
2715BF1210
A9113F1110
A9124C1110
A912131110
A910111100
AC11721100
6F43C63100
1EF6DF8000
ENDCHAR
STARTCHAR wcircumflex
ENCODING 373
SWIDTH 931 0
DWIDTH 8 0
BBX 9 11 0 -1
BITMAP
0001220000
0061112000
05E5984000
2715BF1210
A9113F1110
A9124C1110
A912131110
A910111100
AC11721100
6F43C63100
1EF6DF8000
ENDCHAR
STARTCHAR Ycircumflex
ENCODING 374
SWIDTH 805 0
DWIDTH 7 0
BBX 8 11 0 -1
BITMAP
00012100
02411110
0DABC820
2716E221
C715F111
C713B111
CC110220
7F812110
0BF21200
02F41200
01FF8000
ENDCHAR
STARTCHAR ycircumflex
ENCODING 375
SWIDTH 805 0
DWIDTH 7 0
BBX 8 11 0 -1
BITMAP
00012100
02411110
0DABC820
2716E221
C715F111
C713B111
CC110220
7F812110
0BF21200
02F41200
01FF8000
ENDCHAR
STARTCHAR Ydieresis
ENCODING 376
SWIDTH 805 0
DWIDTH 7 0
BBX 8 11 0 -1
BITMAP
01223110
1C116110
2F217000
5A6BF661
C715F111
C715D111
CB113110
6F712100
0BF21100
02F41200
01FF8000
ENDCHAR
STARTCHAR Zacute
ENCODING 377
SWIDTH 760 0
DWIDTH 7 0
BBX 7 11 0 -1
BITMAP
00001200
02899610
0E300100
1A101110
99122110
9FF71120
13802200
06121100
67102210
C8333220
BFFFFC20
ENDCHAR
STARTCHAR zacute
ENCODING 378
SWIDTH 760 0
DWIDTH 7 0
BBX 7 11 0 -1
BITMAP
00001200
02899610
0E300100
1A101110
99122110
9FF71120
13802200
06121100
67102210
C8333220
BFFFFC20
ENDCHAR
STARTCHAR Zdotaccent
ENCODING 379
SWIDTH 760 0
DWIDTH 7 0
BBX 7 11 0 -1
BITMAP
00121000
01C00100
04F00100
16111110
99122110
9FF71120
13802200
06121100
67102210
C8333220
BFFFFC20
ENDCHAR
STARTCHAR zdotaccent
ENCODING 380
SWIDTH 760 0
DWIDTH 7 0
BBX 7 11 0 -1
BITMAP
00121000
01C00100
04F00100
16111110
99122110
9FF71120
13802200
06121100
67102210
C8333220
BFFFFC20
ENDCHAR
STARTCHAR Zcaron
ENCODING 381
SWIDTH 760 0
DWIDTH 7 0
BBX 7 11 0 -1
BITMAP
01500000
1C431200
2F833200
19111110
89122110
9FF71120
13802200
06121100
67102210
C8333220
BFFFFC20
ENDCHAR
STARTCHAR zcaron
ENCODING 382
SWIDTH 760 0
DWIDTH 7 0
BBX 7 11 0 -1
BITMAP
01500000
1C431200
2F833200
19111110
89122110
9FF71120
13802200
06121100
67102210
C8333220
BFFFFC20
ENDCHAR
STARTCHAR Schwa
ENCODING 399
SWIDTH 815 0
DWIDTH 7 0
BBX 8 8 0 -1
BITMAP
04433320
0F300211
1FDCC111
47111211
B814C101
B9111111
AE622420
3BFFC500
ENDCHAR
STARTCHAR florin
ENCODING 402
SWIDTH 674 0
DWIDTH 6 0
BBX 6 8 0 -1
BITMAP
001112
028133
055133
661211
CD6156
870120
B83410
CFB200
ENDCHAR
STARTCHAR Ohorn
ENCODING 416
SWIDTH 847 0
DWIDTH 8 0
BBX 8 9 0 -1
BITMAP
00000221
01112412
28115121
9816F211
A814F211
A813F111
AA200011
9F743520
2BEFD500
ENDCHAR
STARTCHAR ohorn
ENCODING 417
SWIDTH 847 0
DWIDTH 8 0
BBX 8 9 0 -1
BITMAP
00000221
01112412
28115121
9816F211
A814F211
A813F111
AA200011
9F743520
2BEFD500
ENDCHAR
STARTCHAR Uhorn
ENCODING 431
SWIDTH 856 0
DWIDTH 8 0
BBX 8 9 0 -1
BITMAP
00000122
16125232
9913F212
A913F211
A913F211
A9229111
AB022201
8F732330
1AEFD600
ENDCHAR
STARTCHAR uhorn
ENCODING 432
SWIDTH 856 0
DWIDTH 8 0
BBX 8 9 0 -1
BITMAP
00000122
16125232
9913F212
A913F211
A913F211
A9229111
AB022201
8F732330
1AEFD600
ENDCHAR
STARTCHAR Acaron
ENCODING 461
SWIDTH 830 0
DWIDTH 7 0
BBX 8 11 0 -1
BITMAP
00510000
07841120
0CB52300
07A11110
05422110
0B13A210
49238111
98211121
B817F111
B914F311
AFA2FF60
ENDCHAR
STARTCHAR acaron
ENCODING 462
SWIDTH 830 0
DWIDTH 7 0
BBX 8 11 0 -1
BITMAP
00510000
07841120
0CB52300
07A11110
05422110
0B13A210
49238111
98211121
B817F111
B914F311
AFA2FF60
ENDCHAR
STARTCHAR Icaron
ENCODING 463
SWIDTH 705 0
DWIDTH 6 0
BBX 7 11 0 -1
BITMAP
02400000
2C322200
6E634100
39111110
98122010
BD712500
5CB12000
08B11000
06611200
89233210
BFFFE600
ENDCHAR
STARTCHAR icaron
ENCODING 464
SWIDTH 705 0
DWIDTH 6 0
BBX 7 11 0 -1
BITMAP
02400000
2C322200
6E634100
39111110
98122010
BD712500
5CB12000
08B11000
06611200
89233210
BFFFE600
ENDCHAR
STARTCHAR Ocaron
ENCODING 465
SWIDTH 837 0
DWIDTH 8 0
BBX 8 11 0 -1
BITMAP
00510000
09732010
0CB41310
06622220
59115111
A816F211
A814F211
A813F111
AA200111
8F743530
1AEFD600
ENDCHAR
STARTCHAR ocaron
ENCODING 466
SWIDTH 837 0
DWIDTH 8 0
BBX 8 11 0 -1
BITMAP
00510000
09732010
0CB41310
06622220
59115111
A816F211
A814F211
A813F111
AA200111
8F743530
1AEFD600
ENDCHAR
STARTCHAR Ucaron
ENCODING 467
SWIDTH 846 0
DWIDTH 8 0
BBX 8 11 0 -1
BITMAP
00410000
07832010
0BC41310
1815C411
9913F211
A913F211
A913F211
A9229111
AB022201
7F732330
1AEFD600
ENDCHAR
STARTCHAR ucaron
ENCODING 468
SWIDTH 846 0
DWIDTH 8 0
BBX 8 11 0 -1
BITMAP
00410000
07832010
0BC41310
1815C411
9913F211
A913F211
A913F211
A9229111
AB022201
7F732330
1AEFD600
ENDCHAR
STARTCHAR Udieresismacron
ENCODING 469
SWIDTH 846 0
DWIDTH 8 0
BBX 8 13 0 -1
BITMAP
00211110
07712110
0C958420
0C417110
0F508000
3C69F762
A913F211
A913F211
A913F211
A912A111
9A022201
7F732330
19EFD600
ENDCHAR
STARTCHAR udieresismacron
ENCODING 470
SWIDTH 846 0
DWIDTH 8 0
BBX 8 13 0 -1
BITMAP
00211110
07712110
0C958420
0C417110
0F508000
3C69F762
A913F211
A913F211
A913F211
A912A111
9A022201
7F732330
19EFD600
ENDCHAR
STARTCHAR Udieresisacute
ENCODING 471
SWIDTH 846 0
DWIDTH 8 0
BBX 8 13 0 -1
BITMAP
00028600
004D9400
00643510
0A406110
0F508000
4C69F762
A913F211
A913F211
A913F211
A912A111
9A022201
7F732330
19EFD600
ENDCHAR
STARTCHAR udieresisacute
ENCODING 472
SWIDTH 846 0
DWIDTH 8 0
BBX 8 13 0 -1
BITMAP
00028600
004D9400
00643510
0A406110
0F508000
4C69F762
A913F211
A913F211
A913F211
A912A111
9A022201
7F732330
19EFD600
ENDCHAR
STARTCHAR Udieresiscaron
ENCODING 473
SWIDTH 846 0
DWIDTH 8 0
BBX 8 13 0 -1
BITMAP
01511120
0BA22210
0AB79510
0A417110
0F508000
3C69F762
A913F211
A913F211
A913F211
A912A111
9A022201
7F732330
19EFD600
ENDCHAR
STARTCHAR udieresiscaron
ENCODING 474
SWIDTH 846 0
DWIDTH 8 0
BBX 8 13 0 -1
BITMAP
01511120
0BA22210
0AB79510
0A417110
0F508000
3C69F762
A913F211
A913F211
A913F211
A912A111
9A022201
7F732330
19EFD600
ENDCHAR
STARTCHAR Udieresisgrave
ENCODING 475
SWIDTH 846 0
DWIDTH 8 0
BBX 8 13 0 -1
BITMAP
00197100
00C99400
00A03110
0A416010
0F508000
4C69F762
A913F211
A913F211
A913F211
A912A111
9A022201
7F732330
19EFD600
ENDCHAR
STARTCHAR udieresisgrave
ENCODING 476
SWIDTH 846 0
DWIDTH 8 0
BBX 8 13 0 -1
BITMAP
00197100
00C99400
00A03110
0A416010
0F508000
4C69F762
A913F211
A913F211
A913F211
A912A111
9A022201
7F732330
19EFD600
ENDCHAR
STARTCHAR Gcaron
ENCODING 486
SWIDTH 808 0
DWIDTH 7 0
BBX 7 11 0 -1
BITMAP
00510000
09741120
0EA43300
08521120
16122110
8815EA10
A8124220
A813C110
AA237110
8F633320
1BFFFE40
ENDCHAR
STARTCHAR gcaron
ENCODING 487
SWIDTH 808 0
DWIDTH 7 0
BBX 7 11 0 -1
BITMAP
00510000
09741120
0EA43300
08521120
16122110
8815EA10
A8124220
A813C110
AA237110
8F633320
1BFFFE40
ENDCHAR
STARTCHAR Scommaaccent
ENCODING 536
SWIDTH 750 0
DWIDTH 7 0
BBX 7 11 0 -4
BITMAP
02233210
48113320
B8137500
BB001110
7FEA4210
37112130
BDB66910
BFF11100
03F72100
03F33000
02FB1000
ENDCHAR
STARTCHAR scommaaccent
ENCODING 537
SWIDTH 750 0
DWIDTH 7 0
BBX 7 11 0 -4
BITMAP
02233210
48113320
B8137500
BB001110
7FEA4210
37112130
BDB66910
BFF11100
03F72100
03F33000
02FB1000
ENDCHAR
STARTCHAR uni021A
ENCODING 538
SWIDTH 756 0
DWIDTH 7 0
BBX 7 11 0 -4
BITMAP
34333320
E4010010
EFE10D30
26E10200
05E10100
05E10100
05F65100
04E11100
04F62100
03F22000
02FB1000
ENDCHAR
STARTCHAR uni021B
ENCODING 539
SWIDTH 756 0
DWIDTH 7 0
BBX 7 11 0 -4
BITMAP
34333320
E4010010
EFE10D30
26E10200
05E10100
05E10100
05F65100
04E11100
04F62100
03F22000
02FB1000
ENDCHAR
STARTCHAR dotlessj
ENCODING 567
SWIDTH 788 0
DWIDTH 7 0
BBX 7 8 0 -1
BITMAP
00016120
00099110
000A9110
032A9110
A6187110
D7122110
BD522410
3CFEB200
ENDCHAR
STARTCHAR ascript
ENCODING 593
SWIDTH 846 0
DWIDTH 8 0
BBX 8 8 0 -1
BITMAP
01233320
28114111
9816F111
A814F111
A814F111
AA100011
9F633321
2CFFFF60
ENDCHAR
STARTCHAR schwa
ENCODING 601
SWIDTH 815 0
DWIDTH 7 0
BBX 8 8 0 -1
BITMAP
04433320
0F300211
1FDCC111
47111211
B814C101
B9111111
AE622420
3BFFC500
ENDCHAR
STARTCHAR gscript
ENCODING 609
SWIDTH 815 0
DWIDTH 7 0
BBX 8 9 0 -2
BITMAP
01211220
27122211
A717F111
B8114011
BD311211
4EECA111
0A311230
0FFFE900
02221000
ENDCHAR
STARTCHAR commaturnedmod
ENCODING 699
SWIDTH 600 0
DWIDTH 5 0
BBX 4 5 1 2
BITMAP
1431
B541
F512
FFB1
2200
ENDCHAR
STARTCHAR apostrophemod
ENCODING 700
SWIDTH 600 0
DWIDTH 5 0
BBX 4 4 1 3
BITMAP
1331
D931
E632
DD40
ENDCHAR
STARTCHAR ringhalfright
ENCODING 702
SWIDTH 412 0
DWIDTH 4 0
BBX 4 5 0 2
BITMAP
4521
EE41
8522
EFA0
2200
ENDCHAR
STARTCHAR ringhalfleft
ENCODING 703
SWIDTH 412 0
DWIDTH 4 0
BBX 4 5 0 2
BITMAP
1432
C532
E731
DFE5
1210
ENDCHAR
STARTCHAR circumflex
ENCODING 710
SWIDTH 600 0
DWIDTH 5 0
BBX 6 4 0 6
BITMAP
002210
151111
B86851
CBAE80
ENDCHAR
STARTCHAR caron
ENCODING 711
SWIDTH 600 0
DWIDTH 5 0
BBX 6 3 0 6
BITMAP
461111
DB4241
6CD910
ENDCHAR
STARTCHAR verticallinemod
ENCODING 712
SWIDTH 456 0
DWIDTH 4 0
BBX 4 6 0 1
BITMAP
1612
9911
A911
A901
AFD2
1210
ENDCHAR
STARTCHAR firsttonechinese
ENCODING 713
SWIDTH 600 0
DWIDTH 5 0
BBX 6 4 0 5
BITMAP
031111
961111
DFFF90
122200
ENDCHAR
STARTCHAR secondtonechinese
ENCODING 714
SWIDTH 600 0
DWIDTH 5 0
BBX 6 4 0 5
BITMAP
011111
761221
DDDE50
331000
ENDCHAR
STARTCHAR fourthtonechinese
ENCODING 715
SWIDTH 600 0
DWIDTH 5 0
BBX 6 4 0 5
BITMAP
141110
B82101
BFFE91
002400
ENDCHAR
STARTCHAR verticallinelowmod
ENCODING 716
SWIDTH 456 0
DWIDTH 4 0
BBX 4 6 0 -3
BITMAP
1612
9911
A911
A901
AFD2
1210
ENDCHAR
STARTCHAR breve
ENCODING 728
SWIDTH 600 0
DWIDTH 5 0
BBX 6 4 0 6
BITMAP
032221
952711
EB3220
7EEA10
ENDCHAR
STARTCHAR dotaccent
ENCODING 729
SWIDTH 600 0
DWIDTH 5 0
BBX 4 4 1 5
BITMAP
1211
C412
FFB1
1200
ENDCHAR
STARTCHAR ring
ENCODING 730
SWIDTH 600 0
DWIDTH 5 0
BBX 6 5 0 6
BITMAP
011110
452112
D54B11
EA3331
8EEB10
ENDCHAR
STARTCHAR ogonek
ENCODING 731
SWIDTH 600 0
DWIDTH 5 0
BBX 4 5 1 -4
BITMAP
0320
9531
E601
DFC1
1210
ENDCHAR
STARTCHAR tilde
ENCODING 732
SWIDTH 600 0
DWIDTH 5 0
BBX 6 3 0 6
BITMAP
033330
B74212
BCED50
ENDCHAR
STARTCHAR hungarumlaut
ENCODING 733
SWIDTH 600 0
DWIDTH 5 0
BBX 7 5 -1 5
BITMAP
00213110
0852A110
0E267110
2FDEF600
02111000
ENDCHAR
STARTCHAR gravecmb
ENCODING 768
SWIDTH 100 0
DWIDTH 1 0
BBX 6 4 -3 5
BITMAP
022111
1E4211
1EFFE6
001330
ENDCHAR
STARTCHAR acutecmb
ENCODING 769
SWIDTH 100 0
DWIDTH 1 0
BBX 6 4 -3 5
BITMAP
002112
0A2123
2FDDD3
042000
ENDCHAR
STARTCHAR circumflexcmb
ENCODING 770
SWIDTH 100 0
DWIDTH 1 0
BBX 6 4 -3 6
BITMAP
001221
033222
1E5784
1EABE4
ENDCHAR
STARTCHAR tildecmb
ENCODING 771
SWIDTH 100 0
DWIDTH 1 0
BBX 6 3 -3 6
BITMAP
021332
1D4422
1DDEC3
ENDCHAR
STARTCHAR uni0304
ENCODING 772
SWIDTH 600 0
DWIDTH 5 0
BBX 6 4 0 5
BITMAP
031111
961111
DFFF90
122200
ENDCHAR
STARTCHAR brevecmb
ENCODING 774
SWIDTH 100 0
DWIDTH 1 0
BBX 7 4 -3 6
BITMAP
01223200
1C335210
2F833100
0AEE7000
ENDCHAR
STARTCHAR dotaccentcmb
ENCODING 775
SWIDTH 100 0
DWIDTH 1 0
BBX 5 4 -2 5
BITMAP
021110
2E0120
4FF800
022000
ENDCHAR
STARTCHAR dieresiscmb
ENCODING 776
SWIDTH 100 0
DWIDTH 1 0
BBX 7 4 -3 5
BITMAP
02122110
2E135120
4FEFF900
02112000
ENDCHAR
STARTCHAR hookcmb
ENCODING 777
SWIDTH 100 0
DWIDTH 1 0
BBX 5 5 -2 6
BITMAP
021110
1D1220
4F9320
0CC810
066100
ENDCHAR
STARTCHAR ringcmb
ENCODING 778
SWIDTH 100 0
DWIDTH 1 0
BBX 7 5 -3 6
BITMAP
00111100
06311200
2F367210
2F733300
0BEE8000
ENDCHAR
STARTCHAR hungarumlautcmb
ENCODING 779
SWIDTH 100 0
DWIDTH 1 0
BBX 7 5 -3 5
BITMAP
00213110
0671B110
0C348110
1FEDF700
02111000
ENDCHAR
STARTCHAR caroncmb
ENCODING 780
SWIDTH 100 0
DWIDTH 1 0
BBX 6 3 -3 6
BITMAP
073112
2F8434
09EC70
ENDCHAR
STARTCHAR horncmb
ENCODING 795
SWIDTH 100 0
DWIDTH 1 0
BBX 4 4 -2 4
BITMAP
0132
2D23
5FC3
2610
ENDCHAR
STARTCHAR dotbelowcmb
ENCODING 803
SWIDTH 100 0
DWIDTH 1 0
BBX 5 4 -2 -4
BITMAP
021110
2E0120
4FF800
022000
ENDCHAR
STARTCHAR dieresisbelowcmb
ENCODING 804
SWIDTH 100 0
DWIDTH 1 0
BBX 7 4 -3 -4
BITMAP
02122110
2E135120
4FEFF900
02112000
ENDCHAR
STARTCHAR commaaccent
ENCODING 806
SWIDTH 600 0
DWIDTH 5 0
BBX 4 4 1 -4
BITMAP
1331
D931
E632
DD40
ENDCHAR
STARTCHAR cedillacmb
ENCODING 807
SWIDTH 100 0
DWIDTH 1 0
BBX 5 5 -2 -3
BITMAP
003100
093110
1C0200
6FD200
121000
ENDCHAR
STARTCHAR ogonekcmb
ENCODING 808
SWIDTH 100 0
DWIDTH 1 0
BBX 4 5 -1 -4
BITMAP
0320
A431
E501
EFC1
1210
ENDCHAR
STARTCHAR brevebelowcmb
ENCODING 814
SWIDTH 100 0
DWIDTH 1 0
BBX 7 4 -3 -3
BITMAP
01223200
1C335210
2F833100
0AEE7000
ENDCHAR
STARTCHAR macronbelowcmb
ENCODING 817
SWIDTH 100 0
DWIDTH 1 0
BBX 6 4 -3 -4
BITMAP
012112
0C3111
1FFFF6
022210
ENDCHAR
STARTCHAR uni0394
ENCODING 916
SWIDTH 830 0
DWIDTH 7 0
BBX 8 9 0 -2
BITMAP
00211100
06611110
0D216110
2D13B110
5A16E111
98124011
B8111101
BFFFFF80
01111100
ENDCHAR
STARTCHAR uni03A9
ENCODING 937
SWIDTH 877 0
DWIDTH 8 0
BBX 8 9 0 -2
BITMAP
00111120
07121211
5B12D311
8B12F411
8C11E411
7811A212
C6118111
DFFDFFD3
11101100
ENDCHAR
STARTCHAR uni03BC
ENCODING 956
SWIDTH 813 0
DWIDTH 7 0
BBX 7 8 0 -2
BITMAP
02112120
6913C110
A916E110
A924B110
A9222110
A9100100
AC69C500
6B700000
ENDCHAR
STARTCHAR pi
ENCODING 960
SWIDTH 821 0
DWIDTH 7 0
BBX 8 8 0 -2
BITMAP
01111110
37111111
A9126101
A916E101
A916E101
A906E011
AFD7FF60
01001100
ENDCHAR
STARTCHAR Ddotbelow
ENCODING 7692
SWIDTH 846 0
DWIDTH 8 0
BBX 8 11 0 -4
BITMAP
17111120
8A122201
9A139111
9A14F311
9A12F311
9A118111
9A111110
8EA86710
00C61200
00DFC200
00220000
ENDCHAR
STARTCHAR ddotbelow
ENCODING 7693
SWIDTH 846 0
DWIDTH 8 0
BBX 8 11 0 -4
BITMAP
17111120
8A122201
9A139111
9A14F311
9A12F311
9A118111
9A111110
8EA86710
00C61200
00DFC200
00220000
ENDCHAR
STARTCHAR Dlinebelow
ENCODING 7694
SWIDTH 846 0
DWIDTH 8 0
BBX 8 11 0 -4
BITMAP
17111110
8A122201
9A139111
9A14F311
9A12F311
9A118111
9A111110
8EA88820
09711110
0CFFFA10
01222000
ENDCHAR
STARTCHAR dlinebelow
ENCODING 7695
SWIDTH 846 0
DWIDTH 8 0
BBX 8 11 0 -4
BITMAP
17111110
8A122201
9A139111
9A14F311
9A12F311
9A118111
9A111110
8EA88820
09711110
0CFFFA10
01222000
ENDCHAR
STARTCHAR Gmacron
ENCODING 7712
SWIDTH 808 0
DWIDTH 7 0
BBX 7 10 0 -1
BITMAP
00211110
06900010
0AA66630
06122110
7815EA10
A8124220
A813C110
AA237110
9E633320
2BFFFE40
ENDCHAR
STARTCHAR gmacron
ENCODING 7713
SWIDTH 808 0
DWIDTH 7 0
BBX 7 10 0 -1
BITMAP
00211110
06900010
0AA66630
06122110
7815EA10
A8124220
A813C110
AA237110
9E633320
2BFFFE40
ENDCHAR
STARTCHAR Hdotbelow
ENCODING 7716
SWIDTH 859 0
DWIDTH 8 0
BBX 8 11 0 -4
BITMAP
17124411
8A12F311
9A118211
9A211121
9A14F311
9A12F311
9B12F521
8FC48C70
00A71100
00CFC200
00121000
ENDCHAR
STARTCHAR hdotbelow
ENCODING 7717
SWIDTH 859 0
DWIDTH 8 0
BBX 8 11 0 -4
BITMAP
17124411
8A12F311
9A118211
9A211121
9A14F311
9A12F311
9B12F521
8FC48C70
00A71100
00CFC200
00121000
ENDCHAR
STARTCHAR Hbrevebelow
ENCODING 7722
SWIDTH 859 0
DWIDTH 8 0
BBX 8 11 0 -4
BITMAP
17124411
8A12F311
9A118211
9A211121
9A14F311
9A12F311
9A02F301
8FA4F750
0A921120
0AFDC700
01674000
ENDCHAR
STARTCHAR hbrevebelow
ENCODING 7723
SWIDTH 859 0
DWIDTH 8 0
BBX 8 11 0 -4
BITMAP
17124411
8A12F311
9A118211
9A211121
9A14F311
9A12F311
9A02F301
8FA4F750
0A921120
0AFDC700
01674000
ENDCHAR
STARTCHAR Ldotbelow
ENCODING 7734
SWIDTH 795 0
DWIDTH 7 0
BBX 7 11 0 -4
BITMAP
17120000
8A110000
9A110000
9A112220
9A13C110
9A128110
9A111210
8EA76800
00D41100
00FFB100
00220000
ENDCHAR
STARTCHAR ldotbelow
ENCODING 7735
SWIDTH 795 0
DWIDTH 7 0
BBX 7 11 0 -4
BITMAP
17120000
8A110000
9A110000
9A112220
9A13C110
9A128110
9A111210
8EA76800
00D41100
00FFB100
00220000
ENDCHAR
STARTCHAR Ldotbelowmacron
ENCODING 7736
SWIDTH 795 0
DWIDTH 7 0
BBX 7 13 0 -4
BITMAP
00211000
0B500010
0B69F700
7A121000
9A110000
9A112220
9A13C110
9A128110
9A111210
8EA76800
00D41100
00FFB100
00220000
ENDCHAR
STARTCHAR ldotbelowmacron
ENCODING 7737
SWIDTH 795 0
DWIDTH 7 0
BBX 7 13 0 -4
BITMAP
00211000
0B500010
0B69F700
7A121000
9A110000
9A112220
9A13C110
9A128110
9A111210
8EA76800
00D41100
00FFB100
00220000
ENDCHAR
STARTCHAR Llinebelow
ENCODING 7738
SWIDTH 795 0
DWIDTH 7 0
BBX 7 11 0 -4
BITMAP
17120000
8A110000
9A110000
9A113220
9A13C110
9A111210
9E755580
8F412020
0D500010
0EFFE500
02222000
ENDCHAR
STARTCHAR llinebelow
ENCODING 7739
SWIDTH 795 0
DWIDTH 7 0
BBX 7 11 0 -4
BITMAP
17120000
8A110000
9A110000
9A113220
9A13C110
9A111210
9E755580
8F412020
0D500010
0EFFE500
02222000
ENDCHAR
STARTCHAR Mdotbelow
ENCODING 7746
SWIDTH 949 0
DWIDTH 9 0
BBX 9 11 0 -4
BITMAP
1711031110
8A11452010
9A11321010
9A11121010
9A156A1010
9A149F1010
9B224F2210
8FC439F500
004C110000
006FE50000
0012200000
ENDCHAR
STARTCHAR mdotbelow
ENCODING 7747
SWIDTH 949 0
DWIDTH 9 0
BBX 9 11 0 -4
BITMAP
1711031110
8A11452010
9A11321010
9A11121010
9A156A1010
9A149F1010
9B224F2210
8FC439F500
004C110000
006FE50000
0012200000
ENDCHAR
STARTCHAR Ndotaccent
ENCODING 7748
SWIDTH 853 0
DWIDTH 8 0
BBX 8 11 0 -1
BITMAP
00021100
00861100
00D60100
1717F411
8A219311
9A111111
9A121111
9A157221
9A15F211
9B14F421
8FC2FF70
ENDCHAR
STARTCHAR ndotaccent
ENCODING 7749
SWIDTH 853 0
DWIDTH 8 0
BBX 8 11 0 -1
BITMAP
00021100
00861100
00D60100
1717F411
8A219311
9A111111
9A121111
9A157221
9A15F211
9B14F421
8FC2FF70
ENDCHAR
STARTCHAR Ndotbelow
ENCODING 7750
SWIDTH 853 0
DWIDTH 8 0
BBX 8 11 0 -4
BITMAP
17114311
8A219311
9A111111
9A121111
9A157221
9A15F211
9B14F421
8FC58C70
00A61100
00DFC200
00220000
ENDCHAR
STARTCHAR ndotbelow
ENCODING 7751
SWIDTH 853 0
DWIDTH 8 0
BBX 8 11 0 -4
BITMAP
17114311
8A219311
9A111111
9A121111
9A157221
9A15F211
9B14F421
8FC58C70
00A61100
00DFC200
00220000
ENDCHAR
STARTCHAR Nlinebelow
ENCODING 7752
SWIDTH 853 0
DWIDTH 8 0
BBX 8 11 0 -4
BITMAP
17125311
8A229311
9A111111
9A121111
9A158221
9A15F211
9A03F301
8E95A750
09800010
0BFFFA10
01222000
ENDCHAR
STARTCHAR nlinebelow
ENCODING 7753
SWIDTH 853 0
DWIDTH 8 0
BBX 8 11 0 -4
BITMAP
17125311
8A229311
9A111111
9A121111
9A158221
9A15F211
9A03F301
8E95A750
09800010
0BFFFA10
01222000
ENDCHAR
STARTCHAR Rdotbelow
ENCODING 7770
SWIDTH 843 0
DWIDTH 8 0
BBX 8 11 0 -4
BITMAP
17111110
8A122110
9A15B210
9A223210
9A100011
9A15F411
9B23F622
8FD68C90
00971100
00BFC200
00121000
ENDCHAR
STARTCHAR rdotbelow
ENCODING 7771
SWIDTH 843 0
DWIDTH 8 0
BBX 8 11 0 -4
BITMAP
17111110
8A122110
9A15B210
9A223210
9A100011
9A15F411
9B23F622
8FD68C90
00971100
00BFC200
00121000
ENDCHAR
STARTCHAR Rdotbelowmacron
ENCODING 7772
SWIDTH 843 0
DWIDTH 8 0
BBX 8 13 0 -4
BITMAP
01111000
1C200100
2C666510
5A122110
9A15B210
9A223210
9A100011
9A15F411
9B23F622
8FD68C90
00971100
00BFC200
00121000
ENDCHAR
STARTCHAR rdotbelowmacron
ENCODING 7773
SWIDTH 843 0
DWIDTH 8 0
BBX 8 13 0 -4
BITMAP
01111000
1C200100
2C666510
5A122110
9A15B210
9A223210
9A100011
9A15F411
9B23F622
8FD68C90
00971100
00BFC200
00121000
ENDCHAR
STARTCHAR Rlinebelow
ENCODING 7774
SWIDTH 843 0
DWIDTH 8 0
BBX 8 11 0 -4
BITMAP
17233210
8A100110
9A15B210
9A223211
9A126111
9A15F411
9A01E501
8E95A760
0A800010
0BFFF900
01222000
ENDCHAR
STARTCHAR rlinebelow
ENCODING 7775
SWIDTH 843 0
DWIDTH 8 0
BBX 8 11 0 -4
BITMAP
17233210
8A100110
9A15B210
9A223211
9A126111
9A15F411
9A01E501
8E95A760
0A800010
0BFFF900
01222000
ENDCHAR
STARTCHAR Sdotaccent
ENCODING 7776
SWIDTH 750 0
DWIDTH 7 0
BBX 7 11 0 -1
BITMAP
00121000
01D00100
04F00100
05411110
48122120
A814A900
BA110010
AFC84110
29331210
A9233410
BFFFC200
ENDCHAR
STARTCHAR sdotaccent
ENCODING 7777
SWIDTH 750 0
DWIDTH 7 0
BBX 7 11 0 -1
BITMAP
00121000
01D00100
04F00100
05411110
48122120
A814A900
BA110010
AFC84110
29331210
A9233410
BFFFC200
ENDCHAR
STARTCHAR Sdotbelow
ENCODING 7778
SWIDTH 750 0
DWIDTH 7 0
BBX 7 11 0 -4
BITMAP
02111110
37122120
A814BA00
BA110020
AFC84110
29331210
A8112020
BDA66100
03F01100
04FF8000
00220000
ENDCHAR
STARTCHAR sdotbelow
ENCODING 7779
SWIDTH 750 0
DWIDTH 7 0
BBX 7 11 0 -4
BITMAP
02111110
37122120
A814BA00
BA110020
AFC84110
29331210
A8112020
BDA66100
03F01100
04FF8000
00220000
ENDCHAR
STARTCHAR Tdotbelow
ENCODING 7788
SWIDTH 756 0
DWIDTH 7 0
BBX 7 11 0 -4
BITMAP
34111120
E4122110
EFE10D30
26E10200
05E10100
05E10100
05E00100
04F65100
03E10100
04FF8000
00220000
ENDCHAR
STARTCHAR tdotbelow
ENCODING 7789
SWIDTH 756 0
DWIDTH 7 0
BBX 7 11 0 -4
BITMAP
34111120
E4122110
EFE10D30
26E10200
05E10100
05E10100
05E00100
04F65100
03E10100
04FF8000
00220000
ENDCHAR
STARTCHAR Tlinebelow
ENCODING 7790
SWIDTH 756 0
DWIDTH 7 0
BBX 7 11 0 -4
BITMAP
34333320
E4010010
EFE10D30
26E10200
05E10100
05E10100
05E00100
05976200
1E200200
2FFFE500
02221000
ENDCHAR
STARTCHAR tlinebelow
ENCODING 7791
SWIDTH 756 0
DWIDTH 7 0
BBX 7 11 0 -4
BITMAP
34333320
E4010010
EFE10D30
26E10200
05E10100
05E10100
05E00100
05976200
1E200200
2FFFE500
02221000
ENDCHAR
STARTCHAR Wgrave
ENCODING 7808
SWIDTH 931 0
DWIDTH 8 0
BBX 9 11 0 -1
BITMAP
0002000000
01A7995000
07D2001000
1616DD0210
A9113F1110
A9124C1110
A912131110
A910111100
AC11721100
6F43C63100
1EF6DF8000
ENDCHAR
STARTCHAR wgrave
ENCODING 7809
SWIDTH 931 0
DWIDTH 8 0
BBX 9 11 0 -1
BITMAP
0002000000
01A7995000
07D2001000
1616DD0210
A9113F1110
A9124C1110
A912131110
A910111100
AC11721100
6F43C63100
1EF6DF8000
ENDCHAR
STARTCHAR Wacute
ENCODING 7810
SWIDTH 931 0
DWIDTH 8 0
BBX 9 11 0 -1
BITMAP
0000012000
0048986000
03E0011000
16138C1210
A9113F1110
A9124C1110
A912131110
A910111100
AC11721100
6F43C63100
1EF6DF8000
ENDCHAR
STARTCHAR wacute
ENCODING 7811
SWIDTH 931 0
DWIDTH 8 0
BBX 9 11 0 -1
BITMAP
0000012000
0048986000
03E0011000
16138C1210
A9113F1110
A9124C1110
A912131110
A910111100
AC11721100
6F43C63100
1EF6DF8000
ENDCHAR
STARTCHAR Wdieresis
ENCODING 7812
SWIDTH 931 0
DWIDTH 8 0
BBX 9 11 0 -1
BITMAP
0021322000
0391701000
09A0800000
0769FF6610
89124F1110
A9124C1110
A912131110
A910111100
AC11721100
7F43C63100
2EF6DF8000
ENDCHAR
STARTCHAR wdieresis
ENCODING 7813
SWIDTH 931 0
DWIDTH 8 0
BBX 9 11 0 -1
BITMAP
0021322000
0391701000
09A0800000
0769FF6610
89124F1110
A9124C1110
A912131110
A910111100
AC11721100
7F43C63100
2EF6DF8000
ENDCHAR
STARTCHAR Ydotaccent
ENCODING 7822
SWIDTH 805 0
DWIDTH 7 0
BBX 8 11 0 -1
BITMAP
00021100
00B31100
01F30100
2519E121
C715F111
C715D111
CC113220
7F812110
0BF21200
02F41200
01FF8000
ENDCHAR
STARTCHAR ydotaccent
ENCODING 7823
SWIDTH 805 0
DWIDTH 7 0
BBX 8 11 0 -1
BITMAP
00021100
00B31100
01F30100
2519E121
C715F111
C715D111
CC113220
7F812110
0BF21200
02F41200
01FF8000
ENDCHAR
STARTCHAR Zdotbelow
ENCODING 7826
SWIDTH 760 0
DWIDTH 7 0
BBX 7 11 0 -4
BITMAP
16111110
99122110
9FF71120
13902200
07221100
67102210
C7111110
BDA66700
02F11100
03FF8000
00220000
ENDCHAR
STARTCHAR zdotbelow
ENCODING 7827
SWIDTH 760 0
DWIDTH 7 0
BBX 7 11 0 -4
BITMAP
16111110
99122110
9FF71120
13902200
07221100
67102210
C7111110
BDA66700
02F11100
03FF8000
00220000
ENDCHAR
STARTCHAR tdieresis
ENCODING 7831
SWIDTH 756 0
DWIDTH 7 0
BBX 7 11 0 -1
BITMAP
02122110
2C044110
5E044010
75111120
E4122110
EFE10D30
26E10200
05E10100
05E10100
05E22100
04FE5000
ENDCHAR
STARTCHAR Germandbls
ENCODING 7838
SWIDTH 859 0
DWIDTH 8 0
BBX 8 8 0 -1
BITMAP
16111110
8A122110
9A136120
9A145211
9A14E711
9A144011
9B265341
8FDFFC30
ENDCHAR
STARTCHAR Adotbelow
ENCODING 7840
SWIDTH 830 0
DWIDTH 7 0
BBX 8 11 0 -4
BITMAP
00311110
05422110
0B13A210
49238111
98211121
B817F111
B914F311
AFA48D60
00C41100
00EFB100
00220000
ENDCHAR
STARTCHAR adotbelow
ENCODING 7841
SWIDTH 830 0
DWIDTH 7 0
BBX 8 11 0 -4
BITMAP
00311110
05422110
0B13A210
49238111
98211121
B817F111
B914F311
AFA48D60
00C41100
00EFB100
00220000
ENDCHAR
STARTCHAR Ahookabove
ENCODING 7842
SWIDTH 830 0
DWIDTH 7 0
BBX 8 11 0 -1
BITMAP
00211000
02EA3300
01CBA600
00711110
05422110
0B13A210
49238111
98211121
B817F111
B914F311
AFA2FF60
ENDCHAR
STARTCHAR ahookabove
ENCODING 7843
SWIDTH 830 0
DWIDTH 7 0
BBX 8 11 0 -1
BITMAP
00211000
02EA3300
01CBA600
00711110
05422110
0B13A210
49238111
98211121
B817F111
B914F311
AFA2FF60
ENDCHAR
STARTCHAR Acircumflexacute
ENCODING 7844
SWIDTH 830 0
DWIDTH 7 0
BBX 8 13 0 -1
BITMAP
00001650
0003B730
00064240
01411010
0AB8B710
0C800010
08322110
0A13A210
49238111
98211121
B817F111
B914F311
AFA2FF60
ENDCHAR
STARTCHAR acircumflexacute
ENCODING 7845
SWIDTH 830 0
DWIDTH 7 0
BBX 8 13 0 -1
BITMAP
00001650
0003B730
00064240
01411010
0AB8B710
0C800010
08322110
0A13A210
49238111
98211121
B817F111
B914F311
AFA2FF60
ENDCHAR
STARTCHAR Acircumflexgrave
ENCODING 7846
SWIDTH 830 0
DWIDTH 7 0
BBX 8 13 0 -1
BITMAP
00003300
0005BA50
00082200
01411200
0AB8B710
0C800010
08322110
0A13A210
49238111
98211121
B817F111
B914F311
AFA2FF60
ENDCHAR
STARTCHAR acircumflexgrave
ENCODING 7847
SWIDTH 830 0
DWIDTH 7 0
BBX 8 13 0 -1
BITMAP
00003300
0005BA50
00082200
01411200
0AB8B710
0C800010
08322110
0A13A210
49238111
98211121
B817F111
B914F311
AFA2FF60
ENDCHAR
STARTCHAR Acircumflexhookabove
ENCODING 7848
SWIDTH 830 0
DWIDTH 7 0
BBX 8 13 0 -1
BITMAP
00003110
0007F622
0003A882
00311120
09B8B720
0C800010
08322110
0A13A210
49238111
98211121
B817F111
B914F311
AFA2FF60
ENDCHAR
STARTCHAR acircumflexhookabove
ENCODING 7849
SWIDTH 830 0
DWIDTH 7 0
BBX 8 13 0 -1
BITMAP
00003110
0007F622
0003A882
00311120
09B8B720
0C800010
08322110
0A13A210
49238111
98211121
B817F111
B914F311
AFA2FF60
ENDCHAR
STARTCHAR Acircumflextilde
ENCODING 7850
SWIDTH 830 0
DWIDTH 7 0
BBX 8 13 0 -1
BITMAP
00211210
06611110
0CCA6610
06711110
0AB8B720
0C800010
08322110
0A13A210
49238111
98211121
B817F111
B914F311
AFA2FF60
ENDCHAR
STARTCHAR acircumflextilde
ENCODING 7851
SWIDTH 830 0
DWIDTH 7 0
BBX 8 13 0 -1
BITMAP
00211210
06611110
0CCA6610
06711110
0AB8B720
0C800010
08322110
0A13A210
49238111
98211121
B817F111
B914F311
AFA2FF60
ENDCHAR
STARTCHAR Acircumflexdotbelow
ENCODING 7852
SWIDTH 830 0
DWIDTH 7 0
BBX 8 14 0 -4
BITMAP
00012100
01411110
0AB8B710
0C800010
08322110
0A13A210
49238111
98211121
B817F111
B914F311
AFA48D60
00C41100
00EFB100
00220000
ENDCHAR
STARTCHAR acircumflexdotbelow
ENCODING 7853
SWIDTH 830 0
DWIDTH 7 0
BBX 8 14 0 -4
BITMAP
00012100
01411110
0AB8B710
0C800010
08322110
0A13A210
49238111
98211121
B817F111
B914F311
AFA48D60
00C41100
00EFB100
00220000
ENDCHAR
STARTCHAR Abreveacute
ENCODING 7854
SWIDTH 830 0
DWIDTH 7 0
BBX 8 13 0 -1
BITMAP
00015600
001B7400
00580310
07627110
0DB42200
0AC55510
05522120
0C13A220
49238111
98211121
B817F111
B914F311
AFA2FF60
ENDCHAR
STARTCHAR abreveacute
ENCODING 7855
SWIDTH 830 0
DWIDTH 7 0
BBX 8 13 0 -1
BITMAP
00015600
001B7400
00580310
07627110
0DB42200
0AC55510
05522120
0C13A220
49238111
98211121
B817F111
B914F311
AFA2FF60
ENDCHAR
STARTCHAR Abrevegrave
ENCODING 7856
SWIDTH 830 0
DWIDTH 7 0
BBX 8 13 0 -1
BITMAP
00384000
03E57000
05B20210
07626110
0DB42200
0AC55510
05522120
0C13A220
49238111
98211121
B817F111
B914F311
AFA2FF60
ENDCHAR
STARTCHAR abrevegrave
ENCODING 7857
SWIDTH 830 0
DWIDTH 7 0
BBX 8 13 0 -1
BITMAP
00384000
03E57000
05B20210
07626110
0DB42200
0AC55510
05522120
0C13A220
49238111
98211121
B817F111
B914F311
AFA2FF60
ENDCHAR
STARTCHAR Abrevehookabove
ENCODING 7858
SWIDTH 830 0
DWIDTH 7 0
BBX 8 14 0 -1
BITMAP
00021200
00A74210
00DC3210
0059B510
07624110
0DB32200
0AC55510
05522120
0C13A220
49238111
98211121
B817F111
B914F311
AFA2FF60
ENDCHAR
STARTCHAR abrevehookabove
ENCODING 7859
SWIDTH 830 0
DWIDTH 7 0
BBX 8 14 0 -1
BITMAP
00021200
00A74210
00DC3210
0059B510
07624110
0DB32200
0AC55510
05522120
0C13A220
49238111
98211121
B817F111
B914F311
AFA2FF60
ENDCHAR
STARTCHAR Abrevetilde
ENCODING 7860
SWIDTH 830 0
DWIDTH 7 0
BBX 8 13 0 -1
BITMAP
00111210
05611110
0CA9C510
0B627110
0DB42200
0AC55510
05522120
0C13A220
49238111
98211121
B817F111
B914F311
AFA2FF60
ENDCHAR
STARTCHAR abrevetilde
ENCODING 7861
SWIDTH 830 0
DWIDTH 7 0
BBX 8 13 0 -1
BITMAP
00111210
05611110
0CA9C510
0B627110
0DB42200
0AC55510
05522120
0C13A220
49238111
98211121
B817F111
B914F311
AFA2FF60
ENDCHAR
STARTCHAR Abrevedotbelow
ENCODING 7862
SWIDTH 830 0
DWIDTH 7 0
BBX 8 14 0 -4
BITMAP
00322210
08627110
0DB42200
0AC55510
05522120
0C13A220
49238111
98211121
B817F111
B914F311
AFA48D60
00C41100
00EFB100
00220000
ENDCHAR
STARTCHAR abrevedotbelow
ENCODING 7863
SWIDTH 830 0
DWIDTH 7 0
BBX 8 14 0 -4
BITMAP
00322210
08627110
0DB42200
0AC55510
05522120
0C13A220
49238111
98211121
B817F111
B914F311
AFA48D60
00C41100
00EFB100
00220000
ENDCHAR
STARTCHAR Edotbelow
ENCODING 7864
SWIDTH 754 0
DWIDTH 7 0
BBX 7 11 0 -4
BITMAP
17111110
8A122110
9A14BA10
9A211100
9A114300
9A138310
9A111110
8EA66800
02F11200
03FF9000
00220000
ENDCHAR
STARTCHAR edotbelow
ENCODING 7865
SWIDTH 754 0
DWIDTH 7 0
BBX 7 11 0 -4
BITMAP
17111110
8A122110
9A14BA10
9A211100
9A114300
9A138310
9A111110
8EA66800
02F11200
03FF9000
00220000
ENDCHAR
STARTCHAR Ehookabove
ENCODING 7866
SWIDTH 754 0
DWIDTH 7 0
BBX 7 11 0 -1
BITMAP
00311000
05F73200
03EA9300
17111110
8A122110
9A14BA10
9A211100
9A114300
9A138310
9B333220
8FFFFB10
ENDCHAR
STARTCHAR ehookabove
ENCODING 7867
SWIDTH 754 0
DWIDTH 7 0
BBX 7 11 0 -1
BITMAP
00311000
05F73200
03EA9300
17111110
8A122110
9A14BA10
9A211100
9A114300
9A138310
9B333220
8FFFFB10
ENDCHAR
STARTCHAR Etilde
ENCODING 7868
SWIDTH 754 0
DWIDTH 7 0
BBX 7 10 0 -1
BITMAP
01133200
0D442100
1B111110
8A122110
9A14BA10
9A211100
9A114300
9A138310
9B333220
8FFFFB10
ENDCHAR
STARTCHAR etilde
ENCODING 7869
SWIDTH 754 0
DWIDTH 7 0
BBX 7 10 0 -1
BITMAP
01133200
0D442100
1B111110
8A122110
9A14BA10
9A211100
9A114300
9A138310
9B333220
8FFFFB10
ENDCHAR
STARTCHAR Ecircumflexacute
ENCODING 7870
SWIDTH 754 0
DWIDTH 7 0
BBX 7 13 0 -1
BITMAP
00002730
0005B630
00181220
04311200
1F789500
2B111110
9A122110
9A14BA10
9A211100
9A114300
9A138310
9B333220
8FFFFB10
ENDCHAR
STARTCHAR ecircumflexacute
ENCODING 7871
SWIDTH 754 0
DWIDTH 7 0
BBX 7 13 0 -1
BITMAP
00002730
0005B630
00181220
04311200
1F789500
2B111110
9A122110
9A14BA10
9A211100
9A114300
9A138310
9B333220
8FFFFB10
ENDCHAR
STARTCHAR Ecircumflexgrave
ENCODING 7872
SWIDTH 754 0
DWIDTH 7 0
BBX 7 13 0 -1
BITMAP
00004200
00099A20
001A1100
04311100
1F789500
2B111110
9A122110
9A14BA10
9A211100
9A114300
9A138310
9B333220
8FFFFB10
ENDCHAR
STARTCHAR ecircumflexgrave
ENCODING 7873
SWIDTH 754 0
DWIDTH 7 0
BBX 7 13 0 -1
BITMAP
00004200
00099A20
001A1100
04311100
1F789500
2B111110
9A122110
9A14BA10
9A211100
9A114300
9A138310
9B333220
8FFFFB10
ENDCHAR
STARTCHAR Ecircumflexhookabove
ENCODING 7874
SWIDTH 754 0
DWIDTH 7 0
BBX 8 13 0 -1
BITMAP
00002110
000BD521
0006A880
03311310
1E789500
2B111110
9A122110
9A14BA10
9A211100
9A114300
9A138310
9B333220
8FFFFB10
ENDCHAR
STARTCHAR ecircumflexhookabove
ENCODING 7875
SWIDTH 754 0
DWIDTH 7 0
BBX 8 13 0 -1
BITMAP
00002110
000BD521
0006A880
03311310
1E789500
2B111110
9A122110
9A14BA10
9A211100
9A114300
9A138310
9B333220
8FFFFB10
ENDCHAR
STARTCHAR Ecircumflextilde
ENCODING 7876
SWIDTH 754 0
DWIDTH 7 0
BBX 7 13 0 -1
BITMAP
00211200
09311100
1FB96500
09511200
1E789500
2B111110
8A122110
9A14BA10
9A211100
9A114300
9A138310
9B333220
8FFFFB10
ENDCHAR
STARTCHAR ecircumflextilde
ENCODING 7877
SWIDTH 754 0
DWIDTH 7 0
BBX 7 13 0 -1
BITMAP
00211200
09311100
1FB96500
09511200
1E789500
2B111110
8A122110
9A14BA10
9A211100
9A114300
9A138310
9B333220
8FFFFB10
ENDCHAR
STARTCHAR Ecircumflexdotbelow
ENCODING 7878
SWIDTH 754 0
DWIDTH 7 0
BBX 7 14 0 -4
BITMAP
00122100
04311200
1F789500
2B111110
9A122110
9A14BA10
9A211100
9A114300
9A138310
9A111110
8EA66600
03E10100
05FF7000
00220000
ENDCHAR
STARTCHAR ecircumflexdotbelow
ENCODING 7879
SWIDTH 754 0
DWIDTH 7 0
BBX 7 14 0 -4
BITMAP
00122100
04311200
1F789500
2B111110
9A122110
9A14BA10
9A211100
9A114300
9A138310
9A111110
8EA66600
03E10100
05FF7000
00220000
ENDCHAR
STARTCHAR Ihookabove
ENCODING 7880
SWIDTH 705 0
DWIDTH 6 0
BBX 7 11 0 -1
BITMAP
00211000
0BD42200
07E99100
16111110
A8122010
BD712500
5CB12000
08B11000
06611200
89233210
BFFFE600
ENDCHAR
STARTCHAR ihookabove
ENCODING 7881
SWIDTH 705 0
DWIDTH 6 0
BBX 7 11 0 -1
BITMAP
00211000
0BD42200
07E99100
16111110
A8122010
BD712500
5CB12000
08B11000
06611200
89233210
BFFFE600
ENDCHAR
STARTCHAR Idotbelow
ENCODING 7882
SWIDTH 705 0
DWIDTH 6 0
BBX 7 11 0 -4
BITMAP
16111110
A8122010
BD712500
5CB12000
08B11000
07611200
88121010
BD967500
07B12000
08FE6000
01210000
ENDCHAR
STARTCHAR idotbelow
ENCODING 7883
SWIDTH 705 0
DWIDTH 6 0
BBX 7 11 0 -4
BITMAP
16111110
A8122010
BD712500
5CB12000
08B11000
07611200
88121010
BD967500
07B12000
08FE6000
01210000
ENDCHAR
STARTCHAR Odotbelow
ENCODING 7884
SWIDTH 837 0
DWIDTH 8 0
BBX 8 11 0 -4
BITMAP
01233320
28100011
9815F111
A814F211
A813F211
A9215111
AD122110
6FE74720
03E51200
00EFC200
00220000
ENDCHAR
STARTCHAR odotbelow
ENCODING 7885
SWIDTH 837 0
DWIDTH 8 0
BBX 8 11 0 -4
BITMAP
01233320
28100011
9815F111
A814F211
A813F211
A9215111
AD122110
6FE74720
03E51200
00EFC200
00220000
ENDCHAR
STARTCHAR Ohookabove
ENCODING 7886
SWIDTH 837 0
DWIDTH 8 0
BBX 8 11 0 -1
BITMAP
00211100
02E82300
01D96400
03522220
49115111
A816F211
A814F211
A813F111
AA200111
8F743530
1AEFD600
ENDCHAR
STARTCHAR ohookabove
ENCODING 7887
SWIDTH 837 0
DWIDTH 8 0
BBX 8 11 0 -1
BITMAP
00211100
02E82300
01D96400
03522220
49115111
A816F211
A814F211
A813F111
AA200111
8F743530
1AEFD600
ENDCHAR
STARTCHAR Ocircumflexacute
ENCODING 7888
SWIDTH 837 0
DWIDTH 8 0
BBX 8 13 0 -1
BITMAP
00001650
0002B730
00064240
02511110
0CA79710
0A311130
69115112
A816F211
A814F211
A813F111
AA200111
8F743530
1AEFD600
ENDCHAR
STARTCHAR ocircumflexacute
ENCODING 7889
SWIDTH 837 0
DWIDTH 8 0
BBX 8 13 0 -1
BITMAP
00001650
0002B730
00064240
02511110
0CA79710
0A311130
69115112
A816F211
A814F211
A813F111
AA200111
8F743530
1AEFD600
ENDCHAR
STARTCHAR Ocircumflexgrave
ENCODING 7890
SWIDTH 837 0
DWIDTH 8 0
BBX 8 13 0 -1
BITMAP
00003300
0005BA50
00082210
02511100
0CA79720
0A311130
69115112
A816F211
A814F211
A813F111
AA200111
8F743530
1AEFD600
ENDCHAR
STARTCHAR ocircumflexgrave
ENCODING 7891
SWIDTH 837 0
DWIDTH 8 0
BBX 8 13 0 -1
BITMAP
00003300
0005BA50
00082210
02511100
0CA79720
0A311130
69115112
A816F211
A814F211
A813F111
AA200111
8F743530
1AEFD600
ENDCHAR
STARTCHAR Ocircumflexhookabove
ENCODING 7892
SWIDTH 837 0
DWIDTH 8 0
BBX 8 13 0 -1
BITMAP
00003110
0007F631
0004A882
02611120
0CA79720
0A311130
69115112
A816F211
A814F211
A813F111
AA200111
8F743530
1AEFD600
ENDCHAR
STARTCHAR ocircumflexhookabove
ENCODING 7893
SWIDTH 837 0
DWIDTH 8 0
BBX 8 13 0 -1
BITMAP
00003110
0007F631
0004A882
02611120
0CA79720
0A311130
69115112
A816F211
A814F211
A813F111
AA200111
8F743530
1AEFD600
ENDCHAR
STARTCHAR Ocircumflextilde
ENCODING 7894
SWIDTH 837 0
DWIDTH 8 0
BBX 8 13 0 -1
BITMAP
00111210
05711110
0CCA6610
07811110
0BA79720
0A311130
69115112
A816F211
A814F211
A813F111
AA200111
8F743530
1AEFD600
ENDCHAR
STARTCHAR ocircumflextilde
ENCODING 7895
SWIDTH 837 0
DWIDTH 8 0
BBX 8 13 0 -1
BITMAP
00111210
05711110
0CCA6610
07811110
0BA79720
0A311130
69115112
A816F211
A814F211
A813F111
AA200111
8F743530
1AEFD600
ENDCHAR
STARTCHAR Ocircumflexdotbelow
ENCODING 7896
SWIDTH 837 0
DWIDTH 8 0
BBX 8 14 0 -4
BITMAP
00022100
03611110
0CA79710
0A311130
59115112
A816F211
A814F211
A813F111
A9200111
AD122110
5FE74710
03E51200
00EFC200
00220000
ENDCHAR
STARTCHAR ocircumflexdotbelow
ENCODING 7897
SWIDTH 837 0
DWIDTH 8 0
BBX 8 14 0 -4
BITMAP
00022100
03611110
0CA79710
0A311130
59115112
A816F211
A814F211
A813F111
A9200111
AD122110
5FE74710
03E51200
00EFC200
00220000
ENDCHAR
STARTCHAR Ohornacute
ENCODING 7898
SWIDTH 847 0
DWIDTH 8 0
BBX 8 11 0 -1
BITMAP
00000100
02778600
1E211221
1D301412
69115121
A816F211
A814F211
A813F111
AA200011
9F743520
2BEFD500
ENDCHAR
STARTCHAR ohornacute
ENCODING 7899
SWIDTH 847 0
DWIDTH 8 0
BBX 8 11 0 -1
BITMAP
00000100
02778600
1E211221
1D301412
69115121
A816F211
A814F211
A813F111
AA200011
9F743520
2BEFD500
ENDCHAR
STARTCHAR Ohorngrave
ENCODING 7900
SWIDTH 847 0
DWIDTH 8 0
BBX 8 11 0 -1
BITMAP
00100000
09576500
3F421221
08510312
59115121
A816F211
A814F211
A813F111
AA200011
9F743520
2BEFD500
ENDCHAR
STARTCHAR ohorngrave
ENCODING 7901
SWIDTH 847 0
DWIDTH 8 0
BBX 8 11 0 -1
BITMAP
00100000
09576500
3F421221
08510312
59115121
A816F211
A814F211
A813F111
AA200011
9F743520
2BEFD500
ENDCHAR
STARTCHAR Ohornhookabove
ENCODING 7902
SWIDTH 847 0
DWIDTH 8 0
BBX 8 11 0 -1
BITMAP
00211100
01E82300
01D96621
03511412
49115121
A816F211
A814F211
A813F111
AA200011
9F743520
2BEFD500
ENDCHAR
STARTCHAR ohornhookabove
ENCODING 7903
SWIDTH 847 0
DWIDTH 8 0
BBX 8 11 0 -1
BITMAP
00211100
01E82300
01D96621
03511412
49115121
A816F211
A814F211
A813F111
AA200011
9F743520
2BEFD500
ENDCHAR
STARTCHAR Ohorntilde
ENCODING 7904
SWIDTH 847 0
DWIDTH 8 0
BBX 8 11 0 -1
BITMAP
00211200
09323100
1F431421
0B611412
59115121
A816F211
A814F211
A813F111
AA200011
9F743520
2BEFD500
ENDCHAR
STARTCHAR ohorntilde
ENCODING 7905
SWIDTH 847 0
DWIDTH 8 0
BBX 8 11 0 -1
BITMAP
00211200
09323100
1F431421
0B611412
59115121
A816F211
A814F211
A813F111
AA200011
9F743520
2BEFD500
ENDCHAR
STARTCHAR Ohorndotbelow
ENCODING 7906
SWIDTH 847 0
DWIDTH 8 0
BBX 8 12 0 -4
BITMAP
00000221
01232112
28100412
9815F111
A814F211
A813F211
A9215111
AD122210
6FE74720
03E51200
00EFC200
00220000
ENDCHAR
STARTCHAR ohorndotbelow
ENCODING 7907
SWIDTH 847 0
DWIDTH 8 0
BBX 8 12 0 -4
BITMAP
00000221
01232112
28100412
9815F111
A814F211
A813F211
A9215111
AD122210
6FE74720
03E51200
00EFC200
00220000
ENDCHAR
STARTCHAR Udotbelow
ENCODING 7908
SWIDTH 846 0
DWIDTH 8 0
BBX 8 11 0 -4
BITMAP
16124311
9912F211
A913F211
A913F211
A913F211
AA218111
9D122210
4FE74720
02D61200
00DFC200
00220000
ENDCHAR
STARTCHAR udotbelow
ENCODING 7909
SWIDTH 846 0
DWIDTH 8 0
BBX 8 11 0 -4
BITMAP
16124311
9912F211
A913F211
A913F211
A913F211
AA218111
9D122210
4FE74720
02D61200
00DFC200
00220000
ENDCHAR
STARTCHAR Uhookabove
ENCODING 7910
SWIDTH 846 0
DWIDTH 8 0
BBX 8 11 0 -1
BITMAP
00121000
00CC4210
009D9800
1615E411
9913F211
A913F211
A913F211
A9229111
AB022201
7F732330
1AEFD600
ENDCHAR
STARTCHAR uhookabove
ENCODING 7911
SWIDTH 846 0
DWIDTH 8 0
BBX 8 11 0 -1
BITMAP
00121000
00CC4210
009D9800
1615E411
9913F211
A913F211
A913F211
A9229111
AB022201
7F732330
1AEFD600
ENDCHAR
STARTCHAR Uhornacute
ENCODING 7912
SWIDTH 856 0
DWIDTH 8 0
BBX 8 11 0 -1
BITMAP
00001200
03888600
1E211022
3A13B332
9913F212
A913F211
A913F211
A9129111
AB022201
8F732330
1AEFD600
ENDCHAR
STARTCHAR uhornacute
ENCODING 7913
SWIDTH 856 0
DWIDTH 8 0
BBX 8 11 0 -1
BITMAP
00001200
03888600
1E211022
3A13B332
9913F212
A913F211
A913F211
A9129111
AB022201
8F732330
1AEFD600
ENDCHAR
STARTCHAR Uhorngrave
ENCODING 7914
SWIDTH 856 0
DWIDTH 8 0
BBX 8 10 0 -1
BITMAP
07676500
3F311222
2A25D232
9913F212
A913F211
A913F211
A9129111
AB022201
8F732330
1AEFD600
ENDCHAR
STARTCHAR uhorngrave
ENCODING 7915
SWIDTH 856 0
DWIDTH 8 0
BBX 8 10 0 -1
BITMAP
07676500
3F311222
2A25D232
9913F212
A913F211
A913F211
A9129111
AB022201
8F732330
1AEFD600
ENDCHAR
STARTCHAR Uhornhookabove
ENCODING 7916
SWIDTH 856 0
DWIDTH 8 0
BBX 8 11 0 -1
BITMAP
00121000
00CB3300
00CC8822
1615C332
9913F212
A913F211
A913F211
A9229111
AB022201
8F732330
1AEFD600
ENDCHAR
STARTCHAR uhornhookabove
ENCODING 7917
SWIDTH 856 0
DWIDTH 8 0
BBX 8 11 0 -1
BITMAP
00121000
00CB3300
00CC8822
1615C332
9913F212
A913F211
A913F211
A9229111
AB022201
8F732330
1AEFD600
ENDCHAR
STARTCHAR Uhorntilde
ENCODING 7918
SWIDTH 856 0
DWIDTH 8 0
BBX 8 11 0 -1
BITMAP
00211200
0A223200
2F431322
5A26E432
A913F212
A913F211
A913F211
A9129111
AB022201
8F732330
1AEFD600
ENDCHAR
STARTCHAR uhorntilde
ENCODING 7919
SWIDTH 856 0
DWIDTH 8 0
BBX 8 11 0 -1
BITMAP
00211200
0A223200
2F431322
5A26E432
A913F212
A913F211
A913F211
A9129111
AB022201
8F732330
1AEFD600
ENDCHAR
STARTCHAR Uhorndotbelow
ENCODING 7920
SWIDTH 856 0
DWIDTH 8 0
BBX 8 12 0 -4
BITMAP
00000122
16123221
9912F222
A913F211
A913F211
A913F211
AA218111
9D122210
4FE74720
02D61200
00DFC200
00220000
ENDCHAR
STARTCHAR uhorndotbelow
ENCODING 7921
SWIDTH 856 0
DWIDTH 8 0
BBX 8 12 0 -4
BITMAP
00000122
16123221
9912F222
A913F211
A913F211
A913F211
AA218111
9D122210
4FE74720
02D61200
00DFC200
00220000
ENDCHAR
STARTCHAR Ygrave
ENCODING 7922
SWIDTH 805 0
DWIDTH 7 0
BBX 8 11 0 -1
BITMAP
00210000
07889810
0F510010
2717D121
C715F111
C715D111
CC112220
7F812110
0BF21200
02F41200
01FF8000
ENDCHAR
STARTCHAR ygrave
ENCODING 7923
SWIDTH 805 0
DWIDTH 7 0
BBX 8 11 0 -1
BITMAP
00210000
07889810
0F510010
2717D121
C715F111
C715D111
CC112220
7F812110
0BF21200
02F41200
01FF8000
ENDCHAR
STARTCHAR Ydotbelow
ENCODING 7924
SWIDTH 805 0
DWIDTH 7 0
BBX 8 11 0 -4
BITMAP
25126121
B715F111
C715D111
CB112220
9F612110
1DE11200
04F20100
01F86100
01E31200
01FFB100
00220000
ENDCHAR
STARTCHAR ydotbelow
ENCODING 7925
SWIDTH 805 0
DWIDTH 7 0
BBX 8 11 0 -4
BITMAP
25126121
B715F111
C715D111
CB112220
9F612110
1DE11200
04F20100
01F86100
01E31200
01FFB100
00220000
ENDCHAR
STARTCHAR Yhookabove
ENCODING 7926
SWIDTH 805 0
DWIDTH 7 0
BBX 8 11 0 -1
BITMAP
00312000
03F93300
01DBA600
2517C121
C715F111
C715D111
CC112220
7F812110
0BF21200
02F41200
01FF8000
ENDCHAR
STARTCHAR yhookabove
ENCODING 7927
SWIDTH 805 0
DWIDTH 7 0
BBX 8 11 0 -1
BITMAP
00312000
03F93300
01DBA600
2517C121
C715F111
C715D111
CC112220
7F812110
0BF21200
02F41200
01FF8000
ENDCHAR
STARTCHAR Ytilde
ENCODING 7928
SWIDTH 805 0
DWIDTH 7 0
BBX 8 10 0 -1
BITMAP
01233300
0C642110
2718F221
C715F111
C715D111
CC112220
7F812110
0BF21200
02F41200
01FF8000
ENDCHAR
STARTCHAR ytilde
ENCODING 7929
SWIDTH 805 0
DWIDTH 7 0
BBX 8 10 0 -1
BITMAP
01233300
0C642110
2718F221
C715F111
C715D111
CC112220
7F812110
0BF21200
02F41200
01FF8000
ENDCHAR
STARTCHAR enspace
ENCODING 8192
SWIDTH 500 0
DWIDTH 5 0
BBX 1 1 0 0
BITMAP
00
ENDCHAR
STARTCHAR emspace
ENCODING 8193
SWIDTH 1000 0
DWIDTH 9 0
BBX 1 1 0 0
BITMAP
00
ENDCHAR
STARTCHAR uni2002
ENCODING 8194
SWIDTH 500 0
DWIDTH 5 0
BBX 1 1 0 0
BITMAP
00
ENDCHAR
STARTCHAR uni2003
ENCODING 8195
SWIDTH 1000 0
DWIDTH 9 0
BBX 1 1 0 0
BITMAP
00
ENDCHAR
STARTCHAR space.tab_en
ENCODING 8199
SWIDTH 1100 0
DWIDTH 10 0
BBX 1 1 0 0
BITMAP
00
ENDCHAR
STARTCHAR uni2010
ENCODING 8208
SWIDTH 520 0
DWIDTH 5 0
BBX 5 4 0 0
BITMAP
031110
A61120
DFFC20
222100
ENDCHAR
STARTCHAR figuredash
ENCODING 8210
SWIDTH 834 0
DWIDTH 8 0
BBX 8 4 0 0
BITMAP
03111110
6A111101
9FFFFF80
12222200
ENDCHAR
STARTCHAR endash
ENCODING 8211
SWIDTH 834 0
DWIDTH 8 0
BBX 8 4 0 0
BITMAP
03111110
6A111101
9FFFFF80
12222200
ENDCHAR
STARTCHAR emdash
ENCODING 8212
SWIDTH 1234 0
DWIDTH 11 0
BBX 11 4 0 0
BITMAP
031111111110
6A1111111120
9FFFFFFFFD40
122222222100
ENDCHAR
STARTCHAR horizontalbar
ENCODING 8213
SWIDTH 1234 0
DWIDTH 11 0
BBX 11 4 0 0
BITMAP
031111111110
6A1111111120
9FFFFFFFFD40
122222222100
ENDCHAR
STARTCHAR quoteleft
ENCODING 8216
SWIDTH 484 0
DWIDTH 4 0
BBX 5 6 0 1
BITMAP
023300
483500
A82010
B80010
BFE500
122000
ENDCHAR
STARTCHAR quoteright
ENCODING 8217
SWIDTH 484 0
DWIDTH 4 0
BBX 5 5 0 2
BITMAP
261110
B81110
9B3310
8EC500
483000
ENDCHAR
STARTCHAR quotesinglbase
ENCODING 8218
SWIDTH 484 0
DWIDTH 4 0
BBX 5 5 0 -2
BITMAP
032200
781110
BC5110
9A1200
9F9100
ENDCHAR
STARTCHAR quotedblleft
ENCODING 8220
SWIDTH 784 0
DWIDTH 7 0
BBX 7 6 0 1
BITMAP
03323320
57486440
C7225220
C7025010
CFEEFE30
12222100
ENDCHAR
STARTCHAR quotedblright
ENCODING 8221
SWIDTH 784 0
DWIDTH 7 0
BBX 7 5 0 2
BITMAP
36124120
C7125120
AA358330
9EADDB30
58268200
ENDCHAR
STARTCHAR quotedblbase
ENCODING 8222
SWIDTH 784 0
DWIDTH 7 0
BBX 7 5 0 -2
BITMAP
03223220
87125120
CB43A430
A9167210
AF9CE700
ENDCHAR
STARTCHAR dagger
ENCODING 8224
SWIDTH 818 0
DWIDTH 7 0
BBX 8 8 0 -1
BITMAP
00441200
02A31211
77113101
CB731761
8AE51A30
00D51100
00E51200
00EF8000
ENDCHAR
STARTCHAR daggerdbl
ENCODING 8225
SWIDTH 818 0
DWIDTH 7 0
BBX 8 8 0 -1
BITMAP
00552210
57112101
BCA31871
58931621
77123201
B8311321
BDF62B60
00EF8000
ENDCHAR
STARTCHAR bullet
ENCODING 8226
SWIDTH 543 0
DWIDTH 5 0
BBX 5 6 0 0
BITMAP
021110
872210
C71110
C72210
CFFD20
122100
ENDCHAR
STARTCHAR ellipsis
ENCODING 8230
SWIDTH 1210 0
DWIDTH 11 0
BBX 11 4 0 -1
BITMAP
032242242210
8810C01B1110
B912D11C3120
AFEAFFAFFB10
ENDCHAR
STARTCHAR perthousand
ENCODING 8240
SWIDTH 1517 0
DWIDTH 14 0
BBX 14 8 0 -1
BITMAP
03332512000000
86346621000000
D6346321210121
DA228141214221
8FFCA181916651
011972B1416331
000C65F547B441
000FD5EFA9FD50
ENDCHAR
STARTCHAR minute
ENCODING 8242
SWIDTH 456 0
DWIDTH 4 0
BBX 4 6 0 1
BITMAP
1612
8921
A921
A802
BFC2
1210
ENDCHAR
STARTCHAR second
ENCODING 8243
SWIDTH 766 0
DWIDTH 7 0
BBX 7 6 0 1
BITMAP
16135120
89246110
A9255110
A8065020
BFDEFB10
12122000
ENDCHAR
STARTCHAR guilsinglleft
ENCODING 8249
SWIDTH 663 0
DWIDTH 6 0
BBX 6 7 0 -1
BITMAP
000111
022111
592361
A91221
9E7411
2ADFC1
000100
ENDCHAR
STARTCHAR guilsinglright
ENCODING 8250
SWIDTH 663 0
DWIDTH 6 0
BBX 6 7 0 -1
BITMAP
021100
4B1121
8E7411
3B3211
6B1351
7FC910
110000
ENDCHAR
STARTCHAR fraction
ENCODING 8260
SWIDTH 417 0
DWIDTH 4 0
BBX 5 8 -1 -1
BITMAP
004320
01E210
04C110
06A110
097110
0C4210
0E4200
1FD200
ENDCHAR
STARTCHAR zero.sups
ENCODING 8304
SWIDTH 656 0
DWIDTH 6 0
BBX 6 6 0 1
BITMAP
022220
742511
A44C11
A43B11
981121
2BDA20
ENDCHAR
STARTCHAR foursuperior
ENCODING 8308
SWIDTH 608 0
DWIDTH 5 0
BBX 6 7 0 0
BITMAP
252511
C63B11
C63811
C92121
AFFA11
019F80
002300
ENDCHAR
STARTCHAR five.sups
ENCODING 8309
SWIDTH 593 0
DWIDTH 5 0
BBX 6 7 0 0
BITMAP
162220
991650
A91111
AD9511
881120
BFFC20
122000
ENDCHAR
STARTCHAR six.sups
ENCODING 8310
SWIDTH 628 0
DWIDTH 6 0
BBX 6 6 0 1
BITMAP
032220
591760
A82111
A91A11
AC2121
5EFC30
ENDCHAR
STARTCHAR seven.sups
ENCODING 8311
SWIDTH 577 0
DWIDTH 5 0
BBX 5 7 0 0
BITMAP
452230
DFD430
272130
3D1530
6D1100
6FB100
120000
ENDCHAR
STARTCHAR eight.sups
ENCODING 8312
SWIDTH 638 0
DWIDTH 6 0
BBX 6 7 0 0
BITMAP
033331
4C1811
7B2222
872B11
CB2121
7FFD40
001000
ENDCHAR
STARTCHAR nine.sups
ENCODING 8313
SWIDTH 628 0
DWIDTH 6 0
BBX 6 7 0 0
BITMAP
022221
672A11
C81121
BF8511
3E0121
4FFD30
022000
ENDCHAR
STARTCHAR parenleft.sups
ENCODING 8317
SWIDTH 434 0
DWIDTH 4 0
BBX 4 7 0 1
BITMAP
0111
4422
B420
B410
B410
B710
5DB2
ENDCHAR
STARTCHAR parenright.sups
ENCODING 8318
SWIDTH 435 0
DWIDTH 4 0
BBX 4 7 0 1
BITMAP
1210
A721
5D11
0D11
0D11
6311
9B40
ENDCHAR
STARTCHAR n.sups
ENCODING 8319
SWIDTH 673 0
DWIDTH 6 0
BBX 6 6 0 1
BITMAP
022221
654A11
953D11
953D11
952D01
8D4DA1
ENDCHAR
STARTCHAR zero.sinf
ENCODING 8320
SWIDTH 656 0
DWIDTH 6 0
BBX 6 6 0 -1
BITMAP
022220
742511
A44C11
A43B11
981121
2BDA20
ENDCHAR
STARTCHAR one.sinf
ENCODING 8321
SWIDTH 557 0
DWIDTH 5 0
BBX 5 7 0 -2
BITMAP
272300
AD5200
4D7200
094220
771220
CFFE40
122100
ENDCHAR
STARTCHAR two.sinf
ENCODING 8322
SWIDTH 585 0
DWIDTH 5 0
BBX 5 7 0 -2
BITMAP
272230
9EB330
382230
962620
D62110
DFFE50
122200
ENDCHAR
STARTCHAR three.sinf
ENCODING 8323
SWIDTH 584 0
DWIDTH 5 0
BBX 6 7 0 -2
BITMAP
262210
BD8210
6E1220
4D9511
671120
CFFC20
122000
ENDCHAR
STARTCHAR four.sinf
ENCODING 8324
SWIDTH 620 0
DWIDTH 6 0
BBX 6 7 0 -2
BITMAP
352511
D54A11
D53811
D82121
BFF911
01AF80
002300
ENDCHAR
STARTCHAR five.sinf
ENCODING 8325
SWIDTH 593 0
DWIDTH 5 0
BBX 6 7 0 -2
BITMAP
162220
991650
A91111
AD9511
881120
BFFC20
122000
ENDCHAR
STARTCHAR six.sinf
ENCODING 8326
SWIDTH 628 0
DWIDTH 6 0
BBX 6 6 0 -1
BITMAP
032220
591760
A82111
A91A11
AC2121
5EFC30
ENDCHAR
STARTCHAR seven.sinf
ENCODING 8327
SWIDTH 577 0
DWIDTH 5 0
BBX 5 7 0 -2
BITMAP
452230
DFD430
272130
3D1530
6D1100
6FB100
120000
ENDCHAR
STARTCHAR eight.sinf
ENCODING 8328
SWIDTH 638 0
DWIDTH 6 0
BBX 6 7 0 -2
BITMAP
033331
4C1811
7B2222
872B11
CB2121
7FFD40
001000
ENDCHAR
STARTCHAR nine.sinf
ENCODING 8329
SWIDTH 628 0
DWIDTH 6 0
BBX 6 7 0 -2
BITMAP
022221
672A11
C81121
BF8511
3E0121
4FFD30
022000
ENDCHAR
STARTCHAR parenleft.sinf
ENCODING 8333
SWIDTH 434 0
DWIDTH 4 0
BBX 4 7 0 -1
BITMAP
0111
4422
B420
B410
B410
B710
5DB2
ENDCHAR
STARTCHAR parenright.sinf
ENCODING 8334
SWIDTH 435 0
DWIDTH 4 0
BBX 4 7 0 -1
BITMAP
1210
A721
5D11
0D11
0D11
6311
9B40
ENDCHAR
STARTCHAR colonsign
ENCODING 8353
SWIDTH 728 0
DWIDTH 7 0
BBX 7 10 0 -2
BITMAP
00023100
00734110
18122110
8915EB10
A8122000
A9112210
AD121110
4FE46310
02EED200
00111000
ENDCHAR
STARTCHAR lira
ENCODING 8356
SWIDTH 795 0
DWIDTH 7 0
BBX 7 8 0 -1
BITMAP
02211200
2A122100
87326000
E6112120
D8237110
FA100110
9B333320
8FFFFE30
ENDCHAR
STARTCHAR naira
ENCODING 8358
SWIDTH 853 0
DWIDTH 8 0
BBX 8 8 0 -1
BITMAP
17114311
9A219311
97211121
E7122013
E4257222
EA15F222
9B14F422
8FC2FF70
ENDCHAR
STARTCHAR peseta
ENCODING 8359
SWIDTH 812 0
DWIDTH 7 0
BBX 8 8 0 -1
BITMAP
16111120
87111211
A325D211
F9113010
CA100110
9A14E600
9B230000
8FD20000
ENDCHAR
STARTCHAR dong
ENCODING 8363
SWIDTH 782 0
DWIDTH 7 0
BBX 7 11 0 -4
BITMAP
00023120
00662320
00CA4130
05233210
962D7110
D6132110
CB222210
5E989300
4D000100
6FFFE300
02221000
ENDCHAR
STARTCHAR Euro
ENCODING 8364
SWIDTH 748 0
DWIDTH 7 0
BBX 7 8 0 -1
BITMAP
01311120
1B122100
78323220
D8126300
B6321100
DB115310
9F643220
2CFFFB10
ENDCHAR
STARTCHAR peso
ENCODING 8369
SWIDTH 812 0
DWIDTH 7 0
BBX 8 8 0 -1
BITMAP
17111110
87111111
C705D102
E4213110
E9211100
9A14E600
9B230000
8FD20000
ENDCHAR
STARTCHAR guarani
ENCODING 8370
SWIDTH 788 0
DWIDTH 7 0
BBX 7 10 0 -2
BITMAP
00021100
00830110
08122110
79138710
A814A300
A9149110
AC112210
6FD30540
06FC8600
00672000
ENDCHAR
STARTCHAR cedi
ENCODING 8373
SWIDTH 728 0
DWIDTH 7 0
BBX 7 10 0 -2
BITMAP
00031100
00831110
18122110
8915EB10
A8122000
A9112210
9D112110
4FE40510
02EFA100
00220000
ENDCHAR
STARTCHAR indianrupee
ENCODING 8377
SWIDTH 713 0
DWIDTH 6 0
BBX 7 8 0 -1
BITMAP
26233210
BC722410
97113110
BC722600
97122100
CFFE1210
124F3210
001FF700
ENDCHAR
STARTCHAR turkishlira
ENCODING 8378
SWIDTH 795 0
DWIDTH 7 0
BBX 9 8 -1 -1
BITMAP
0161200000
0981110000
0A43320000
1F63232200
1E514E1110
1D81251200
0A93335100
0AFFFB3000
ENDCHAR
STARTCHAR ruble
ENCODING 8381
SWIDTH 782 0
DWIDTH 7 0
BBX 7 8 0 -1
BITMAP
16111110
8A122110
9A15C120
9A223130
98129A20
A3214100
FA131000
9FD20000
ENDCHAR
STARTCHAR liter
ENCODING 8467
SWIDTH 749 0
DWIDTH 7 0
BBX 7 9 0 -2
BITMAP
00112200
17121110
88174110
A8122110
A8235400
A9224200
AE421200
3DFFD300
00110000
ENDCHAR
STARTCHAR uni2117
ENCODING 8471
SWIDTH 967 0
DWIDTH 9 0
BBX 9 10 0 -2
BITMAP
0001112000
0235774300
397776B510
9993334710
A993344710
A99336A710
A99355D710
AC4B319410
6FB6457200
06CDDB4000
ENDCHAR
STARTCHAR uni2120
ENCODING 8480
SWIDTH 1003 0
DWIDTH 9 0
BBX 9 6 0 1
BITMAP
0221311210
5647C24220
D922912130
AA7271C620
CB99E7DB40
6763716500
ENDCHAR
STARTCHAR trademark
ENCODING 8482
SWIDTH 1003 0
DWIDTH 9 0
BBX 10 6 -1 1
BITMAP
0121131121
0D84492422
1BF48D1213
01F48D1C62
01FA9E7DB4
0074371650
ENDCHAR
STARTCHAR Omega
ENCODING 8486
SWIDTH 877 0
DWIDTH 8 0
BBX 8 9 0 -2
BITMAP
00111120
07121211
5B12D311
8B12F411
8C11E411
7811A212
C6118111
DFFDFFD3
11101100
ENDCHAR
STARTCHAR estimated
ENCODING 8494
SWIDTH 815 0
DWIDTH 7 0
BBX 8 9 0 -2
BITMAP
00111110
16111210
9815B101
B8211211
B8147751
B9124420
AE421110
3DFFFA10
00111000
ENDCHAR
STARTCHAR onethird
ENCODING 8531
SWIDTH 1269 0
DWIDTH 11 0
BBX 12 8 0 -1
BITMAP
272317220000
AD526B121110
3D7289161210
0942861D8230
7712332E3221
CFFEF23EA611
1224E26A2331
0005FBAFFC20
ENDCHAR
STARTCHAR twothirds
ENCODING 8532
SWIDTH 1269 0
DWIDTH 11 0
BBX 12 8 0 -1
BITMAP
272239220000
9FB33B121110
372279161210
9626761D8220
D610142E3221
DFFFF23EA611
1225E26A2331
0005FBAFFC20
ENDCHAR
STARTCHAR oneeighth
ENCODING 8539
SWIDTH 1283 0
DWIDTH 12 0
BBX 12 8 0 -1
BITMAP
162317220000
AD526B111110
4E7289141120
094286182720
771233292121
CFFEF2454A11
1224E2892231
0005FBAEFB20
ENDCHAR
STARTCHAR threeeighths
ENCODING 8540
SWIDTH 1293 0
DWIDTH 12 0
BBX 12 8 0 -1
BITMAP
262228220000
BF826D111110
6E023A141111
4D9517181821
6711452A2221
CFFCF3353B11
1222F26A3131
0004FC9EFC30
ENDCHAR
STARTCHAR fiveeighths
ENCODING 8541
SWIDTH 1303 0
DWIDTH 12 0
BBX 12 8 0 -1
BITMAP
162226320000
99146E111110
A9111B151211
AD9518181811
8811461A2122
BFFCE4372C11
1221F35B3131
0002FD9EFC30
ENDCHAR
STARTCHAR seveneighths
ENCODING 8542
SWIDTH 1241 0
DWIDTH 11 0
BBX 11 8 0 -1
BITMAP
452247210000
DFE436121110
272144231220
3D15D2445420
6D15D1742220
6FB7A1818530
120992C52220
000BF8DFE800
ENDCHAR
STARTCHAR arrowleft
ENCODING 8592
SWIDTH 1100 0
DWIDTH 10 0
BBX 8 7 1 -1
BITMAP
00002100
00111211
04122111
7E612362
2CFB2660
007FD200
00032000
ENDCHAR
STARTCHAR arrowup
ENCODING 8593
SWIDTH 1100 0
DWIDTH 10 0
BBX 8 8 1 -1
BITMAP
00001000
00051200
00542110
01821220
0A531241
2CEB1750
007C5200
005B7000
ENDCHAR
STARTCHAR arrowright
ENCODING 8594
SWIDTH 1100 0
DWIDTH 10 0
BBX 8 7 1 -1
BITMAP
00161000
01981110
29112211
8C642131
6AD91510
00AC3000
00310000
ENDCHAR
STARTCHAR arrowdown
ENCODING 8595
SWIDTH 1100 0
DWIDTH 10 0
BBX 8 8 1 -1
BITMAP
00011100
00390100
00791210
1C312111
1ED11120
05F81200
00AF5100
00191000
ENDCHAR
STARTCHAR arrowupleft
ENCODING 8598
SWIDTH 1100 0
DWIDTH 10 0
BBX 6 7 2 -1
BITMAP
121110
D42112
E72211
CA1112
9D4D22
5B4E70
000100
ENDCHAR
STARTCHAR arrowupright
ENCODING 8599
SWIDTH 1100 0
DWIDTH 10 0
BBX 6 7 2 -1
BITMAP
001112
360121
CF3211
281111
B92D52
AE4D70
010000
ENDCHAR
STARTCHAR arrowdownright
ENCODING 8600
SWIDTH 1100 0
DWIDTH 10 0
BBX 6 7 2 -1
BITMAP
012021
441311
EE3221
4B1221
7B6421
6ADFF5
000120
ENDCHAR
STARTCHAR arrowdownleft
ENCODING 8601
SWIDTH 1100 0
DWIDTH 10 0
BBX 7 7 1 -1
BITMAP
00210210
02A04120
07922210
0A622120
0D313630
1FECA500
02100000
ENDCHAR
STARTCHAR uni21AA
ENCODING 8618
SWIDTH 1100 0
DWIDTH 10 0
BBX 8 9 1 -2
BITMAP
02233320
39245550
9A1ABA20
9A1C5110
9B133212
8F752222
2ACE5330
000E7100
00050000
ENDCHAR
STARTCHAR uni21AB
ENCODING 8619
SWIDTH 1100 0
DWIDTH 10 0
BBX 8 9 1 -2
BITMAP
03533321
0D955521
09BBBF31
00121F31
02122421
7C321451
5EF71A10
02BF9100
00051000
ENDCHAR
STARTCHAR uni21B0
ENCODING 8624
SWIDTH 1100 0
DWIDTH 10 0
BBX 8 9 1 -2
BITMAP
00001000
00121000
02121110
7A232311
8FD43C11
04DFAD11
00177D01
00006FA1
00000100
ENDCHAR
STARTCHAR uni21B1
ENCODING 8625
SWIDTH 1100 0
DWIDTH 10 0
BBX 8 9 1 -2
BITMAP
00012000
001C3110
00262211
19122312
7B1B4340
8B1C6200
8B050000
8F900000
01000000
ENDCHAR
STARTCHAR uni21B2
ENCODING 8626
SWIDTH 1100 0
DWIDTH 10 0
BBX 8 8 1 -1
BITMAP
00000111
00002B11
00013D11
00213A11
14131111
BE613A40
2BFB3300
006E6000
ENDCHAR
STARTCHAR uni21B3
ENCODING 8627
SWIDTH 1100 0
DWIDTH 10 0
BBX 8 8 1 -1
BITMAP
01100000
68010000
B8171100
B81B2120
AB111302
8FCA2241
057E3400
004C3000
ENDCHAR
STARTCHAR partialdiff
ENCODING 8706
SWIDTH 792 0
DWIDTH 7 0
BBX 7 9 0 -2
BITMAP
01211100
1D211120
2FC96110
08111210
87157210
C7135210
BD211220
5EFDC500
01331000
ENDCHAR
STARTCHAR Delta
ENCODING 8710
SWIDTH 830 0
DWIDTH 7 0
BBX 8 9 0 -2
BITMAP
00211100
06611110
0D216110
2D13B110
5A16E111
98124011
B8111101
BFFFFF80
01111100
ENDCHAR
STARTCHAR product
ENCODING 8719
SWIDTH 859 0
DWIDTH 8 0
BBX 8 9 0 -2
BITMAP
02111111
6A111111
9A13C211
9A13F311
9A12F311
9A12F311
9A02F301
9FD3FF90
01001100
ENDCHAR
STARTCHAR summation
ENCODING 8721
SWIDTH 750 0
DWIDTH 7 0
BBX 7 9 0 -2
BITMAP
03111110
69111110
AB116910
8F911200
0AD21200
03212000
57213220
C9333320
ADDDD900
ENDCHAR
STARTCHAR minus
ENCODING 8722
SWIDTH 834 0
DWIDTH 8 0
BBX 8 4 0 1
BITMAP
01111110
28111101
9C666651
5AAAAA20
ENDCHAR
STARTCHAR uni2215
ENCODING 8725
SWIDTH 417 0
DWIDTH 4 0
BBX 5 8 -1 -1
BITMAP
004320
01E210
04C110
06A110
097110
0C4210
0E4200
1FD200
ENDCHAR
STARTCHAR uni2219
ENCODING 8729
SWIDTH 464 0
DWIDTH 4 0
BBX 4 4 0 1
BITMAP
0322
9711
C813
CFE4
ENDCHAR
STARTCHAR radical
ENCODING 8730
SWIDTH 841 0
DWIDTH 8 0
BBX 8 10 0 -2
BITMAP
00000111
00003811
0000A511
0311D211
B422E110
EC317110
5EA10110
09E21110
03FFE500
00111000
ENDCHAR
STARTCHAR infinity
ENCODING 8734
SWIDTH 978 0
DWIDTH 9 0
BBX 9 7 0 -1
BITMAP
0112122110
4724234210
C71D44D110
C727327110
CB21421210
7FFDFFD500
0110120000
ENDCHAR
STARTCHAR integral
ENCODING 8747
SWIDTH 574 0
DWIDTH 5 0
BBX 7 10 -1 -2
BITMAP
00001100
00141010
00C21410
01F21200
02F21100
02F21100
02F21100
06421100
1F543000
1DC60000
ENDCHAR
STARTCHAR approxequal
ENCODING 8776
SWIDTH 834 0
DWIDTH 8 0
BBX 8 6 0 0
BITMAP
02111110
49111101
9ECDCA40
38223311
7B343231
8CCEFC20
ENDCHAR
STARTCHAR notequal
ENCODING 8800
SWIDTH 834 0
DWIDTH 8 0
BBX 8 8 0 -1
BITMAP
00011100
02151110
5A113101
9EB51860
29421311
8B122211
8FF57F50
02CA1000
ENDCHAR
STARTCHAR lessequal
ENCODING 8804
SWIDTH 814 0
DWIDTH 7 0
BBX 7 9 0 -2
BITMAP
00001110
00212110
19124720
7C127410
7F521110
2C541010
6C111110
7FFFFD20
01111000
ENDCHAR
STARTCHAR greaterequal
ENCODING 8805
SWIDTH 814 0
DWIDTH 7 0
BBX 7 9 0 -2
BITMAP
03220000
4D012210
6FA52210
17CA5210
08111220
6D002420
6D111110
6FFFFE30
01111000
ENDCHAR
STARTCHAR block
ENCODING 9608
SWIDTH 1000 0
DWIDTH 9 0
BBX 11 11 -1 -2
BITMAP
011111111100
5EEEEEEEEE50
5FFFFFFFFF50
5FFFFFFFFF50
5FFFFFFFFF50
5FFFFFFFFF50
5FFFFFFFFF50
5FFFFFFFFF50
5FFFFFFFFF50
5FFFFFFFFF50
388888888830
ENDCHAR
STARTCHAR blacksquare
ENCODING 9632
SWIDTH 1100 0
DWIDTH 10 0
BBX 6 6 2 0
BITMAP
011111
480101
B81111
B81111
BA4443
8CCC80
ENDCHAR
STARTCHAR blackuppointingtriangle
ENCODING 9650
SWIDTH 1100 0
DWIDTH 10 0
BBX 8 6 1 0
BITMAP
00002000
00070100
00642110
01902120
0A644441
1CCCCC40
ENDCHAR
STARTCHAR whiteuppointingtriangle
ENCODING 9651
SWIDTH 1100 0
DWIDTH 10 0
BBX 6 5 3 1
BITMAP
003000
021300
120210
300030
433341
ENDCHAR
STARTCHAR blackrightpointingtriangle
ENCODING 9654
SWIDTH 1100 0
DWIDTH 10 0
BBX 6 7 2 -1
BITMAP
152000
A80110
B82201
B81131
B83610
BB3000
200000
ENDCHAR
STARTCHAR whiterightpointingtriangle
ENCODING 9655
SWIDTH 1100 0
DWIDTH 10 0
BBX 5 6 3 0
BITMAP
330000
303200
300130
300310
323000
210000
ENDCHAR
STARTCHAR blackdownpointingtriangle
ENCODING 9660
SWIDTH 1100 0
DWIDTH 10 0
BBX 7 6 1 0
BITMAP
01211110
1C511110
0DD13020
05F80200
00AF5100
002B2000
ENDCHAR
STARTCHAR whitedownpointingtriangle
ENCODING 9661
SWIDTH 1100 0
DWIDTH 10 0
BBX 5 5 3 1
BITMAP
333330
300030
210120
030300
014100
ENDCHAR
STARTCHAR blackleftpointingtriangle
ENCODING 9664
SWIDTH 1100 0
DWIDTH 10 0
BBX 6 7 2 -1
BITMAP
000012
001101
040221
9E6111
2BFC31
006EE3
000120
ENDCHAR
STARTCHAR whiteleftpointingtriangle
ENCODING 9665
SWIDTH 1100 0
DWIDTH 10 0
BBX 5 6 3 0
BITMAP
000330
023030
310030
131030
003330
000120
ENDCHAR
STARTCHAR blackdiamond
ENCODING 9670
SWIDTH 1100 0
DWIDTH 10 0
BBX 8 7 1 -1
BITMAP
00012100
00111110
03111211
2E702120
1BF70200
01BF6000
00160000
ENDCHAR
STARTCHAR lozenge
ENCODING 9674
SWIDTH 831 0
DWIDTH 7 0
BBX 8 9 0 -2
BITMAP
00211100
03711110
0B215110
3B14E111
8D12B110
6F411110
1EB11110
08FFD300
00110000
ENDCHAR
STARTCHAR uni25D6
ENCODING 9686
SWIDTH 546 0
DWIDTH 5 0
BBX 6 11 0 -2
BITMAP
000010
016CE4
19FFF4
5FFFF4
BFFFF4
DFFFF4
DFFFF4
9FFFF4
2DFFF4
04DFF4
001582
ENDCHAR
STARTCHAR uni25D7
ENCODING 9687
SWIDTH 546 0
DWIDTH 5 0
BBX 6 11 -1 -2
BITMAP
010000
5EC600
5FFF90
5FFFF5
5FFFFA
5FFFFC
5FFFFB
5FFFF7
5FFFD2
5FFD30
375100
ENDCHAR
STARTCHAR uni25DC
ENCODING 9692
SWIDTH 1280 0
DWIDTH 12 0
BBX 11 11 0 -2
BITMAP
000000001110
000027BDEE70
0006EFFFFF80
006EFFFFFF80
02EFFFFFFF80
07FFFFFFFF80
0BFFFFFFFF80
0DFFFFFFFF80
1EFFFFFFFF80
1EFFFFFFFF80
178888888840
ENDCHAR
STARTCHAR uni25DD
ENCODING 9693
SWIDTH 1280 0
DWIDTH 12 0
BBX 11 11 0 -2
BITMAP
011000000000
1DEEC9400000
1EFFFFFB2000
1EFFFFFFC100
1EFFFFFFF800
1EFFFFFFFD10
1EFFFFFFFF40
1EFFFFFFFF60
1EFFFFFFFF70
1EFFFFFFFF80
188888888840
ENDCHAR
STARTCHAR uni25DE
ENCODING 9694
SWIDTH 1280 0
DWIDTH 12 0
BBX 11 11 0 -2
BITMAP
011111111110
1DEEEEEEEE70
1EFFFFFFFF80
1EFFFFFFFF70
1EFFFFFFFF50
1EFFFFFFFE30
1EFFFFFFFC00
1EFFFFFFE500
1EFFFFFE7000
1EFFFEC50000
178753000000
ENDCHAR
STARTCHAR uni25DF
ENCODING 9695
SWIDTH 1280 0
DWIDTH 12 0
BBX 11 11 0 -2
BITMAP
011111111110
1DEEEEEEEE70
1EFFFFFFFF80
0EFFFFFFFF80
0CFFFFFFFF80
09FFFFFFFF80
04FFFFFFFF80
00BFFFFFFF80
002CFFFFFF80
00018DFFFF80
000001467840
ENDCHAR
STARTCHAR uni261A
ENCODING 9754
SWIDTH 1100 0
DWIDTH 10 0
BBX 8 7 1 -1
BITMAP
01111132
65320021
DEE20021
04F50021
01FB8851
00788DD3
00000110
ENDCHAR
STARTCHAR uni261B
ENCODING 9755
SWIDTH 1100 0
DWIDTH 10 0
BBX 8 7 1 -1
BITMAP
03211111
B6200123
D61002B3
D6100300
D6588400
DD886000
11000000
ENDCHAR
STARTCHAR uni261C
ENCODING 9756
SWIDTH 1100 0
DWIDTH 10 0
BBX 7 6 2 0
BITMAP
12332360
53301480
02400380
00510380
00333490
00000110
ENDCHAR
STARTCHAR uni261D
ENCODING 9757
SWIDTH 1100 0
DWIDTH 10 0
BBX 5 8 3 -1
BITMAP
230000
330000
344410
311230
300030
433350
877780
111110
ENDCHAR
STARTCHAR uni261E
ENCODING 9758
SWIDTH 1100 0
DWIDTH 10 0
BBX 7 6 2 0
BITMAP
53133310
84102350
83004200
83005000
94333000
11000000
ENDCHAR
STARTCHAR uni261F
ENCODING 9759
SWIDTH 1100 0
DWIDTH 10 0
BBX 5 7 3 0
BITMAP
788870
433350
300030
300030
253230
003430
000330
ENDCHAR
STARTCHAR uni27A1
ENCODING 10145
SWIDTH 650 0
DWIDTH 6 0
BBX 7 14 -1 -4
BITMAP
0A500000
0DE30000
5EFC1000
5FFF9000
5FFFF600
5FFFFE30
5FFFFF90
5FFFFF60
5FFFFB00
5FFFD200
5FFE4000
3EF70000
0DA00000
04100000
ENDCHAR
STARTCHAR uni2B1B
ENCODING 11035
SWIDTH 1280 0
DWIDTH 12 0
BBX 11 11 0 -2
BITMAP
011111111110
1DEEEEEEEE70
1EFFFFFFFF80
1EFFFFFFFF80
1EFFFFFFFF80
1EFFFFFFFF80
1EFFFFFFFF80
1EFFFFFFFF80
1EFFFFFFFF80
1EFFFFFFFF80
178888888840
ENDCHAR
STARTCHAR uni2B24
ENCODING 11044
SWIDTH 1280 0
DWIDTH 12 0
BBX 11 11 0 -2
BITMAP
000023310000
003AEFED7000
03DFFFFFF900
0BFFFFFFFF40
2EFFFFFFFF90
4FFFFFFFFFC0
3FFFFFFFFFB0
2EFFFFFFFF80
09FFFFFFFE30
01BFFFFFE600
0016BDC93000
ENDCHAR
STARTCHAR A.salt
ENCODING 57600
SWIDTH 836 0
DWIDTH 8 0
BBX 8 9 0 -2
BITMAP
00111210
17111211
7915D111
A914A111
A9211111
A914A111
AA05F101
9FC5FF70
01001100
ENDCHAR
STARTCHAR Agrave.salt
ENCODING 57601
SWIDTH 836 0
DWIDTH 8 0
BBX 8 11 0 -2
BITMAP
01411100
0A821110
0AB75520
17111210
7915D111
A914A111
A9211111
A914A111
AA05F101
9FC5FF70
01001100
ENDCHAR
STARTCHAR Aacute.salt
ENCODING 57602
SWIDTH 836 0
DWIDTH 8 0
BBX 8 11 0 -2
BITMAP
00111110
05811220
0BA56610
18111211
7915D111
A914A111
A9211111
A914A111
AA05F101
9FC5FF70
01001100
ENDCHAR
STARTCHAR Acircumflex.salt
ENCODING 57603
SWIDTH 836 0
DWIDTH 8 0
BBX 8 11 0 -2
BITMAP
00112100
06723110
0CA66620
19111210
7915D111
A914A111
A9211111
A914A111
AA05F101
9FC5FF70
01001100
ENDCHAR
STARTCHAR Atilde.salt
ENCODING 57604
SWIDTH 836 0
DWIDTH 8 0
BBX 8 11 0 -2
BITMAP
00211110
06711010
0CA64420
19111211
7915D111
A914A111
A9211111
A914A111
AA05F101
9FC5FF70
01001100
ENDCHAR
STARTCHAR Adieresis.salt
ENCODING 57605
SWIDTH 836 0
DWIDTH 8 0
BBX 8 11 0 -2
BITMAP
01313110
0C417110
0FA55530
19111210
7915D111
A914A111
A9211111
A914A111
AA05F101
9FC5FF70
01001100
ENDCHAR
STARTCHAR Aring.salt
ENCODING 57606
SWIDTH 836 0
DWIDTH 8 0
BBX 8 11 0 -2
BITMAP
00223100
06636210
0D547220
0A112211
7915D111
A914A111
A9211111
A914A111
AA05F101
9FC5FF70
01001100
ENDCHAR
STARTCHAR Amacron.salt
ENCODING 57607
SWIDTH 836 0
DWIDTH 8 0
BBX 8 11 0 -2
BITMAP
00211110
07711110
0CA44520
18111211
7915D111
A914A111
A9211111
A914A111
AA05F101
9FC5FF70
01001100
ENDCHAR
STARTCHAR Abreve.salt
ENCODING 57608
SWIDTH 836 0
DWIDTH 8 0
BBX 8 11 0 -2
BITMAP
02525210
0C921210
0AB53410
17111211
7915D111
A914A111
A9211111
A914A111
AA05F101
9FC5FF70
01001100
ENDCHAR
STARTCHAR Aogonek.salt
ENCODING 57609
SWIDTH 836 0
DWIDTH 8 0
BBX 8 10 0 -3
BITMAP
00111210
17111211
7915D111
A914A111
A9211111
A914A111
AA05F201
9FC5D231
0105F651
0002BB30
ENDCHAR
STARTCHAR E.salt
ENCODING 57610
SWIDTH 743 0
DWIDTH 7 0
BBX 7 9 0 -2
BITMAP
00111110
07111110
7914A910
A8211100
A8137300
A9124110
9E421120
2DFFFB10
00111000
ENDCHAR
STARTCHAR Egrave.salt
ENCODING 57611
SWIDTH 743 0
DWIDTH 7 0
BBX 7 11 0 -2
BITMAP
02311200
1E521100
1EC86510
06111110
7914A910
A8211100
A8137300
A9124110
9E421120
2DFFFB10
00111000
ENDCHAR
STARTCHAR Eacute.salt
ENCODING 57612
SWIDTH 743 0
DWIDTH 7 0
BBX 7 11 0 -2
BITMAP
00211110
07512210
0DA68510
09111110
7914A910
A8211100
A8137300
A9124110
9E421120
2DFFFB10
00111000
ENDCHAR
STARTCHAR Ecircumflex.salt
ENCODING 57613
SWIDTH 743 0
DWIDTH 7 0
BBX 7 11 0 -2
BITMAP
00112200
08423010
0FA88610
09111110
7914A910
A8211100
A8137300
A9124110
9E421120
2DFFFB10
00111000
ENDCHAR
STARTCHAR Edieresis.salt
ENCODING 57614
SWIDTH 743 0
DWIDTH 7 0
BBX 7 11 0 -2
BITMAP
01223110
1D217110
2FA67520
09111110
7914A910
A8211100
A8137300
A9124110
9E421120
2DFFFB10
00111000
ENDCHAR
STARTCHAR Emacron.salt
ENCODING 57615
SWIDTH 743 0
DWIDTH 7 0
BBX 7 11 0 -2
BITMAP
00211100
08511010
0DA65510
08111110
7914A910
A8211100
A8137300
A9124110
9E421120
2DFFFB10
00111000
ENDCHAR
STARTCHAR Ebreve.salt
ENCODING 57616
SWIDTH 743 0
DWIDTH 7 0
BBX 7 11 0 -2
BITMAP
02425210
0E721210
0CC65410
07111110
7914A910
A8211100
A8137300
A9124110
9E421120
2DFFFB10
00111000
ENDCHAR
STARTCHAR Edotaccent.salt
ENCODING 57617
SWIDTH 743 0
DWIDTH 7 0
BBX 7 11 0 -2
BITMAP
00231100
00D31100
00C75210
06111110
7914A910
A8211100
A8137300
A9124110
9E421120
2DFFFB10
00111000
ENDCHAR
STARTCHAR Eogonek.salt
ENCODING 57618
SWIDTH 743 0
DWIDTH 7 0
BBX 7 10 0 -3
BITMAP
00111110
06111110
7914A910
A8211100
A8137300
A9124110
9E422210
2DFF4220
002F9520
000AB600
ENDCHAR
STARTCHAR Ecaron.salt
ENCODING 57619
SWIDTH 743 0
DWIDTH 7 0
BBX 7 11 0 -2
BITMAP
03521110
0D821210
0BC75410
06111110
7914A910
A8211100
A8137300
A9124110
9E421120
2DFFFB10
00111000
ENDCHAR
STARTCHAR I.salt
ENCODING 57620
SWIDTH 471 0
DWIDTH 4 0
BBX 4 9 0 -2
BITMAP
0211
6A11
9A11
9A11
9A11
9A11
9A01
9FE3
0100
ENDCHAR
STARTCHAR Igrave.salt
ENCODING 57621
SWIDTH 471 0
DWIDTH 4 0
BBX 5 11 0 -2
BITMAP
131110
B72110
CD7720
6A1100
9A1100
9A1100
9A1100
9A1100
9A0100
9FE300
010000
ENDCHAR
STARTCHAR Iacute.salt
ENCODING 57622
SWIDTH 471 0
DWIDTH 4 0
BBX 5 11 0 -2
BITMAP
021110
761220
DC7800
8A1100
9A1100
9A1100
9A1100
9A1100
9A0100
9FE300
010000
ENDCHAR
STARTCHAR Icircumflex.salt
ENCODING 57623
SWIDTH 471 0
DWIDTH 4 0
BBX 5 11 0 -2
BITMAP
022110
B23110
DC8810
6A1100
9A1100
9A1100
9A1100
9A1100
9A0100
9FE300
010000
ENDCHAR
STARTCHAR Idieresis.salt
ENCODING 57624
SWIDTH 471 0
DWIDTH 4 0
BBX 5 11 0 -2
BITMAP
213220
E16210
EB7840
6A1100
9A1100
9A1100
9A1100
9A1100
9A0100
9FE300
010000
ENDCHAR
STARTCHAR Itilde.salt
ENCODING 57625
SWIDTH 471 0
DWIDTH 4 0
BBX 5 11 0 -2
BITMAP
111110
B01110
CB6610
6A1100
9A1100
9A1100
9A1100
9A1100
9A0100
9FE300
010000
ENDCHAR
STARTCHAR Imacron.salt
ENCODING 57626
SWIDTH 471 0
DWIDTH 4 0
BBX 5 11 0 -2
BITMAP
021100
A41010
FC5600
8A1100
9A1100
9A1100
9A1100
9A1100
9A0100
9FE300
010000
ENDCHAR
STARTCHAR Ibreve.salt
ENCODING 57627
SWIDTH 471 0
DWIDTH 4 0
BBX 6 11 -1 -2
BITMAP
052521
3F4111
1FC550
07A110
09A110
09A110
09A110
09A110
09A010
09FE30
001000
ENDCHAR
STARTCHAR Iogonek.salt
ENCODING 57628
SWIDTH 471 0
DWIDTH 4 0
BBX 4 10 0 -3
BITMAP
0211
5B11
8B11
8B11
8B11
8B11
8B11
8924
AC54
5BA1
ENDCHAR
STARTCHAR Idotaccent.salt
ENCODING 57629
SWIDTH 471 0
DWIDTH 4 0
BBX 4 11 0 -2
BITMAP
0412
7A11
9C54
7A11
9A11
9A11
9A11
9A11
9A01
9FE3
0100
ENDCHAR
STARTCHAR L.salt
ENCODING 57630
SWIDTH 715 0
DWIDTH 6 0
BBX 7 9 0 -2
BITMAP
02110000
6A110000
9A110000
9A110000
9A110000
9A111110
9A111120
9FFFFA10
01111000
ENDCHAR
STARTCHAR Lacute.salt
ENCODING 57631
SWIDTH 715 0
DWIDTH 6 0
BBX 7 11 0 -2
BITMAP
01111100
49112200
9C599000
8A110000
9A110000
9A110000
9A110000
9A111110
9A111120
9FFFFA10
01111000
ENDCHAR
STARTCHAR Lcommaaccent.salt
ENCODING 57632
SWIDTH 715 0
DWIDTH 6 0
BBX 7 12 0 -5
BITMAP
02110000
6A110000
9A110000
9A110000
9A110000
9A111110
9A111120
9FF66910
04F12100
04F72100
01FB3000
00520000
ENDCHAR
STARTCHAR Lcaron.salt
ENCODING 57633
SWIDTH 715 0
DWIDTH 6 0
BBX 7 9 0 -2
BITMAP
02112110
6A148110
9A147110
9A14F600
9A110000
9A111110
9A111120
9FFFFA10
01111000
ENDCHAR
STARTCHAR Ldot.salt
ENCODING 57634
SWIDTH 715 0
DWIDTH 6 0
BBX 7 9 0 -2
BITMAP
02110000
6A110000
9A124110
9A147110
9A14FB10
9A113210
9A111120
9FFFFA10
01111000
ENDCHAR
STARTCHAR Lslash.salt
ENCODING 57635
SWIDTH 725 0
DWIDTH 7 0
BBX 7 9 0 -2
BITMAP
02110000
5B110000
8A111000
A3211000
F8122000
BB111110
8C011120
7FFFFB10
01111000
ENDCHAR
STARTCHAR M.salt
ENCODING 57636
SWIDTH 1170 0
DWIDTH 11 0
BBX 11 9 0 -2
BITMAP
001112211100
171112212110
8914A21C1110
A916D12F1110
A916D12F1110
A916D12F1110
AA06D02F1010
9FD8FE7FF700
010011011000
ENDCHAR
STARTCHAR N.salt
ENCODING 57637
SWIDTH 846 0
DWIDTH 8 0
BBX 8 9 0 -2
BITMAP
00111210
07111211
7914C111
A914F211
A914F211
A914F211
AA04F202
9FD4FF80
01001100
ENDCHAR
STARTCHAR Ntilde.salt
ENCODING 57638
SWIDTH 846 0
DWIDTH 8 0
BBX 8 11 0 -2
BITMAP
00111110
06711110
0BA64420
08111211
7914C111
A914F211
A914F211
A914F211
AA04F202
9FD4FF80
01001100
ENDCHAR
STARTCHAR Nacute.salt
ENCODING 57639
SWIDTH 846 0
DWIDTH 8 0
BBX 8 11 0 -2
BITMAP
00111110
04811220
0AA56620
08111211
7914C111
A914F211
A914F211
A914F211
AA04F202
9FD4FF80
01001100
ENDCHAR
STARTCHAR Ncommaaccent.salt
ENCODING 57640
SWIDTH 846 0
DWIDTH 8 0
BBX 8 12 0 -5
BITMAP
00111210
07111211
7914C111
A914F211
A914F211
A914F211
AA04F202
9FE66B80
01C52200
00DA4100
00BD6000
00340000
ENDCHAR
STARTCHAR Ncaron.salt
ENCODING 57641
SWIDTH 846 0
DWIDTH 8 0
BBX 8 11 0 -2
BITMAP
01621120
0BA21210
08B63510
07111211
7914C111
A914F211
A914F211
A914F211
AA04F202
9FD4FF80
01001100
ENDCHAR
STARTCHAR W.salt
ENCODING 57642
SWIDTH 1170 0
DWIDTH 11 0
BBX 11 9 0 -2
BITMAP
031121212110
6914C12D1110
A916D12F1110
A916D12F1110
A916D12F1110
AA2142151110
9E3113211200
3EFECFFD9100
003201310000
ENDCHAR
STARTCHAR Wcircumflex.salt
ENCODING 57643
SWIDTH 1170 0
DWIDTH 11 0
BBX 11 11 0 -2
BITMAP
000012110000
001B03210000
033BC8962110
6914C12D1110
A916D12F1110
A916D12F1110
A916D12F1110
AA2142151110
9E3113211200
3EFECFFD9100
003201310000
ENDCHAR
STARTCHAR Wgrave.salt
ENCODING 57644
SWIDTH 1170 0
DWIDTH 11 0
BBX 11 11 0 -2
BITMAP
000411110000
004E22110000
034BE8752110
6914C12D1110
A916D12F1110
A916D12F1110
A916D12F1110
AA2142151110
9E3113211200
3EFECFFD9100
003201310000
ENDCHAR
STARTCHAR Wacute.salt
ENCODING 57645
SWIDTH 1170 0
DWIDTH 11 0
BBX 11 11 0 -2
BITMAP
000021120000
001B11230000
032BC7932110
6915D12D1110
A916D12F1110
A916D12F1110
A916D12F1110
AA2142151110
9E3113211200
3EFECFFD9100
003201310000
ENDCHAR
STARTCHAR Wdieresis.salt
ENCODING 57646
SWIDTH 1170 0
DWIDTH 11 0
BBX 11 11 0 -2
BITMAP
000313220000
005B16120000
034BC7772110
6915D12D1110
A916D12F1110
A916D12F1110
A916D12F1110
AA2142151110
9E3113211200
3EFECFFD9100
003201310000
ENDCHAR
STARTCHAR X.salt
ENCODING 57647
SWIDTH 837 0
DWIDTH 8 0
BBX 8 9 0 -2
BITMAP
03112120
5E11B110
4F417110
1C121211
79126111
A915F111
A904F201
AFD4FF80
01001100
ENDCHAR
STARTCHAR Y.salt
ENCODING 57648
SWIDTH 806 0
DWIDTH 7 0
BBX 8 9 0 -2
BITMAP
03112120
9714D111
C716E111
C7225111
BC212120
5FF21500
02F30200
01FF9000
00110000
ENDCHAR
STARTCHAR Yacute.salt
ENCODING 57649
SWIDTH 806 0
DWIDTH 7 0
BBX 8 11 0 -2
BITMAP
00111110
06612210
0A6AE620
9714D111
C716E111
C7225111
BC212120
5FF21500
02F30200
01FF9000
00110000
ENDCHAR
STARTCHAR Ycircumflex.salt
ENCODING 57650
SWIDTH 806 0
DWIDTH 7 0
BBX 8 11 0 -2
BITMAP
00112100
07523010
0A6CF620
9714E111
C716E111
C7225111
BC212120
5FF21500
02F30200
01FF9000
00110000
ENDCHAR
STARTCHAR Ydieresis.salt
ENCODING 57651
SWIDTH 806 0
DWIDTH 7 0
BBX 8 11 0 -2
BITMAP
01223110
1D217110
2C6AE620
9715E111
C716E111
C7225111
BC212120
5FF21500
02F30200
01FF9000
00110000
ENDCHAR
STARTCHAR Ygrave.salt
ENCODING 57652
SWIDTH 806 0
DWIDTH 7 0
BBX 8 11 0 -2
BITMAP
02311200
0E621010
0B8CE520
9715E111
C716E111
C7225111
BC212120
5FF21500
02F30200
01FF9000
00110000
ENDCHAR
STARTCHAR AE.salt
ENCODING 57653
SWIDTH 1113 0
DWIDTH 10 0
BBX 10 9 0 -2
BITMAP
0011111111
0611112111
7914C119A3
9914A12111
A921111650
A914A11422
AA05F11111
9FC5FFFFD3
0100111100
ENDCHAR
STARTCHAR IJ.salt
ENCODING 57654
SWIDTH 1133 0
DWIDTH 10 0
BBX 10 9 0 -2
BITMAP
0211000211
6A11005A11
9A11008A11
9A11319A11
9A14818A11
9A14822321
9A04D21112
9FE7FFEC50
0100133000
ENDCHAR
STARTCHAR IJ.stack
ENCODING 57655
SWIDTH 1363 0
DWIDTH 12 0
BBX 12 9 0 -2
BITMAP
031111000211
881210104B11
BE8126007C11
3AB120318C11
08B117917B11
163114922321
A81211E31112
BFFFF8EFEC60
111110033100
ENDCHAR
STARTCHAR quoteleft.salt
ENCODING 57656
SWIDTH 407 0
DWIDTH 4 0
BBX 4 4 0 3
BITMAP
0121
4842
B922
BFA0
ENDCHAR
STARTCHAR quoteright.salt
ENCODING 57657
SWIDTH 407 0
DWIDTH 4 0
BBX 4 4 0 3
BITMAP
0311
8932
AB51
9E50
ENDCHAR
STARTCHAR ampersand.salt
ENCODING 57658
SWIDTH 732 0
DWIDTH 7 0
BBX 7 10 0 -2
BITMAP
00021100
00631110
07122110
3F10A910
4D321100
66147300
D6234110
DB212120
6FF73700
00CD6000
ENDCHAR
STARTCHAR caron.2
ENCODING 57659
SWIDTH 600 0
DWIDTH 5 0
BBX 5 4 0 3
BITMAP
003110
095110
0E4200
1FE400
ENDCHAR
STARTCHAR indexup
ENCODING 57660
SWIDTH 1100 0
DWIDTH 10 0
BBX 6 9 2 -2
BITMAP
021000
4B1000
8A2221
990111
AB0001
8B1112
A40002
FFFFE5
111100
ENDCHAR
STARTCHAR indexdown
ENCODING 57661
SWIDTH 1100 0
DWIDTH 10 0
BBX 6 8 2 -1
BITMAP
131112
D72224
DC0002
790001
A91132
9A5C70
8C2000
7D2000
ENDCHAR
STARTCHAR indexupleft
ENCODING 57662
SWIDTH 1100 0
DWIDTH 10 0
BBX 8 9 1 -2
BITMAP
03310000
1FB11000
08A10100
09310121
4E300201
3EE32010
04EA0100
009E2000
00230000
ENDCHAR
STARTCHAR indexupright
ENCODING 57663
SWIDTH 1100 0
DWIDTH 10 0
BBX 8 9 1 -2
BITMAP
00000121
00002120
00041120
01440021
2B120011
5FC12210
06FC1200
006FA100
00041000
ENDCHAR
STARTCHAR indexdownleft
ENCODING 57664
SWIDTH 1100 0
DWIDTH 10 0
BBX 10 7 0 -1
BITMAP
0000242000
0000B51200
0002101110
0052100431
0539411910
3E7EF81000
0301810000
ENDCHAR
STARTCHAR indexdownright
ENCODING 57665
SWIDTH 1100 0
DWIDTH 10 0
BBX 10 7 0 -1
BITMAP
0001320000
0014121000
0141101100
1C54001110
2CED214911
004EE78F70
0003710300
ENDCHAR
STARTCHAR indexdownleft.outline
ENCODING 57666
SWIDTH 1100 0
DWIDTH 10 0
BBX 9 6 1 0
BITMAP
0000591000
0002449100
0032024A10
0231004510
1445222000
0201420000
ENDCHAR
STARTCHAR indexdownright.outline
ENCODING 57667
SWIDTH 1100 0
DWIDTH 10 0
BBX 9 7 1 0
BITMAP
0000100000
0009500000
0094420000
0942013000
1640013200
0022254310
0002410200
ENDCHAR
STARTCHAR indexupleft.outline
ENCODING 57668
SWIDTH 1100 0
DWIDTH 10 0
BBX 7 8 2 -1
BITMAP
05200000
03330000
05313000
24103410
13004740
02347500
00475000
00140000
ENDCHAR
STARTCHAR indexupright.outline
ENCODING 57669
SWIDTH 1100 0
DWIDTH 10 0
BBX 7 8 2 -1
BITMAP
00002510
00023400
00212500
14301420
38400220
04843200
00484000
00032000
ENDCHAR
STARTCHAR uni261A.salt
ENCODING 57670
SWIDTH 1100 0
DWIDTH 10 0
BBX 8 7 1 -1
BITMAP
01111131
65210031
EEF82021
00BC3151
006E5BC4
000E6550
00010000
ENDCHAR
STARTCHAR uni261B.salt
ENCODING 57671
SWIDTH 1100 0
DWIDTH 10 0
BBX 8 7 1 -1
BITMAP
03111111
A6200123
D61026D3
D6423200
DCBC2000
546E4000
00010000
ENDCHAR
STARTCHAR indexdown.salt
ENCODING 57672
SWIDTH 1100 0
DWIDTH 10 0
BBX 6 8 2 -1
BITMAP
021112
2E4224
3C7002
243211
DEE531
04BE71
000B81
000BB1
ENDCHAR
STARTCHAR indexdownleft.salt
ENCODING 57673
SWIDTH 1100 0
DWIDTH 10 0
BBX 8 7 1 -1
BITMAP
00003210
00068111
00310112
05312092
355C4420
D76CED20
50004300
ENDCHAR
STARTCHAR indexdownright.salt
ENCODING 57674
SWIDTH 1100 0
DWIDTH 10 0
BBX 8 7 1 -1
BITMAP
00121000
02312100
24110110
DCA02111
58B34C61
08CA5CF4
04300140
ENDCHAR
STARTCHAR indexup.salt
ENCODING 57675
SWIDTH 1100 0
DWIDTH 10 0
BBX 6 9 2 -2
BITMAP
031000
591000
A72100
C51232
E70012
CB1130
A40001
FFFF80
111100
ENDCHAR
STARTCHAR indexupleft.salt
ENCODING 57676
SWIDTH 1100 0
DWIDTH 10 0
BBX 8 9 1 -2
BITMAP
02210000
2E711000
1CF30100
02920110
0A810211
1B574020
4A9E1200
004F6000
00010000
ENDCHAR
STARTCHAR indexupright.salt
ENCODING 57677
SWIDTH 1100 0
DWIDTH 10 0
BBX 8 9 1 -2
BITMAP
00000021
00001110
00031210
00570220
06120120
4FB03751
08FB1A40
008E4000
00010000
ENDCHAR
STARTCHAR uni261C.salt
ENCODING 57678
SWIDTH 1100 0
DWIDTH 10 0
BBX 7 6 2 0
BITMAP
13332250
53311480
00340380
00241480
00043240
00020000
ENDCHAR
STARTCHAR uni261D.salt
ENCODING 57679
SWIDTH 1100 0
DWIDTH 10 0
BBX 5 8 3 -1
BITMAP
220000
330000
343000
332530
301130
433600
877820
111100
ENDCHAR
STARTCHAR uni261E.salt
ENCODING 57680
SWIDTH 1100 0
DWIDTH 10 0
BBX 7 6 2 0
BITMAP
43233310
84103350
83043000
84242000
42340000
00020000
ENDCHAR
STARTCHAR uni261F.salt
ENCODING 57681
SWIDTH 1100 0
DWIDTH 10 0
BBX 5 7 3 0
BITMAP
088870
143350
140030
443230
123430
000330
000330
ENDCHAR
STARTCHAR indexdownleft.salt_outline
ENCODING 57682
SWIDTH 1100 0
DWIDTH 10 0
BBX 7 6 2 0
BITMAP
00039200
00243920
02201490
12341430
33334300
30002200
ENDCHAR
STARTCHAR indexdownright.salt_outline
ENCODING 57683
SWIDTH 1100 0
DWIDTH 10 0
BBX 7 6 2 0
BITMAP
01930000
1A442000
94201200
24043210
03433330
02200030
ENDCHAR
STARTCHAR indexupleft.salt_outline
ENCODING 57684
SWIDTH 1100 0
DWIDTH 10 0
BBX 7 8 2 -1
BITMAP
14100000
04220000
00513000
03403200
05204630
23356700
00177000
00010000
ENDCHAR
STARTCHAR indexupright.salt_outline
ENCODING 57685
SWIDTH 1100 0
DWIDTH 10 0
BBX 7 8 2 -1
BITMAP
00001310
00023300
00214100
02303300
27402500
06653320
00672000
00010000
ENDCHAR
STARTCHAR block.v
ENCODING 57687
SWIDTH 1000 0
DWIDTH 9 0
BBX 11 11 -1 -2
BITMAP
011111111100
4FFFFFFFFF40
4FFFFFFFFF40
4FFFFFFFFF40
4FFFFFFFFF40
4FFFFFFFFF40
4FFFFFFFFF40
4FFFFFFFFF40
4FFFFFFFFF40
4FFFFFFFFF40
299999999920
ENDCHAR
STARTCHAR uni25D6.v
ENCODING 57688
SWIDTH 1335 0
DWIDTH 12 0
BBX 10 6 1 0
BITMAP
0038BB8300
06EFFFFE60
3EFFFFFFE3
8FFFFFFFF8
BFFFFFFFFB
4666666665
ENDCHAR
STARTCHAR uni25D7.v
ENCODING 57689
SWIDTH 1335 0
DWIDTH 12 0
BBX 10 6 1 0
BITMAP
ADDDDDDDDA
AFFFFFFFFA
5FFFFFFFF6
1BFFFFFFB1
018EFFEA20
0002442000
ENDCHAR
STARTCHAR uni27A1.w
ENCODING 57690
SWIDTH 650 0
DWIDTH 6 0
BBX 7 14 0 -4
BITMAP
00007800
0005EB00
002DFE30
01BFFF30
08FFFF30
5FFFFF30
BFFFFF30
9FFFFF30
1CFFFF30
03EFFF30
006FFF30
000AFC20
0001CB00
00002300
ENDCHAR
STARTCHAR uni27A1.n
ENCODING 57691
SWIDTH 1000 0
DWIDTH 9 0
BBX 15 7 -3 0
BITMAP
0015555555551000
1BCFFFFFFFFFCB10
09FFFFFFFFFFF900
006EFFFFFFFE6000
0003CFFFFFC30000
000019FFF9100000
0000006A60000000
ENDCHAR
STARTCHAR uni27A1.s
ENCODING 57692
SWIDTH 1000 0
DWIDTH 9 0
BBX 15 7 -3 0
BITMAP
0000001310000000
000003BFB2000000
00005EFFFE500000
0019FFFFFFF81000
02BFFFFFFFFFB200
1DFFFFFFFFFFFD10
056CCCCCCCCC7500
ENDCHAR
STARTCHAR uni2B24.salt
ENCODING 57693
SWIDTH 1280 0
DWIDTH 12 0
BBX 11 11 0 -2
BITMAP
000034320000
006DEFFEA300
09FFFFFFFE40
1EFFFFFFFF80
1EFFFFFFFF80
1EFFFFFFFF80
1EFFFFFFFF80
1EFFFFFFFF80
1DFFFFFFFF70
04DFFFFFE910
0016ACB94000
ENDCHAR
STARTCHAR uni25DD.curve
ENCODING 57694
SWIDTH 1280 0
DWIDTH 12 0
BBX 11 11 0 -2
BITMAP
011111100000
1DEEEEED8100
1EFFFFFFFA00
1EFFFFFFFF40
1EFFFFFFFF70
1EFFFFFFFF80
1EFFFFFFFF80
1EFFFFFFFF80
1EFFFFFFFF80
1EFFFFFFFF80
188888888840
ENDCHAR
STARTCHAR uni2B1B.trapezoid_e
ENCODING 57695
SWIDTH 1280 0
DWIDTH 12 0
BBX 12 11 0 -2
BITMAP
011111111110
1DEEEEEEEEE5
1EFFFFFFFFF3
1EFFFFFFFFE1
1EFFFFFFFFC0
1EFFFFFFFF90
1EFFFFFFFF60
1EFFFFFFFF30
1EFFFFFFFE10
1EFFFFFFFC00
178888888500
ENDCHAR
STARTCHAR uni2B1B.trapezoid_w
ENCODING 57696
SWIDTH 1280 0
DWIDTH 12 0
BBX 11 11 0 -2
BITMAP
111111111110
BEEEEEEEEE80
9FFFFFFFFF80
6FFFFFFFFF80
4FFFFFFFFF80
2EFFFFFFFF80
0CFFFFFFFF80
09FFFFFFFF80
06FFFFFFFF80
03FFFFFFFF80
018888888850
ENDCHAR
STARTCHAR arrowleft.chevron
ENCODING 57697
SWIDTH 1330 0
DWIDTH 12 0
BBX 12 14 0 -4
BITMAP
000015000000
0000A9111111
0008FEEEEEEA
006FFFFFFFF5
04EFFFFFFFD1
2DFFFFFFFF80
AFFFFFFFFE30
6FFFFFFFFF50
09FFFFFFFFB0
01BFFFFFFFE3
002DFFFFFFF8
0003EC888887
000058000000
000001000000
ENDCHAR
STARTCHAR arrowup.chevron
ENCODING 57698
SWIDTH 1280 0
DWIDTH 12 0
BBX 14 14 -1 -4
BITMAP
00000052000000
000008FD400000
0001AFFFE60000
003CFFFFFF9100
04DFFFFFFFFB20
5DFFFFFFFFFEB2
02EFFFFFFFF910
01EFFFFFFFF900
01EFFFFFFFF900
01EFFFFFFFF900
01EFFFFFFFF900
01EFFC68DFF900
01D9300015B800
00100000000100
ENDCHAR
STARTCHAR arrowright.chevron
ENCODING 57699
SWIDTH 1330 0
DWIDTH 12 0
BBX 12 14 0 -4
BITMAP
000000510000
1111119A0000
AEEEEEEF8000
5FFFFFFFF600
1DFFFFFFFE30
08FFFFFFFFD2
03EFFFFFFFFA
05FFFFFFFFF6
0BFFFFFFFF90
3EFFFFFFFB10
8FFFFFFFD200
688888CE3000
000000850000
000000100000
ENDCHAR
STARTCHAR arrowdown.chevron
ENCODING 57700
SWIDTH 1280 0
DWIDTH 12 0
BBX 14 14 -1 -4
BITMAP
00510000003400
01ED93015BE900
01EFFECDFFF900
01EFFFFFFFF900
01EFFFFFFFF900
01EFFFFFFFF900
01EFFFFFFFF900
36EFFFFFFFFA51
2CFFFFFFFFFF91
01AFFFFFFFE700
0008FFFFFD4000
00006EFFC20000
000004DA100000
00000010000000
ENDCHAR
STARTCHAR uni25D6.deco
ENCODING 57701
SWIDTH 560 0
DWIDTH 5 0
BBX 6 12 0 -3
BITMAP
001791
009FE6
09EFF6
3EFFF6
6FFFF6
7FFFF6
6FFFF6
5FFFF6
2DFFF6
03CFF6
005DC3
000340
ENDCHAR
STARTCHAR uni25D7.deco
ENCODING 57702
SWIDTH 560 0
DWIDTH 5 0
BBX 6 12 -1 -3
BITMAP
088100
5EFA00
5FFE90
5FFFF3
5FFFF6
5FFFF7
5FFFF7
5FFFF5
5FFFE2
5FFD40
3CD500
033000
ENDCHAR
STARTCHAR uni25D6.v_deco
ENCODING 57703
SWIDTH 1280 0
DWIDTH 12 0
BBX 12 6 0 0
BITMAP
000134431000
007DFFFEC200
07EFFFFFFB30
6FFFFFFFFFC2
BEFFFFFFFFD4
178888888840
ENDCHAR
STARTCHAR uni25D7.v_deco
ENCODING 57704
SWIDTH 1280 0
DWIDTH 12 0
BBX 12 5 0 1
BITMAP
5EFFFFFFFFA2
BFFFFFFFFFE5
2DFFFFFFFE90
02CFFFFFF700
0028BCCA6000
ENDCHAR
STARTCHAR uni25D6.bevel
ENCODING 57705
SWIDTH 350 0
DWIDTH 3 0
BBX 4 11 0 -2
BITMAP
0011
02A7
1AF8
4FF8
4FF8
4FF8
4FF8
4FF8
3DF8
07E8
0044
ENDCHAR
STARTCHAR uni25D7.bevel
ENCODING 57706
SWIDTH 350 0
DWIDTH 3 0
BBX 4 11 -1 -2
BITMAP
0100
5B30
5FC1
5FF6
5FF6
5FF6
5FF6
5FF6
5FE5
5E90
3500
ENDCHAR
STARTCHAR uni25D6.v_bevel
ENCODING 57707
SWIDTH 1280 0
DWIDTH 12 0
BBX 11 4 0 1
BITMAP
003999997000
04EFFFFFEB00
1CFFFFFFFE70
033333333320
ENDCHAR
STARTCHAR uni25D7.v_bevel
ENCODING 57708
SWIDTH 1280 0
DWIDTH 12 0
BBX 11 4 0 1
BITMAP
19AAAAAAAA50
08FFFFFFFE30
018EEEEEC500
001333332000
ENDCHAR
STARTCHAR uni25D6.spike
ENCODING 57709
SWIDTH 350 0
DWIDTH 3 0
BBX 4 11 0 -2
BITMAP
1321
0CE7
07F8
03E8
0AF8
6FF8
3EF8
05F8
04F8
0AF8
1A94
ENDCHAR
STARTCHAR uni25D7.spike
ENCODING 57710
SWIDTH 350 0
DWIDTH 3 0
BBX 4 11 -1 -2
BITMAP
0231
5ED2
5F90
5F40
5FB1
5FF9
5FE4
5F60
5F60
5FC0
38A3
ENDCHAR
STARTCHAR uni25D6.v_spike
ENCODING 57711
SWIDTH 1280 0
DWIDTH 12 0
BBX 11 4 0 1
BITMAP
120018400030
3D94BFE76CA0
2EFFFFFFFF90
055555555530
ENDCHAR
STARTCHAR uni25D7.v_spike
ENCODING 57712
SWIDTH 1280 0
DWIDTH 12 0
BBX 11 4 0 1
BITMAP
1CDDDDDDDD70
2EECEFFDDF90
38305EB21580
000002100000
ENDCHAR
STARTCHAR uni25D6.square
ENCODING 57713
SWIDTH 350 0
DWIDTH 3 0
BBX 4 11 0 -2
BITMAP
0111
1DE7
1EF8
1EF8
1EF8
1EF8
1EF8
1EF8
1EF8
1EF8
0784
ENDCHAR
STARTCHAR uni25D7.square
ENCODING 57714
SWIDTH 350 0
DWIDTH 3 0
BBX 4 11 -1 -2
BITMAP
0110
5ED3
5FF3
5FF3
5FF3
5FF3
5FF3
5FF3
5FF3
5FF3
3881
ENDCHAR
STARTCHAR uni25D6.v_square
ENCODING 57715
SWIDTH 1280 0
DWIDTH 12 0
BBX 11 4 0 1
BITMAP
067777777730
1EFFFFFFFF80
1EFFFFFFFF80
011111111100
ENDCHAR
STARTCHAR uni25D7.v_square
ENCODING 57716
SWIDTH 1280 0
DWIDTH 12 0
BBX 11 4 0 1
BITMAP
178888888840
1EFFFFFFFF80
1DEEEEEEEE70
011111111100
ENDCHAR
STARTCHAR uni25D6.rounded
ENCODING 57717
SWIDTH 350 0
DWIDTH 3 0
BBX 4 11 0 -2
BITMAP
0001
05D7
0DF8
3EF8
4FF8
4FF8
4FF8
3FF8
2EF8
0AF8
0164
ENDCHAR
STARTCHAR uni25D7.rounded
ENCODING 57718
SWIDTH 350 0
DWIDTH 3 0
BBX 4 11 -1 -2
BITMAP
0100
5D70
5FE2
5FF4
5FF6
5FF6
5FF6
5FF5
5FF3
5FC0
3720
ENDCHAR
STARTCHAR uni25D6.v_rounded
ENCODING 57719
SWIDTH 1280 0
DWIDTH 12 0
BBX 11 4 0 1
BITMAP
003689975200
09EFFFFFFD30
1EFFFFFFFF70
033333333320
ENDCHAR
STARTCHAR uni25D7.v_rounded
ENCODING 57720
SWIDTH 1280 0
DWIDTH 12 0
BBX 11 4 0 1
BITMAP
19AAAAAAAA50
0CFFFFFFFF60
03BEEEEED710
000123320000
ENDCHAR
STARTCHAR uni21AB.arrow
ENCODING 57721
SWIDTH 1000 0
DWIDTH 9 0
BBX 12 18 -1 -9
BITMAP
011100000000
4EEEDB610000
5FFFFFFB1000
5FFFFFFFA000
5FFFFFFFE400
5FFFFFFFF800
5FFFFFFFFC00
5FFFFFFFFD00
5FFFFFFFFE00
5FFFFFFFFE00
2AFFFFFFFE00
36EFFFFFFE53
3DFFFFFFFFD3
03DFFFFFFD30
002DFFFFD200
0002CFFC2000
00002CB20000
000001100000
ENDCHAR
STARTCHAR uni21AC.arrow
ENCODING 57722
SWIDTH 1000 0
DWIDTH 9 0
BBX 12 17 -1 -2
BITMAP
000005500000
00007EE60000
0007FFFE7000
008FFFFFF800
08FFFFFFFF80
5CEFFFFFFEC5
04EFFFFFFE00
4EFFFFFFFE00
5FFFFFFFFE00
5FFFFFFFFD00
5FFFFFFFFC00
5FFFFFFFFA00
5FFFFFFFF600
5FFFFFFFD200
5FFFFFFE6000
5FFFFFC50000
288874100000
ENDCHAR
STARTCHAR uni21AB.v_arrow
ENCODING 57723
SWIDTH 1335 0
DWIDTH 12 0
BBX 17 12 -6 -3
BITMAP
000002111111111110
00003C3BFFFFFFFFC0
0002DFDFFFFFFFFFC0
002DFFFFFFFFFFFFC0
02CFFFFFFFFFFFFFB0
1CFFFFFFFFFFFFFF90
3EFFFFFFFFFFFFFF40
05EFFFFFFFFFFFFA00
006FFFFFFFFFFFB100
0007FFEEEEEDB51000
00008E533321000000
000007200000000000
ENDCHAR
STARTCHAR uni21AC.v_arrow
ENCODING 57724
SWIDTH 1335 0
DWIDTH 12 0
BBX 17 12 1 -3
BITMAP
111111111113000000
BFFFFFFFFC2C300000
BFFFFFFFFFDFD30000
BFFFFFFFFFFFFD2000
AFFFFFFFFFFFFFD200
8FFFFFFFFFFFFFFC20
4EFFFFFFFFFFFFFE30
0AFFFFFFFFFFFFF600
01BFFFFFFFFFFF7000
0015BDEEEEEFF70000
00000123335E800000
000000000028000000
ENDCHAR
STARTCHAR uni25D6.wings
ENCODING 57725
SWIDTH 900 0
DWIDTH 8 0
BBX 9 14 0 -4
BITMAP
02BBBB7000
14FFFFD310
AEFFFFFE60
BFFFFFFF70
BFFFFFFF70
BFFFFFFF70
BFFFFFFF70
BFFFFFFF70
BFFFFFFF70
BFFFFFFF70
BFFFFFFF70
69FFFFFA40
03FFFFB000
0134442000
ENDCHAR
STARTCHAR uni25D7.wings
ENCODING 57726
SWIDTH 900 0
DWIDTH 8 0
BBX 9 14 -1 -4
BITMAP
006BBBB300
03CFFFF510
5EFFFFFEC0
5FFFFFFFD0
5FFFFFFFD0
5FFFFFFFD0
5FFFFFFFD0
5FFFFFFFD0
5FFFFFFFD0
5FFFFFFFD0
5FFFFFFFD0
3AEFFFF970
009FFFF400
0024444100
ENDCHAR
STARTCHAR uni25D6.v_wings
ENCODING 57727
SWIDTH 1280 0
DWIDTH 12 0
BBX 14 9 -1 -1
BITMAP
00444444444200
01EFFFFFFFF800
8BEFFFFFFFFDB3
BFFFFFFFFFFFF4
BFFFFFFFFFFFF4
BFFFFFFFFFFFF4
AFFFFFFFFFFFE3
26FFFFFFFFFC30
02CEEEEEEEE800
ENDCHAR
STARTCHAR uni25D7.v_wings
ENCODING 57728
SWIDTH 1280 0
DWIDTH 12 0
BBX 14 9 -1 -1
BITMAP
01566666666300
03EFFFFFFFF900
6CFFFFFFFFFE92
BFFFFFFFFFFFF4
BFFFFFFFFFFFF4
BFFFFFFFFFFFF4
BFFFFFFFFFFFF3
34EFFFFFFFF931
01BCCCCCCCC700
ENDCHAR
STARTCHAR uni2B1B.chevron_e
ENCODING 57729
SWIDTH 1280 0
DWIDTH 12 0
BBX 12 11 0 -2
BITMAP
111111111100
AEEEEEEEEB00
5FFFFFFFFE30
1DFFFFFFFF90
08FFFFFFFFD1
03EFFFFFFFF5
05FFFFFFFFE3
0BFFFFFFFFC0
3EFFFFFFFF60
8FFFFFFFFD10
788888888600
ENDCHAR
STARTCHAR uni2B1B.chevron_n
ENCODING 57730
SWIDTH 1280 0
DWIDTH 12 0
BBX 11 12 0 -3
BITMAP
00026C940000
04AEFFFFC720
1EFFFFFFFF80
1EFFFFFFFF80
1EFFFFFFFF80
1EFFFFFFFF80
1EFFFFFFFF80
1EFFFFFFFF80
1EFFFFFFFF80
1EFFEBCFFF80
1DD72014AE80
041000000230
ENDCHAR
STARTCHAR uni2B1B.chevron_s
ENCODING 57731
SWIDTH 1280 0
DWIDTH 12 0
BBX 11 12 0 -3
BITMAP
1B6200003970
1EFEA46CFF80
1EFFFFFFFF80
1EFFFFFFFF80
1EFFFFFFFF80
1EFFFFFFFF80
1EFFFFFFFF80
1EFFFFFFFF80
1EFFFFFFFF80
1AEFFFFFFD50
0027DFEA5100
000014200000
ENDCHAR
STARTCHAR uni2B1B.chevron_w
ENCODING 57732
SWIDTH 1280 0
DWIDTH 12 0
BBX 12 11 0 -2
BITMAP
001111111110
04DEEEEEEEE4
09FFFFFFFFD1
2DFFFFFFFF80
6FFFFFFFFE20
BFFFFFFFFB00
9FFFFFFFFD10
4EFFFFFFFF50
0CFFFFFFFFA0
06FFFFFFFFE2
028888888883
ENDCHAR
STARTCHAR uni2B1B.semichevron_e
ENCODING 57733
SWIDTH 650 0
DWIDTH 6 0
BBX 7 11 0 -2
BITMAP
11111100
AEEEEE30
5FFFFF40
1DFFFF40
08FFFF40
03EFFF40
05FFFF40
0BFFFF40
3EFFFF40
8FFFFF40
78888820
ENDCHAR
STARTCHAR uni2B1B.semichevron_w
ENCODING 57734
SWIDTH 650 0
DWIDTH 6 0
BBX 7 11 -1 -2
BITMAP
01111110
5EEEEE90
5FFFFF40
5FFFFC00
5FFFF700
5FFFE200
5FFFF400
5FFFFA00
5FFFFE20
5FFFFF60
38888860
ENDCHAR
STARTCHAR uni2B1B.semichevron_n
ENCODING 57735
SWIDTH 1000 0
DWIDTH 9 0
BBX 11 7 -1 0
BITMAP
120000000210
4EA40004AE40
4FFFC8CFFF40
4FFFFFFFFF40
4FFFFFFFFF40
4FFFFFFFFF40
3DDDDDDDDD30
ENDCHAR
STARTCHAR uni2B1B.semichevron_s
ENCODING 57736
SWIDTH 1000 0
DWIDTH 9 0
BBX 11 7 -1 0
BITMAP
155555555510
4FFFFFFFFF40
4FFFFFFFFF40
4FFFFFFFFF40
4FFFFEFFFF40
4FEB525BEF40
383000003830
ENDCHAR
STARTCHAR space.v
ENCODING 57737
SWIDTH 1000 0
DWIDTH 9 0
BBX 1 1 0 0
BITMAP
00
ENDCHAR
STARTCHAR Agrave.v
ENCODING 57738
SWIDTH 1000 0
DWIDTH 9 0
BBX 7 11 1 -2
BITMAP
00211000
0A311210
1FC87500
08511100
0D112120
59157110
A6211210
D6145110
D609C020
DFA7FE40
11001100
ENDCHAR
STARTCHAR Aacute.v
ENCODING 57739
SWIDTH 1000 0
DWIDTH 9 0
BBX 7 11 1 -2
BITMAP
00011200
04311110
0F868600
0D511100
0D112120
59157110
A6211210
D6145110
D609C020
DFA7FE40
11001100
ENDCHAR
STARTCHAR Acircumflex.v
ENCODING 57740
SWIDTH 1000 0
DWIDTH 9 0
BBX 7 11 1 -2
BITMAP
00011100
04311110
0F89A600
0C511100
0D112120
59157110
A6211210
D6145110
D609C020
DFA7FE40
11001100
ENDCHAR
STARTCHAR Atilde.v
ENCODING 57741
SWIDTH 1000 0
DWIDTH 9 0
BBX 7 11 1 -2
BITMAP
00111100
05312110
1F975400
0C511100
0D112120
59157110
A6211210
D6145110
D609C020
DFA7FE40
11001100
ENDCHAR
STARTCHAR Adieresis.v
ENCODING 57742
SWIDTH 1000 0
DWIDTH 9 0
BBX 7 11 1 -2
BITMAP
00111100
1B025110
4F778510
2C511100
0D112120
59157110
A6211210
D6145110
D609C020
DFA7FE40
11001100
ENDCHAR
STARTCHAR Aring.v
ENCODING 57743
SWIDTH 1000 0
DWIDTH 9 0
BBX 7 11 1 -2
BITMAP
00111100
04323210
1F457210
1F433110
1D122110
68167110
B6211210
D6145110
D60AC020
DFA8FE40
11001100
ENDCHAR
STARTCHAR Amacron.v
ENCODING 57744
SWIDTH 1000 0
DWIDTH 9 0
BBX 7 11 1 -2
BITMAP
00111100
05322110
1F955500
0C511100
0D112120
59157110
A6211210
D6145110
D609C020
DFA7FE40
11001100
ENDCHAR
STARTCHAR Abreve.v
ENCODING 57745
SWIDTH 1000 0
DWIDTH 9 0
BBX 7 11 1 -2
BITMAP
01212100
1C424210
1FC55400
09511100
0D112120
59157110
A6211210
D6145110
D609C020
DFA7FE40
11001100
ENDCHAR
STARTCHAR Aogonek.v
ENCODING 57746
SWIDTH 1000 0
DWIDTH 9 0
BBX 7 10 1 -3
BITMAP
00211100
09322110
1C224110
77145110
C6211210
D6179210
DA59A130
9B589120
000AEB50
00026400
ENDCHAR
STARTCHAR Ccedilla.v
ENCODING 57747
SWIDTH 1000 0
DWIDTH 9 0
BBX 7 9 1 -2
BITMAP
00111110
15111110
B516BB30
D5145300
E5121110
D7112110
AE811540
19F44800
03DB1000
ENDCHAR
STARTCHAR Cacute.v
ENCODING 57748
SWIDTH 1000 0
DWIDTH 9 0
BBX 7 11 1 -2
BITMAP
00011100
03411010
0E968710
0A211110
76236640
D516A800
E5110000
E6211120
CC321120
4EFFFD30
00111000
ENDCHAR
STARTCHAR Ccircumflex.v
ENCODING 57749
SWIDTH 1000 0
DWIDTH 9 0
BBX 7 11 1 -2
BITMAP
00011100
03411110
0E99A620
0A211110
76236640
D516A800
E5110000
E6211120
CC321120
4EFFFD30
00111000
ENDCHAR
STARTCHAR Cdotaccent.v
ENCODING 57750
SWIDTH 1000 0
DWIDTH 9 0
BBX 7 11 1 -2
BITMAP
00021000
00A21100
02F75210
04211110
76236640
D516A800
E5110000
E6211120
CC321120
4EFFFD30
00111000
ENDCHAR
STARTCHAR Ccaron.v
ENCODING 57751
SWIDTH 1000 0
DWIDTH 9 0
BBX 7 11 1 -2
BITMAP
00321110
0B511010
0EE76610
05211110
76236640
D516A800
E5110000
E6211120
CC321120
4EFFFD30
00111000
ENDCHAR
STARTCHAR Dcaron.v
ENCODING 57752
SWIDTH 1000 0
DWIDTH 9 0
BBX 7 11 1 -2
BITMAP
01211200
0C312110
1EC76500
56111120
D6144210
D618C110
D616C110
D6123210
D6111220
DFFFE500
11110000
ENDCHAR
STARTCHAR Egrave.v
ENCODING 57753
SWIDTH 1000 0
DWIDTH 9 0
BBX 7 11 1 -2
BITMAP
00211000
0A311210
1EB87510
56111110
D6147740
D6234310
D6135400
D6135320
D6111120
DFFFFD30
11111000
ENDCHAR
STARTCHAR Eacute.v
ENCODING 57754
SWIDTH 1000 0
DWIDTH 9 0
BBX 7 11 1 -2
BITMAP
00011200
04311110
1E768610
56111110
D6147740
D6234310
D6135400
D6135320
D6111120
DFFFFD30
11111000
ENDCHAR
STARTCHAR Ecircumflex.v
ENCODING 57755
SWIDTH 1000 0
DWIDTH 9 0
BBX 7 11 1 -2
BITMAP
00011100
04311110
1E79A610
56111110
D6147740
D6234310
D6135400
D6135320
D6111120
DFFFFD30
11111000
ENDCHAR
STARTCHAR Edieresis.v
ENCODING 57756
SWIDTH 1000 0
DWIDTH 9 0
BBX 7 11 1 -2
BITMAP
00111100
1B125010
4E678520
66111110
D6147740
D6234310
D6135400
D6135320
D6111120
DFFFFD30
11111000
ENDCHAR
STARTCHAR Emacron.v
ENCODING 57757
SWIDTH 1000 0
DWIDTH 9 0
BBX 7 11 1 -2
BITMAP
00111100
05322110
1E755510
56111110
D6147740
D6234310
D6135400
D6135320
D6111120
DFFFFD30
11111000
ENDCHAR
STARTCHAR Ebreve.v
ENCODING 57758
SWIDTH 1000 0
DWIDTH 9 0
BBX 7 11 1 -2
BITMAP
01212100
1C424210
1EA55410
56111110
D6147740
D6234310
D6135400
D6135320
D6111120
DFFFFD30
11111000
ENDCHAR
STARTCHAR Edotaccent.v
ENCODING 57759
SWIDTH 1000 0
DWIDTH 9 0
BBX 7 11 1 -2
BITMAP
00021000
01B11100
03D65210
55111110
D6147740
D6234310
D6135400
D6135320
D6111120
DFFFFD30
11111000
ENDCHAR
STARTCHAR Eogonek.v
ENCODING 57760
SWIDTH 1000 0
DWIDTH 9 0
BBX 7 10 1 -3
BITMAP
03111110
A6211110
D6159930
D6211110
D616A710
D6211210
D9553130
9BBE8120
000BEA30
00026400
ENDCHAR
STARTCHAR Ecaron.v
ENCODING 57761
SWIDTH 1000 0
DWIDTH 9 0
BBX 7 11 1 -2
BITMAP
01211200
0C312110
1EC76510
56111110
D6147740
D6234310
D6135400
D6135320
D6111120
DFFFFD30
11111000
ENDCHAR
STARTCHAR Gcircumflex.v
ENCODING 57762
SWIDTH 1000 0
DWIDTH 9 0
BBX 7 11 1 -2
BITMAP
00011100
04311110
1F99A610
0B211110
86136510
D517B510
E514A110
E6223110
CC321120
4DFFFE40
00111100
ENDCHAR
STARTCHAR Gbreve.v
ENCODING 57763
SWIDTH 1000 0
DWIDTH 9 0
BBX 7 11 1 -2
BITMAP
01212100
1C424210
1FC65400
08211110
86136510
D517B510
E514A110
E6223110
CC321120
4DFFFE40
00111100
ENDCHAR
STARTCHAR Gdotaccent.v
ENCODING 57764
SWIDTH 1000 0
DWIDTH 9 0
BBX 7 11 1 -2
BITMAP
00021000
01B11100
03F75200
04211110
86136510
D517B510
E514A110
E6223110
CC321120
4DFFFE40
00111100
ENDCHAR
STARTCHAR Gcommaaccent.v
ENCODING 57765
SWIDTH 1000 0
DWIDTH 9 0
BBX 7 11 1 -4
BITMAP
00111110
25111110
B516B810
D5148220
E516A110
D8111210
AE865540
18E33810
03F62100
01E84000
01A70000
ENDCHAR
STARTCHAR Hcircumflex.v
ENCODING 57766
SWIDTH 1000 0
DWIDTH 9 0
BBX 7 11 1 -2
BITMAP
00011100
04311110
1E7AB610
5607B010
D619B110
D6211210
D6112110
D619B110
D609B020
DFB9FE40
11001100
ENDCHAR
STARTCHAR Igrave.v
ENCODING 57767
SWIDTH 1000 0
DWIDTH 9 0
BBX 7 11 1 -2
BITMAP
00211000
0A311210
1EB87510
47112110
CA601540
7CF01700
04F01100
15401120
B7111120
BFFFFD30
11111000
ENDCHAR
STARTCHAR Iacute.v
ENCODING 57768
SWIDTH 1000 0
DWIDTH 9 0
BBX 7 11 1 -2
BITMAP
00011200
04311110
1E768610
57112110
CA601540
7CF01700
04F01100
15401120
B7111120
BFFFFD30
11111000
ENDCHAR
STARTCHAR Icircumflex.v
ENCODING 57769
SWIDTH 1000 0
DWIDTH 9 0
BBX 7 11 1 -2
BITMAP
00011100
04311110
1E79A610
57112110
CA601540
7CF01700
04F01100
15401120
B7111120
BFFFFD30
11111000
ENDCHAR
STARTCHAR Idieresis.v
ENCODING 57770
SWIDTH 1000 0
DWIDTH 9 0
BBX 7 11 1 -2
BITMAP
00111100
1B125010
4E678520
67112110
CA601540
7CF01700
04F01100
15401120
B7111120
BFFFFD30
11111000
ENDCHAR
STARTCHAR Itilde.v
ENCODING 57771
SWIDTH 1000 0
DWIDTH 9 0
BBX 7 11 1 -2
BITMAP
00111100
05312110
1E775510
57112110
CA601540
7CF01700
04F01100
15401120
B7111120
BFFFFD30
11111000
ENDCHAR
STARTCHAR Imacron.v
ENCODING 57772
SWIDTH 1000 0
DWIDTH 9 0
BBX 7 11 1 -2
BITMAP
00111100
05322110
1E755510
57112110
CA601540
7CF01700
04F01100
15401120
B7111120
BFFFFD30
11111000
ENDCHAR
STARTCHAR Ibreve.v
ENCODING 57773
SWIDTH 1000 0
DWIDTH 9 0
BBX 7 11 1 -2
BITMAP
01212100
1C424210
1EA55410
47112110
CA601540
7CF01700
04F01100
15401120
B7111120
BFFFFD30
11111000
ENDCHAR
STARTCHAR Iogonek.v
ENCODING 57774
SWIDTH 1000 0
DWIDTH 9 0
BBX 7 10 1 -3
BITMAP
03111110
97112110
CDB01930
37F01300
04E01210
46112210
CA553130
8BBE8120
000BEA40
00026400
ENDCHAR
STARTCHAR Idotaccent.v
ENCODING 57775
SWIDTH 1000 0
DWIDTH 9 0
BBX 7 11 1 -2
BITMAP
00021000
01B11100
03D65210
46112110
CA601540
7CF01700
04F01100
15401120
B7111120
BFFFFD30
11111000
ENDCHAR
STARTCHAR Jcircumflex.v
ENCODING 57776
SWIDTH 1000 0
DWIDTH 9 0
BBX 7 11 1 -2
BITMAP
00011100
00611120
03F8B950
0286A010
0009B110
031AB110
A61AB110
D6233210
CC211120
4EFDC500
01330000
ENDCHAR
STARTCHAR Kcommaaccent.v
ENCODING 57777
SWIDTH 1000 0
DWIDTH 9 0
BBX 7 11 1 -4
BITMAP
03112110
A6173120
D6141110
D6212210
D6156210
D619B110
D95AD540
9BC33810
03F62100
01E84000
01A70000
ENDCHAR
STARTCHAR Lacute.v
ENCODING 57778
SWIDTH 1000 0
DWIDTH 9 0
BBX 7 11 1 -2
BITMAP
00111000
35110100
D9697000
C6030000
D6110000
D6112110
D614B110
D6124110
D6111120
DFFFFE40
11111100
ENDCHAR
STARTCHAR Lcommaaccent.v
ENCODING 57779
SWIDTH 1000 0
DWIDTH 9 0
BBX 7 11 1 -4
BITMAP
03110000
A6110000
D6110000
D6115120
D616C110
D6211210
D9555540
9BE33810
03F62100
01E84000
01A70000
ENDCHAR
STARTCHAR Lcaron.v
ENCODING 57780
SWIDTH 1000 0
DWIDTH 9 0
BBX 7 9 1 -2
BITMAP
03111220
A613C110
D616C120
D618E830
D615C110
D6124110
D6111120
DFFFFE40
11111100
ENDCHAR
STARTCHAR Ntilde.v
ENCODING 57781
SWIDTH 1000 0
DWIDTH 9 0
BBX 7 11 1 -2
BITMAP
00111100
05312110
1E797510
5617C010
D6216110
D6111110
D6151210
D6198210
D609C020
DFB7FE40
11001100
ENDCHAR
STARTCHAR Nacute.v
ENCODING 57782
SWIDTH 1000 0
DWIDTH 9 0
BBX 7 11 1 -2
BITMAP
00011200
04311110
1E78A610
5616B010
D6216110
D6111110
D6151210
D6198210
D609C020
DFB7FE40
11001100
ENDCHAR
STARTCHAR Ncommaaccent.v
ENCODING 57783
SWIDTH 1000 0
DWIDTH 9 0
BBX 7 11 1 -4
BITMAP
03112110
A622B110
D6122110
D6112110
D6182310
D619B110
D959D540
9BC33810
03F62100
01E84000
01A70000
ENDCHAR
STARTCHAR Ncaron.v
ENCODING 57784
SWIDTH 1000 0
DWIDTH 9 0
BBX 7 11 1 -2
BITMAP
01211200
0C312110
1EC98510
5616B010
D6216110
D6111110
D6151210
D6198210
D609C020
DFB7FE40
11001100
ENDCHAR
STARTCHAR Ograve.v
ENCODING 57785
SWIDTH 1000 0
DWIDTH 9 0
BBX 7 11 1 -2
BITMAP
00211000
0A311210
1FC75500
07111120
86245110
D518C110
E517C110
E6224110
DC211120
5EFDC600
01331000
ENDCHAR
STARTCHAR Oacute.v
ENCODING 57786
SWIDTH 1000 0
DWIDTH 9 0
BBX 7 11 1 -2
BITMAP
00011200
04311110
1F856600
0A111120
86245110
D518C110
E517C110
E6224110
DC211120
5EFDC600
01331000
ENDCHAR
STARTCHAR Ocircumflex.v
ENCODING 57787
SWIDTH 1000 0
DWIDTH 9 0
BBX 7 11 1 -2
BITMAP
00011100
04311110
1F888600
1A111120
86245110
D518C110
E517C110
E6224110
DC211120
5EFDC600
01331000
ENDCHAR
STARTCHAR Otilde.v
ENCODING 57788
SWIDTH 1000 0
DWIDTH 9 0
BBX 7 11 1 -2
BITMAP
00111100
05312110
1F854400
0A111120
86245110
D518C110
E517C110
E6224110
DC211120
5EFDC600
01331000
ENDCHAR
STARTCHAR Odieresis.v
ENCODING 57789
SWIDTH 1000 0
DWIDTH 9 0
BBX 7 11 1 -2
BITMAP
00111100
1B125010
4F767510
2A111120
86245110
D518C110
E517C110
E6224110
DC211120
5EFDC600
01331000
ENDCHAR
STARTCHAR Omacron.v
ENCODING 57790
SWIDTH 1000 0
DWIDTH 9 0
BBX 7 11 1 -2
BITMAP
00111100
05322110
1F844500
0A111120
86245110
D518C110
E517C110
E6224110
DC211120
5EFDC600
01331000
ENDCHAR
STARTCHAR Obreve.v
ENCODING 57791
SWIDTH 1000 0
DWIDTH 9 0
BBX 7 11 1 -2
BITMAP
01212100
1C424210
1FC43400
07111120
86245110
D518C110
E517C110
E6224110
DC211120
5EFDC600
01331000
ENDCHAR
STARTCHAR Ohungarumlaut.v
ENCODING 57792
SWIDTH 1000 0
DWIDTH 9 0
BBX 7 12 1 -2
BITMAP
00010100
02618120
0A53A110
0E878510
1A111120
86245110
D518C110
E517C110
E6224110
DC211120
5EFDC600
01331000
ENDCHAR
STARTCHAR Racute.v
ENCODING 57793
SWIDTH 1000 0
DWIDTH 9 0
BBX 7 11 1 -2
BITMAP
00011100
06211100
3E578500
66111110
D6142110
D6153220
D6212210
D617A110
D608D020
DFB7FE50
11001100
ENDCHAR
STARTCHAR Rcommaaccent.v
ENCODING 57794
SWIDTH 1000 0
DWIDTH 9 0
BBX 7 11 1 -4
BITMAP
03111100
A6211110
D6174110
D6232220
D6112110
D619C110
D958E550
9BC33910
03F62100
01E84000
01A70000
ENDCHAR
STARTCHAR Rcaron.v
ENCODING 57795
SWIDTH 1000 0
DWIDTH 9 0
BBX 7 11 1 -2
BITMAP
01211200
0C312110
1EC76500
56111110
D6142110
D6153220
D6212210
D617A110
D608D020
DFB7FE50
11001100
ENDCHAR
STARTCHAR Sacute.v
ENCODING 57796
SWIDTH 1000 0
DWIDTH 9 0
BBX 7 11 1 -2
BITMAP
00011200
04311110
1F868610
0A111110
86147730
D6222220
CD532210
5A664210
B6111220
DFFFE600
11110000
ENDCHAR
STARTCHAR Scircumflex.v
ENCODING 57797
SWIDTH 1000 0
DWIDTH 9 0
BBX 7 11 1 -2
BITMAP
00011100
04311110
1F89A610
0A111110
86147730
D6222220
CD532210
5A664210
B6111220
DFFFE600
11110000
ENDCHAR
STARTCHAR Scedilla.v
ENCODING 57798
SWIDTH 1000 0
DWIDTH 9 0
BBX 7 9 1 -2
BITMAP
00111110
26111110
B6148A20
D8111120
BFB85110
46222210
D9512510
9CC35200
07D80000
ENDCHAR
STARTCHAR Scaron.v
ENCODING 57799
SWIDTH 1000 0
DWIDTH 9 0
BBX 7 11 1 -2
BITMAP
01211200
0C312110
1FD76510
06111110
86147730
D6222220
CD532210
5A664210
B6111220
DFFFE600
11110000
ENDCHAR
STARTCHAR Scommaaccent.v
ENCODING 57800
SWIDTH 1000 0
DWIDTH 9 0
BBX 7 11 1 -4
BITMAP
00111110
26111110
B6148A20
D8111120
BFB85110
46222210
D9555510
9BE33200
03F62100
01E84000
01A70000
ENDCHAR
STARTCHAR Tcommaaccent.v
ENCODING 57801
SWIDTH 1000 0
DWIDTH 9 0
BBX 7 10 1 -3
BITMAP
03111110
A6112110
DDB01940
47F01300
04F01100
04F21100
03F44100
02F62100
02E74000
01C90000
ENDCHAR
STARTCHAR Tcaron.v
ENCODING 57802
SWIDTH 1000 0
DWIDTH 9 0
BBX 7 11 1 -2
BITMAP
01211200
0C312110
1EC76510
56112110
DA601540
8CF01710
04F01100
04F01100
04F00100
03FF8000
00110000
ENDCHAR
STARTCHAR Ugrave.v
ENCODING 57803
SWIDTH 1000 0
DWIDTH 9 0
BBX 7 11 1 -2
BITMAP
00211000
0A311210
1EBA8510
5607C010
D618C110
D618C110
D618B110
D6223210
CC211220
4EFDC500
01330000
ENDCHAR
STARTCHAR Uacute.v
ENCODING 57804
SWIDTH 1000 0
DWIDTH 9 0
BBX 7 11 1 -2
BITMAP
00011100
03511010
0C879710
5606B010
D618C110
D618C110
D618B110
D6223210
CC211220
4EFDC500
01330000
ENDCHAR
STARTCHAR Ucircumflex.v
ENCODING 57805
SWIDTH 1000 0
DWIDTH 9 0
BBX 7 11 1 -2
BITMAP
00011100
04311110
1E7AB610
5606C010
D618C110
D618C110
D618B110
D6223210
CC211220
4EFDC500
01330000
ENDCHAR
STARTCHAR Udieresis.v
ENCODING 57806
SWIDTH 1000 0
DWIDTH 9 0
BBX 7 11 1 -2
BITMAP
00111100
1B125010
4E68A520
6607C010
D618C110
D618C110
D618B110
D6223210
CC211220
4EFDC500
01330000
ENDCHAR
STARTCHAR Utilde.v
ENCODING 57807
SWIDTH 1000 0
DWIDTH 9 0
BBX 7 11 1 -2
BITMAP
00111100
05312110
1E787510
5608C010
D618C110
D618C110
D618B110
D6223210
CC211220
4EFDC500
01330000
ENDCHAR
STARTCHAR Umacron.v
ENCODING 57808
SWIDTH 1000 0
DWIDTH 9 0
BBX 7 11 1 -2
BITMAP
00111100
05322110
1E777510
5607C010
D618C110
D618C110
D618B110
D6223210
CC211220
4EFDC500
01330000
ENDCHAR
STARTCHAR Ubreve.v
ENCODING 57809
SWIDTH 1000 0
DWIDTH 9 0
BBX 7 11 1 -2
BITMAP
01212100
1C424210
1EA77410
5607C010
D618C110
D618C110
D618B110
D6223210
CC211220
4EFDC500
01330000
ENDCHAR
STARTCHAR Uring.v
ENCODING 57810
SWIDTH 1000 0
DWIDTH 9 0
BBX 7 12 1 -2
BITMAP
00233200
0B446110
2F434210
1EA77410
5607C010
D618C110
D618C110
D618B110
D6223210
CC211220
4EFDC500
01330000
ENDCHAR
STARTCHAR Uhungarumlaut.v
ENCODING 57811
SWIDTH 1000 0
DWIDTH 9 0
BBX 7 12 1 -2
BITMAP
00010100
01618120
0A53A110
0D79B520
5607C010
D618C110
D618C110
D618B110
D6223210
CC211220
4EFDC500
01330000
ENDCHAR
STARTCHAR Uogonek.v
ENCODING 57812
SWIDTH 1000 0
DWIDTH 9 0
BBX 7 10 1 -3
BITMAP
03112110
A615B110
D618C110
D618C110
D618B110
D7112210
AE722510
2AF31200
01FC9100
00562000
ENDCHAR
STARTCHAR Wcircumflex.v
ENCODING 57813
SWIDTH 1000 0
DWIDTH 9 0
BBX 9 11 0 -2
BITMAP
0000111000
0043111100
01E7BB6200
08306E3110
1F313B3210
1F31212210
1F41110200
0F61352100
0DA16A1200
09FCAFB100
0010010000
ENDCHAR
STARTCHAR Wgrave.v
ENCODING 57814
SWIDTH 1000 0
DWIDTH 9 0
BBX 9 11 0 -2
BITMAP
0002110000
00A3112100
01EBA85200
08308E3110
1F313B3210
1F31212210
1F41110200
0F61352100
0DA16A1200
09FCAFB100
0010010000
ENDCHAR
STARTCHAR Wacute.v
ENCODING 57815
SWIDTH 1000 0
DWIDTH 9 0
BBX 9 11 0 -2
BITMAP
0000111000
0034110100
00D78A7100
08306C3110
1F313B3210
1F31212210
1F41110200
0F61352100
0DA16A1200
09FCAFB100
0010010000
ENDCHAR
STARTCHAR Wdieresis.v
ENCODING 57816
SWIDTH 1000 0
DWIDTH 9 0
BBX 9 11 0 -2
BITMAP
0002111000
00A1261100
03E68B6200
08308E3110
1F313B3210
1F31212210
1F41110200
0F61352100
0DA16A1200
09FCAFB100
0010010000
ENDCHAR
STARTCHAR Yacute.v
ENCODING 57817
SWIDTH 1000 0
DWIDTH 9 0
BBX 7 11 1 -2
BITMAP
00011100
03511010
0C879710
5506C010
D618C110
D9124220
AF422110
1ED01200
05F10100
03FF8000
00110000
ENDCHAR
STARTCHAR Ycircumflex.v
ENCODING 57818
SWIDTH 1000 0
DWIDTH 9 0
BBX 7 11 1 -2
BITMAP
00011100
04311110
1E7AB610
6606C010
D618C110
D9124220
AF422110
1ED01200
05F10100
03FF8000
00110000
ENDCHAR
STARTCHAR Ydieresis.v
ENCODING 57819
SWIDTH 1000 0
DWIDTH 9 0
BBX 7 11 1 -2
BITMAP
00211100
1A125010
3E68A520
6607C010
D618C110
D9124220
AF422110
1ED01200
05F10100
03FF8000
00110000
ENDCHAR
STARTCHAR Ygrave.v
ENCODING 57820
SWIDTH 1000 0
DWIDTH 9 0
BBX 7 11 1 -2
BITMAP
00211000
0A311210
1EBA8510
5607C010
D618C110
D9124220
AF422110
1ED01200
05F10100
03FF8000
00110000
ENDCHAR
STARTCHAR Zacute.v
ENCODING 57821
SWIDTH 1000 0
DWIDTH 9 0
BBX 7 11 1 -2
BITMAP
00011100
03511010
0C868710
46111110
CA650210
8AB42110
02221100
46202120
D6111120
DFFFFE40
11111100
ENDCHAR
STARTCHAR Zdotaccent.v
ENCODING 57822
SWIDTH 1000 0
DWIDTH 9 0
BBX 7 11 1 -2
BITMAP
00021000
01B11100
03D65210
46111110
CA650210
8AB42110
02221100
46202120
D6111120
DFFFFE40
11111100
ENDCHAR
STARTCHAR Zcaron.v
ENCODING 57823
SWIDTH 1000 0
DWIDTH 9 0
BBX 7 11 1 -2
BITMAP
01321200
0C411010
0EC76510
46111110
CA650210
8AB42110
02221100
46202120
D6111120
DFFFFE40
11111100
ENDCHAR
STARTCHAR AE.v
ENCODING 57824
SWIDTH 1000 0
DWIDTH 9 0
BBX 8 9 0 -2
BITMAP
00021111
00A11211
04924146
0A427211
1F221235
2F217122
2F21D111
2FFBFFE5
01101110
ENDCHAR
STARTCHAR Eth.v
ENCODING 57825
SWIDTH 1000 0
DWIDTH 9 0
BBX 8 9 0 -2
BITMAP
00311110
0A621112
0D617811
1C130A11
6E214A11
3E613321
0D611122
0DFFFD40
01111000
ENDCHAR
STARTCHAR Oslash.v
ENCODING 57826
SWIDTH 1000 0
DWIDTH 9 0
BBX 7 10 1 -2
BITMAP
00000110
01212010
26112220
B6192110
D6154110
D6128110
D6225110
DC121220
7D6AC500
5B530000
ENDCHAR
STARTCHAR Thorn.v
ENCODING 57827
SWIDTH 1000 0
DWIDTH 9 0
BBX 7 9 1 -2
BITMAP
03110000
A6111110
D6211120
D618B110
D6145110
D6211120
D608D600
DFB20000
11000000
ENDCHAR
STARTCHAR Dcroat.v
ENCODING 57828
SWIDTH 1000 0
DWIDTH 9 0
BBX 8 9 0 -2
BITMAP
00311110
0A621112
0D617811
1C130A11
6E214A11
3E613321
0D611122
0DFFFD40
01111000
ENDCHAR
STARTCHAR Hbar.v
ENCODING 57829
SWIDTH 1000 0
DWIDTH 9 0
BBX 9 9 0 -2
BITMAP
0031121100
0A41371110
2D02113110
5F51681210
1E62112100
0D61341100
0D609C0200
0DFB8FE400
0110011000
ENDCHAR
STARTCHAR IJ.v
ENCODING 57830
SWIDTH 1000 0
DWIDTH 9 0
BBX 7 9 1 -2
BITMAP
03112110
A616B110
D619B110
D609B110
DFB9B110
26232210
C6111210
DFFFE400
11110000
ENDCHAR
STARTCHAR Ldot.v
ENCODING 57831
SWIDTH 1000 0
DWIDTH 9 0
BBX 7 11 1 -4
BITMAP
03110000
A6110000
D6110000
D6115120
D616C110
D6211210
D9555540
9BD63810
00F41200
00FF9000
00010000
ENDCHAR
STARTCHAR Lslash.v
ENCODING 57832
SWIDTH 1000 0
DWIDTH 9 0
BBX 8 9 0 -2
BITMAP
00211000
0A611000
0D511100
0D231312
2F418D11
1E612411
0D611111
0DFFFFE4
01111110
ENDCHAR
STARTCHAR Eng.v
ENCODING 57833
SWIDTH 1000 0
DWIDTH 9 0
BBX 7 9 1 -2
BITMAP
00111200
15111120
A6157110
D619B110
D619B110
D619B110
D6071210
DFED3410
115DA200
ENDCHAR
STARTCHAR OE.v
ENCODING 57834
SWIDTH 1000 0
DWIDTH 9 0
BBX 9 9 0 -2
BITMAP
0011111100
0341121110
0D31A13700
1F31D21110
1F31D12500
1F42311200
0EB2221110
05EFFFF600
0001111000
ENDCHAR
STARTCHAR Tbar.v
ENCODING 57835
SWIDTH 1000 0
DWIDTH 9 0
BBX 7 8 1 -1
BITMAP
25111120
C6122210
DDB01A40
5C723400
3F801720
2DF01300
03F21100
03FF6000
ENDCHAR
STARTCHAR Germandbls.v
ENCODING 57836
SWIDTH 1000 0
DWIDTH 9 0
BBX 7 9 1 -2
BITMAP
03111100
A6211110
D6172110
D6192120
D6198110
D6184210
D6071220
DFEFF700
11010000
ENDCHAR
STARTCHAR A.salt_v
ENCODING 57837
SWIDTH 1000 0
DWIDTH 9 0
BBX 7 9 1 -2
BITMAP
01111210
26111120
B618A110
D6168110
D6211210
D6168110
D609C020
DFA7FE40
11001100
ENDCHAR
STARTCHAR Agrave.salt_v
ENCODING 57838
SWIDTH 1000 0
DWIDTH 9 0
BBX 7 11 1 -2
BITMAP
00211000
0A311210
1FC75500
07111120
86145110
D618A110
D6211210
D6156110
D609C020
DFA7FE40
11001100
ENDCHAR
STARTCHAR Aacute.salt_v
ENCODING 57839
SWIDTH 1000 0
DWIDTH 9 0
BBX 7 11 1 -2
BITMAP
00011200
04311110
1F856600
0A111120
86145110
D618A110
D6211210
D6156110
D609C020
DFA7FE40
11001100
ENDCHAR
STARTCHAR Acircumflex.salt_v
ENCODING 57840
SWIDTH 1000 0
DWIDTH 9 0
BBX 7 11 1 -2
BITMAP
00011100
04311110
1F888600
0A111120
86145110
D618A110
D6211210
D6156110
D609C020
DFA7FE40
11001100
ENDCHAR
STARTCHAR Atilde.salt_v
ENCODING 57841
SWIDTH 1000 0
DWIDTH 9 0
BBX 7 11 1 -2
BITMAP
00111100
05312110
1F854400
0A111120
86145120
D618A110
D6211210
D6156110
D609C020
DFA7FE40
11001100
ENDCHAR
STARTCHAR Adieresis.salt_v
ENCODING 57842
SWIDTH 1000 0
DWIDTH 9 0
BBX 7 11 1 -2
BITMAP
00111100
1B125010
4F767510
2A111120
86145110
D618A110
D6211210
D6156110
D609C020
DFA7FE40
11001100
ENDCHAR
STARTCHAR Aring.salt_v
ENCODING 57843
SWIDTH 1000 0
DWIDTH 9 0
BBX 7 11 1 -2
BITMAP
00111100
05423210
1F457210
2B133120
86145110
D618A110
D6211210
D6156110
D609C020
DFA8FE40
11001100
ENDCHAR
STARTCHAR Amacron.salt_v
ENCODING 57844
SWIDTH 1000 0
DWIDTH 9 0
BBX 7 11 1 -2
BITMAP
00111100
05322110
1F844500
0A111120
86145120
D618A110
D6211210
D6156110
D609C020
DFA7FE40
11001100
ENDCHAR
STARTCHAR Abreve.salt_v
ENCODING 57845
SWIDTH 1000 0
DWIDTH 9 0
BBX 7 11 1 -2
BITMAP
01212100
1C424210
1FC43400
07111120
86145110
D618A110
D6211210
D6156110
D609C020
DFA7FE40
11001100
ENDCHAR
STARTCHAR Aogonek.salt_v
ENCODING 57846
SWIDTH 1000 0
DWIDTH 9 0
BBX 7 10 1 -3
BITMAP
00111200
04111120
86255110
D619A110
D6211210
D6156110
D609B110
DFA89240
1109D540
0005BA10
ENDCHAR
STARTCHAR E.salt_v
ENCODING 57847
SWIDTH 1000 0
DWIDTH 9 0
BBX 7 9 1 -2
BITMAP
00111110
15111110
B516AA30
D5211110
E5147500
E6224220
CC321120
3DFFFD30
00111000
ENDCHAR
STARTCHAR Egrave.salt_v
ENCODING 57848
SWIDTH 1000 0
DWIDTH 9 0
BBX 7 11 1 -2
BITMAP
00211000
0A311210
1FD97510
07211110
76237740
D5234310
E5135400
E6225320
CC321120
4EFFFD30
00111000
ENDCHAR
STARTCHAR Eacute.salt_v
ENCODING 57849
SWIDTH 1000 0
DWIDTH 9 0
BBX 7 11 1 -2
BITMAP
00011200
04311110
1F878610
0A211110
76237740
D5234310
E5135400
E6225320
CC321120
4EFFFD30
00111000
ENDCHAR
STARTCHAR Ecircumflex.salt_v
ENCODING 57850
SWIDTH 1000 0
DWIDTH 9 0
BBX 7 11 1 -2
BITMAP
00011100
04311110
1F99A610
0B211110
76237740
D5234310
E5135400
E6225320
CC321120
4EFFFD30
00111000
ENDCHAR
STARTCHAR Edieresis.salt_v
ENCODING 57851
SWIDTH 1000 0
DWIDTH 9 0
BBX 7 11 1 -2
BITMAP
00111100
1B125010
4F778520
2A211110
76237740
D5234310
D5135400
D6225320
CD321120
4EFFFD30
00111000
ENDCHAR
STARTCHAR Emacron.salt_v
ENCODING 57852
SWIDTH 1000 0
DWIDTH 9 0
BBX 7 11 1 -2
BITMAP
00111100
05322110
1F965510
0A211110
76237740
D5234310
E5135400
E6225320
CC321120
4EFFFD30
00111000
ENDCHAR
STARTCHAR Ebreve.salt_v
ENCODING 57853
SWIDTH 1000 0
DWIDTH 9 0
BBX 7 11 1 -2
BITMAP
01212100
1C424210
1FC65410
07211110
76237740
D5234310
E5135400
E6225320
CC321120
4EFFFD30
00111000
ENDCHAR
STARTCHAR Edotaccent.salt_v
ENCODING 57854
SWIDTH 1000 0
DWIDTH 9 0
BBX 7 11 1 -2
BITMAP
00021000
01B11100
03F75210
04211110
76237740
D5234310
E5135400
E6225320
CC321120
4EFFFD30
00111000
ENDCHAR
STARTCHAR Eogonek.salt_v
ENCODING 57855
SWIDTH 1000 0
DWIDTH 9 0
BBX 7 10 1 -3
BITMAP
00111110
15111110
B5159930
D5211110
E516A710
D8111210
AE863130
18BE8120
000BEA30
00026400
ENDCHAR
STARTCHAR Ecaron.salt_v
ENCODING 57856
SWIDTH 1000 0
DWIDTH 9 0
BBX 7 11 1 -2
BITMAP
01211200
0C312110
1FE76510
06211110
76237740
D5234310
E5135400
E6225320
CC321120
4EFFFD30
00111000
ENDCHAR
STARTCHAR I.salt_v
ENCODING 57857
SWIDTH 1000 0
DWIDTH 9 0
BBX 5 9 2 -2
BITMAP
022110
1D1110
3F1110
3F1110
3F1110
3F1110
3F1010
3FF700
011000
ENDCHAR
STARTCHAR I_I.salt_v
ENCODING 57858
SWIDTH 1000 0
DWIDTH 9 0
BBX 7 9 1 -2
BITMAP
03112110
A616B110
D619B110
D619B110
D619B110
D619B110
D609B020
DFB9FE40
11001100
ENDCHAR
STARTCHAR Igrave.salt_v
ENCODING 57859
SWIDTH 1000 0
DWIDTH 9 0
BBX 7 11 1 -2
BITMAP
00211000
0A311210
1FD97500
04E10200
03F11100
03F11100
03F11100
03F11100
03F10100
03FF7000
00110000
ENDCHAR
STARTCHAR Iacute.salt_v
ENCODING 57860
SWIDTH 1000 0
DWIDTH 9 0
BBX 7 11 1 -2
BITMAP
00011200
04311110
1F878500
09F10100
03F11100
03F11100
03F11100
03F11100
03F10100
03FF7000
00110000
ENDCHAR
STARTCHAR Icircumflex.salt_v
ENCODING 57861
SWIDTH 1000 0
DWIDTH 9 0
BBX 7 11 1 -2
BITMAP
00011100
04311110
1F99A600
09E10200
03F11100
03F11100
03F11100
03F11100
03F10100
03FF7000
00110000
ENDCHAR
STARTCHAR Idieresis.salt_v
ENCODING 57862
SWIDTH 1000 0
DWIDTH 9 0
BBX 7 11 1 -2
BITMAP
00111100
1B125010
4F778610
29F10200
03F11100
03F11100
03F11100
03F11100
03F10100
03FF7000
00110000
ENDCHAR
STARTCHAR Itilde.salt_v
ENCODING 57863
SWIDTH 1000 0
DWIDTH 9 0
BBX 7 11 1 -2
BITMAP
00111100
05312110
1F975400
09E10100
03F11100
03F11100
03F11100
03F11100
03F10100
03FF7000
00110000
ENDCHAR
STARTCHAR Imacron.salt_v
ENCODING 57864
SWIDTH 1000 0
DWIDTH 9 0
BBX 7 11 1 -2
BITMAP
00111100
05322110
1F965500
09F10100
03F11100
03F11100
03F11100
03F11100
03F10100
03FF7000
00110000
ENDCHAR
STARTCHAR Ibreve.salt_v
ENCODING 57865
SWIDTH 1000 0
DWIDTH 9 0
BBX 7 11 1 -2
BITMAP
01212100
1C424210
1FC65300
05F10100
03F11100
03F11100
03F11100
03F11100
03F10100
03FF7000
00110000
ENDCHAR
STARTCHAR Iogonek.salt_v
ENCODING 57866
SWIDTH 1000 0
DWIDTH 9 0
BBX 5 10 2 -3
BITMAP
001100
092010
2F2110
2F2110
2F2110
2F2110
2F2010
2E2310
4F6510
2BB400
ENDCHAR
STARTCHAR Idotaccent.salt_v
ENCODING 57867
SWIDTH 1000 0
DWIDTH 9 0
BBX 5 11 2 -2
BITMAP
002100
1B1110
3F7510
1F1010
3F1110
3F1110
3F1110
3F1110
3F1010
3FF700
011000
ENDCHAR
STARTCHAR L.salt_v
ENCODING 57868
SWIDTH 1000 0
DWIDTH 9 0
BBX 7 9 1 -2
BITMAP
03110000
A6110000
D6110000
D6110000
D6110000
D6111120
D6111120
DFFFFD30
11111000
ENDCHAR
STARTCHAR Lacute.salt_v
ENCODING 57869
SWIDTH 1000 0
DWIDTH 9 0
BBX 7 11 1 -2
BITMAP
00111000
35110100
D9697000
B6030000
D6110000
D6110000
D6110000
D6111120
D6111120
DFFFFD30
11111000
ENDCHAR
STARTCHAR Lcommaaccent.salt_v
ENCODING 57870
SWIDTH 1000 0
DWIDTH 9 0
BBX 7 11 1 -4
BITMAP
03110000
A6110000
D6110000
D6110000
D6121110
D6211110
DA555540
9BE33800
03F62100
01E84000
01A70000
ENDCHAR
STARTCHAR Lcaron.salt_v
ENCODING 57871
SWIDTH 1000 0
DWIDTH 9 0
BBX 8 9 1 -2
BITMAP
03110211
A6117711
D611D511
D611EE50
D6110000
D6111120
D6111120
DFFFFD30
11111000
ENDCHAR
STARTCHAR Ldot.salt_v
ENCODING 57872
SWIDTH 1000 0
DWIDTH 9 0
BBX 7 11 1 -4
BITMAP
03110000
A6110000
D6110000
D6110000
D6121110
D6211110
DA555540
9BB36800
09A12000
09FD3000
00100000
ENDCHAR
STARTCHAR Lslash.salt_v
ENCODING 57873
SWIDTH 1000 0
DWIDTH 9 0
BBX 8 9 0 -2
BITMAP
00211000
0A611000
0D511100
1C031100
6E314000
2E611112
0D611112
0DFFFFD3
01111100
ENDCHAR
STARTCHAR L.salt_s_v
ENCODING 57874
SWIDTH 1000 0
DWIDTH 9 0
BBX 7 9 1 -2
BITMAP
01110000
55010000
D6110000
D6110000
D6110000
D6111120
D6111120
DFFFFD30
11111000
ENDCHAR
STARTCHAR M.salt_v
ENCODING 57875
SWIDTH 1000 0
DWIDTH 9 0
BBX 9 9 0 -2
BITMAP
0021221200
0822221110
3E14326110
5E15428110
5E15428110
5E15428110
5E06428020
4FDFEDF900
0101111000
ENDCHAR
STARTCHAR N.salt_v
ENCODING 57876
SWIDTH 1000 0
DWIDTH 9 0
BBX 7 9 1 -2
BITMAP
01111210
26111120
B6178110
D619B110
D619B110
D619B110
D609B020
DFB9FE40
11001100
ENDCHAR
STARTCHAR Ntilde.salt_v
ENCODING 57877
SWIDTH 1000 0
DWIDTH 9 0
BBX 7 11 1 -2
BITMAP
00111100
05312110
1F854400
0A111120
86234210
D619B110
D619B110
D619B110
D609B020
DFB9FE40
11001100
ENDCHAR
STARTCHAR Nacute.salt_v
ENCODING 57878
SWIDTH 1000 0
DWIDTH 9 0
BBX 7 11 1 -2
BITMAP
00011200
04311110
1F856600
0A111120
86234210
D619B110
D619B110
D619B110
D609B020
DFB9FE40
11001100
ENDCHAR
STARTCHAR Ncommaaccent.salt_v
ENCODING 57879
SWIDTH 1000 0
DWIDTH 9 0
BBX 7 10 1 -3
BITMAP
00111210
15111120
A6167110
D619B110
D619B110
D71AC120
CFF44C30
02F62100
02E74000
01C91000
ENDCHAR
STARTCHAR Ncaron.salt_v
ENCODING 57880
SWIDTH 1000 0
DWIDTH 9 0
BBX 7 11 1 -2
BITMAP
01211200
0C312110
1FD54500
06111120
86234210
D619B110
D619B110
D619B110
D609B020
DFB9FE40
11001100
ENDCHAR
STARTCHAR W.salt_v
ENCODING 57881
SWIDTH 1000 0
DWIDTH 9 0
BBX 9 9 0 -2
BITMAP
0212223110
2D15428110
5E15428110
5E15428110
5E15428110
5F12222110
4F51221110
0CFDEFB200
0021120000
ENDCHAR
STARTCHAR Wcircumflex.salt_v
ENCODING 57882
SWIDTH 1000 0
DWIDTH 9 0
BBX 9 11 0 -2
BITMAP
0000111000
0043111100
01D8AA7200
1A05418010
5E15428110
5E15428110
5E15428110
5F12222110
4F51221110
1DFDEFB200
0021120000
ENDCHAR
STARTCHAR Wgrave.salt_v
ENCODING 57883
SWIDTH 1000 0
DWIDTH 9 0
BBX 9 11 0 -2
BITMAP
0002110000
00A3112100
01DC976200
1A05418010
5E15428110
5E15428110
5E15428110
5F12222110
4F51221110
1DFDEFB200
0021120000
ENDCHAR
STARTCHAR Wacute.salt_v
ENCODING 57884
SWIDTH 1000 0
DWIDTH 9 0
BBX 9 11 0 -2
BITMAP
0000112000
0043111100
01D8786100
1A05417010
5E15428110
5E15428110
5E15428110
5F12222110
4F51221110
1DFDEFB200
0021120000
ENDCHAR
STARTCHAR Wdieresis.salt_v
ENCODING 57885
SWIDTH 1000 0
DWIDTH 9 0
BBX 9 11 0 -2
BITMAP
0001111000
01B1250100
04D7886200
1A05418010
5E15428110
5E15428110
5E15428110
5F12222110
4F51221110
1DFDEFB200
0021120000
ENDCHAR
STARTCHAR X.salt_v
ENCODING 57886
SWIDTH 1100 0
DWIDTH 10 0
BBX 8 9 1 -2
BITMAP
02111211
2E21B111
1F617110
0C121211
4C116111
7C12F411
7C01F502
7FE4EFA1
01101100
ENDCHAR
STARTCHAR Y.salt_v
ENCODING 57887
SWIDTH 1000 0
DWIDTH 9 0
BBX 7 9 1 -2
BITMAP
03112110
A616B110
D619B110
D6234210
CC112120
6FF01500
04F10100
03FF8000
00110000
ENDCHAR
STARTCHAR Yacute.salt_v
ENCODING 57888
SWIDTH 1000 0
DWIDTH 9 0
BBX 7 11 1 -2
BITMAP
00011200
04311110
1E78A610
5606B010
D619B110
D6156110
DA112120
8FD01500
06F10100
03FF8000
00110000
ENDCHAR
STARTCHAR Ycircumflex.salt_v
ENCODING 57889
SWIDTH 1000 0
DWIDTH 9 0
BBX 7 11 1 -2
BITMAP
00011100
04311110
1E7AB610
5606B010
D619B110
D6156110
DA112120
8FD01500
06F10100
03FF8000
00110000
ENDCHAR
STARTCHAR Ydieresis.salt_v
ENCODING 57890
SWIDTH 1000 0
DWIDTH 9 0
BBX 7 11 1 -2
BITMAP
00111100
1B125010
4E68A520
6608B010
D619B110
D6156110
DA112120
8FD01500
06F10100
03FF8000
00110000
ENDCHAR
STARTCHAR Ygrave.salt_v
ENCODING 57891
SWIDTH 1000 0
DWIDTH 9 0
BBX 7 11 1 -2
BITMAP
00211000
0A311210
1EBA8510
5607B010
D619B110
D6156110
DA112120
8FD01500
06F10100
03FF8000
00110000
ENDCHAR
STARTCHAR AE.salt_v
ENCODING 57892
SWIDTH 1000 0
DWIDTH 9 0
BBX 9 9 0 -2
BITMAP
0011111100
0241121110
0D31A13700
1F31921110
1F33122500
1F31911200
1F31E11110
1FFAFFF600
0110111000
ENDCHAR
STARTCHAR IJ.salt_v
ENCODING 57893
SWIDTH 1000 0
DWIDTH 9 0
BBX 7 16 1 -5
BITMAP
00011000
00910100
03F11100
03F11100
03F11100
03F11100
03F10100
03FF8110
00139010
0008B110
0319B110
A61AB110
D7233210
CC211120
4EFDC500
01330000
ENDCHAR
STARTCHAR IJ.stack_v
ENCODING 57894
SWIDTH 1000 0
DWIDTH 9 0
BBX 7 15 1 -5
BITMAP
25222220
B8212220
BFF01A20
04F01100
04901210
87112110
CDBBBA30
4556A220
0008B110
0119B110
660AB110
D6166110
CA111120
8FC99610
04774000
ENDCHAR
STARTCHAR commaaccent.v
ENCODING 57895
SWIDTH 1000 0
DWIDTH 9 0
BBX 5 5 2 -5
BITMAP
022110
2E4210
2F7310
1FD200
010000
ENDCHAR
STARTCHAR hyphen.v
ENCODING 57896
SWIDTH 1000 0
DWIDTH 9 0
BBX 5 5 2 0
BITMAP
033110
1F3110
1F3110
1FC600
055000
ENDCHAR
STARTCHAR endash.v
ENCODING 57897
SWIDTH 1000 0
DWIDTH 9 0
BBX 5 7 2 -1
BITMAP
053210
1F2110
1F2110
1F2110
1F2110
1FA600
077100
ENDCHAR
STARTCHAR emdash.v
ENCODING 57898
SWIDTH 1000 0
DWIDTH 9 0
BBX 5 11 2 -3
BITMAP
033110
1E2110
1F2110
1F2110
1F2110
1F2110
1F2110
1F2110
1F2110
1FC600
044000
ENDCHAR
STARTCHAR parenleft.v
ENCODING 57899
SWIDTH 1000 0
DWIDTH 9 0
BBX 11 5 -1 0
BITMAP
002211111200
064211111200
0E22ABBB3110
2FC6666FD700
054000045000
ENDCHAR
STARTCHAR parenright.v
ENCODING 57900
SWIDTH 1000 0
DWIDTH 9 0
BBX 11 5 -1 0
BITMAP
043200024110
1F3211131110
1F7111111200
0CFCBBBB8100
014555540000
ENDCHAR
STARTCHAR bracketleft.v
ENCODING 57901
SWIDTH 1000 0
DWIDTH 9 0
BBX 11 5 -1 0
BITMAP
043111111110
1F2211111110
2F22BBBB3110
2FC6666ED700
054000045000
ENDCHAR
STARTCHAR bracketright.v
ENCODING 57902
SWIDTH 1000 0
DWIDTH 9 0
BBX 11 5 -1 0
BITMAP
043200024110
1F3111131110
2F2211111110
2FCBBBBBB700
055555555000
ENDCHAR
STARTCHAR braceleft.v
ENCODING 57903
SWIDTH 1000 0
DWIDTH 9 0
BBX 11 5 -1 0
BITMAP
001212112100
024112212200
0D3157951110
2F9699BFA610
198000088100
ENDCHAR
STARTCHAR braceright.v
ENCODING 57904
SWIDTH 1000 0
DWIDTH 9 0
BBX 11 6 -1 0
BITMAP
001100001100
072111133010
2F3211311110
0FB211112200
08FFFB9E7000
000077000000
ENDCHAR
STARTCHAR quoteleft.v
ENCODING 57905
SWIDTH 1000 0
DWIDTH 9 0
BBX 5 6 2 0
BITMAP
013210
1B1610
5D1110
6D0010
6FFA00
022000
ENDCHAR
STARTCHAR quoteright.v
ENCODING 57906
SWIDTH 1000 0
DWIDTH 9 0
BBX 5 5 2 0
BITMAP
181110
6D1110
4E3220
3FC800
286000
ENDCHAR
STARTCHAR quotedblleft.v
ENCODING 57907
SWIDTH 1000 0
DWIDTH 9 0
BBX 7 6 1 0
BITMAP
03323320
66496440
C6225120
D6024010
CFEEFD30
12122100
ENDCHAR
STARTCHAR quotedblright.v
ENCODING 57908
SWIDTH 1000 0
DWIDTH 9 0
BBX 7 5 1 0
BITMAP
35124120
D6134120
B9358330
AEADDB30
58268200
ENDCHAR
STARTCHAR quotesinglbase.v
ENCODING 57909
SWIDTH 1000 0
DWIDTH 9 0
BBX 5 5 2 0
BITMAP
022210
3C1110
6F6210
4F1210
4FC300
ENDCHAR
STARTCHAR quotedblbase.v
ENCODING 57910
SWIDTH 1000 0
DWIDTH 9 0
BBX 7 5 1 0
BITMAP
35124120
D6134120
B9358330
AEADDB30
58268200
ENDCHAR
STARTCHAR guilsinglleft.v
ENCODING 57911
SWIDTH 1000 0
DWIDTH 9 0
BBX 7 6 1 0
BITMAP
00011100
01511200
0B422210
0F236110
3F69B620
3A77A400
ENDCHAR
STARTCHAR guilsinglright.v
ENCODING 57912
SWIDTH 1000 0
DWIDTH 9 0
BBX 7 6 1 0
BITMAP
00111100
1A036010
5F324110
2F522200
0DC44200
06CC5000
ENDCHAR
STARTCHAR guillemotleft.v
ENCODING 57913
SWIDTH 1000 0
DWIDTH 9 0
BBX 7 8 1 -1
BITMAP
00111100
03612200
0B324110
1F68A520
3BA11300
09422210
0E369220
3EBAE800
ENDCHAR
STARTCHAR guillemotright.v
ENCODING 57914
SWIDTH 1000 0
DWIDTH 9 0
BBX 7 8 1 -1
BITMAP
01111110
2D225110
2F622200
0DC55300
1C147010
4F421200
0EB22200
08FF8000
ENDCHAR
STARTCHAR period.v
ENCODING 57915
SWIDTH 1000 0
DWIDTH 9 0
BBX 5 4 2 1
BITMAP
022210
3C0110
6D1120
5FF900
ENDCHAR
STARTCHAR comma.v
ENCODING 57916
SWIDTH 1000 0
DWIDTH 9 0
BBX 5 5 2 0
BITMAP
022210
3C1110
6F6210
4F1210
4FC300
ENDCHAR
STARTCHAR ellipsis.v
ENCODING 57917
SWIDTH 1000 0
DWIDTH 9 0
BBX 11 4 -1 1
BITMAP
032242233210
7910C01A2110
AA12D11B3120
9FFAFFAFFC20
ENDCHAR
STARTCHAR exclamdown.v
ENCODING 57918
SWIDTH 1000 0
DWIDTH 9 0
BBX 5 8 2 -1
BITMAP
071110
4E0110
4F9810
1E1110
3F0110
4F0110
4E2120
4FF800
ENDCHAR
STARTCHAR questiondown.v
ENCODING 57919
SWIDTH 1000 0
DWIDTH 9 0
BBX 7 8 1 -1
BITMAP
00061200
00890100
00AD7500
02421100
58103400
A8148310
AD421120
4DFFFC30
ENDCHAR
STARTCHAR dagger.v
ENCODING 57920
SWIDTH 1000 0
DWIDTH 9 0
BBX 7 8 1 -1
BITMAP
00621100
04A11220
A4113110
E9822850
AAF32B10
01F21100
02F31100
02FF6000
ENDCHAR
STARTCHAR daggerdbl.v
ENCODING 57921
SWIDTH 1000 0
DWIDTH 9 0
BBX 7 8 1 -1
BITMAP
01732210
75112110
EBA22A70
68A22720
95123210
E6311330
DDF42D40
02FF6000
ENDCHAR
STARTCHAR perthousand.v
ENCODING 57922
SWIDTH 1000 0
DWIDTH 9 0
BBX 9 9 0 -2
BITMAP
0111122000
3833531000
A834120000
AC42222110
5DE3123320
0374151520
091C324220
7E7FFEFA10
0101101000
ENDCHAR
STARTCHAR ampersand.salt_v
ENCODING 57923
SWIDTH 1000 0
DWIDTH 9 0
BBX 7 10 1 -2
BITMAP
00011100
00441110
07122110
3F21AA40
4D321010
66147510
D5234220
DB213120
7FF93940
00AD8100
ENDCHAR
STARTCHAR quoteleft.salt_v
ENCODING 57924
SWIDTH 1000 0
DWIDTH 9 0
BBX 4 4 1 1
BITMAP
0221
6731
D722
DF80
ENDCHAR
STARTCHAR quoteright.salt_v
ENCODING 57925
SWIDTH 1000 0
DWIDTH 9 0
BBX 4 5 1 0
BITMAP
0311
9621
DA41
BE40
1000
ENDCHAR
STARTCHAR A.s_v
ENCODING 57926
SWIDTH 1000 0
DWIDTH 9 0
BBX 7 9 1 -2
BITMAP
00111100
04411100
0D112120
59157110
A6211210
D6145110
D609C020
DFA7FE40
11001100
ENDCHAR
STARTCHAR C.s_v
ENCODING 57927
SWIDTH 1000 0
DWIDTH 9 0
BBX 7 9 1 -2
BITMAP
00111110
03111110
76236640
D516A800
E5110000
E6211120
CC321120
4EFFFD30
00111000
ENDCHAR
STARTCHAR D.s_v
ENCODING 57928
SWIDTH 1000 0
DWIDTH 9 0
BBX 7 9 1 -2
BITMAP
01111100
55111120
D6144210
D618C110
D616C110
D6123210
D6111220
DFFFE500
11110000
ENDCHAR
STARTCHAR E.s_v
ENCODING 57929
SWIDTH 1000 0
DWIDTH 9 0
BBX 7 9 1 -2
BITMAP
01111110
55111110
D6147740
D6234310
D6135400
D6135320
D6111120
DFFFFD30
11111000
ENDCHAR
STARTCHAR G.s_v
ENCODING 57930
SWIDTH 1000 0
DWIDTH 9 0
BBX 7 9 1 -2
BITMAP
00111100
04111110
86136510
D517B510
E514A110
E6223110
CC321120
4DFFFE40
00111100
ENDCHAR
STARTCHAR H.s_v
ENCODING 57931
SWIDTH 1000 0
DWIDTH 9 0
BBX 7 9 1 -2
BITMAP
01110110
55039010
D619B110
D6211210
D6112110
D619B110
D609B020
DFB9FE40
11001100
ENDCHAR
STARTCHAR I.s_v
ENCODING 57932
SWIDTH 1000 0
DWIDTH 9 0
BBX 7 9 1 -2
BITMAP
01111110
46112110
CA601540
7CF01700
04F01100
15401120
B7111120
BFFFFD30
11111000
ENDCHAR
STARTCHAR J.s_v
ENCODING 57933
SWIDTH 1000 0
DWIDTH 9 0
BBX 7 9 1 -2
BITMAP
00000110
00029010
0009B110
031AB110
A61AB110
D6233210
CC211120
4EFDC500
01330000
ENDCHAR
STARTCHAR K.s_v
ENCODING 57934
SWIDTH 1000 0
DWIDTH 9 0
BBX 7 9 1 -2
BITMAP
01111110
55044010
D6171110
D6223120
D6122310
D619B110
D609C020
DFB8FE40
11001100
ENDCHAR
STARTCHAR L.s_v
ENCODING 57935
SWIDTH 1000 0
DWIDTH 9 0
BBX 7 9 1 -2
BITMAP
01110000
55010000
D6110000
D6112110
D614B110
D6124110
D6111120
DFFFFE40
11111100
ENDCHAR
STARTCHAR N.s_v
ENCODING 57936
SWIDTH 1000 0
DWIDTH 9 0
BBX 7 9 1 -2
BITMAP
01100110
55129010
D6216110
D6111110
D6151210
D6198210
D609C020
DFB7FE40
11001100
ENDCHAR
STARTCHAR O.s_v
ENCODING 57937
SWIDTH 1000 0
DWIDTH 9 0
BBX 7 9 1 -2
BITMAP
00111200
03111120
86245110
D518C110
E517C110
E6224110
DC211120
5EFDC600
01331000
ENDCHAR
STARTCHAR R.s_v
ENCODING 57938
SWIDTH 1000 0
DWIDTH 9 0
BBX 7 9 1 -2
BITMAP
01111100
55111110
D6142110
D6153220
D6212210
D617A110
D608D020
DFB7FE50
11001100
ENDCHAR
STARTCHAR S.s_v
ENCODING 57939
SWIDTH 1000 0
DWIDTH 9 0
BBX 7 9 1 -2
BITMAP
00111110
04111110
86147730
D6222220
CD532210
5A664210
B6111220
DFFFE600
11110000
ENDCHAR
STARTCHAR T.s_v
ENCODING 57940
SWIDTH 1000 0
DWIDTH 9 0
BBX 7 9 1 -2
BITMAP
01111110
55112110
DA601540
8CF01710
04F01100
04F01100
04F00100
03FF8000
00110000
ENDCHAR
STARTCHAR U.s_v
ENCODING 57941
SWIDTH 1000 0
DWIDTH 9 0
BBX 7 9 1 -2
BITMAP
01110110
55039010
D618C110
D618C110
D618B110
D6223210
CC211220
4EFDC500
01330000
ENDCHAR
STARTCHAR W.s_v
ENCODING 57942
SWIDTH 1000 0
DWIDTH 9 0
BBX 9 9 0 -2
BITMAP
0011001100
0830183110
1F313B3210
1F31212210
1F41110200
0F61352100
0DA16A1200
09FCAFB100
0010010000
ENDCHAR
STARTCHAR Y.s_v
ENCODING 57943
SWIDTH 1000 0
DWIDTH 9 0
BBX 7 9 1 -2
BITMAP
01110110
55039010
D618C110
D9124220
AF422110
1ED01200
05F10100
03FF8000
00110000
ENDCHAR
STARTCHAR Z.s_v
ENCODING 57944
SWIDTH 1000 0
DWIDTH 9 0
BBX 7 9 1 -2
BITMAP
01111110
46111110
CA650210
8AB42110
02221100
46202120
D6111120
DFFFFE40
11111100
ENDCHAR
STARTCHAR A.salt_s_v
ENCODING 57945
SWIDTH 1000 0
DWIDTH 9 0
BBX 7 9 1 -2
BITMAP
00111200
04111120
86145110
D618A110
D6211210
D6156110
D609C020
DFA7FE40
11001100
ENDCHAR
STARTCHAR E.salt_s_v
ENCODING 57946
SWIDTH 1000 0
DWIDTH 9 0
BBX 7 9 1 -2
BITMAP
00111110
03111110
76237740
D5234310
E5135400
E6225320
CC321120
4EFFFD30
00111000
ENDCHAR
STARTCHAR I.salt_s_v
ENCODING 57947
SWIDTH 1000 0
DWIDTH 9 0
BBX 5 9 2 -2
BITMAP
001100
091010
3F1110
3F1110
3F1110
3F1110
3F1010
3FF700
011000
ENDCHAR
STARTCHAR N.salt_s_v
ENCODING 57948
SWIDTH 1000 0
DWIDTH 9 0
BBX 7 9 1 -2
BITMAP
00111200
04111120
86234210
D619B110
D619B110
D619B110
D609B020
DFB9FE40
11001100
ENDCHAR
STARTCHAR W.salt_s_v
ENCODING 57949
SWIDTH 1000 0
DWIDTH 9 0
BBX 9 9 0 -2
BITMAP
0011111100
1A05417010
5E15428110
5E15428110
5E15428110
5F12222110
4F51221110
1DFDEFB200
0021120000
ENDCHAR
STARTCHAR Y.salt_s_v
ENCODING 57950
SWIDTH 1000 0
DWIDTH 9 0
BBX 7 9 1 -2
BITMAP
01110110
55039010
D619B110
D6156110
DA112120
8FD01500
06F10100
03FF8000
00110000
ENDCHAR
STARTCHAR uniF6C3
ENCODING 63171
SWIDTH 600 0
DWIDTH 5 0
BBX 4 4 1 -4
BITMAP
1331
D931
E632
DD40
ENDCHAR
STARTCHAR fi
ENCODING 64257
SWIDTH 1423 0
DWIDTH 13 0
BBX 13 8 0 -1
BITMAP
17111116111110
8A12214F022110
9A14FA4FA21610
9A211118F31200
9A100101F31100
9A14C102821210
9B23102E233220
8FD3004FFFFB10
ENDCHAR
STARTCHAR fl
ENCODING 64258
SWIDTH 1513 0
DWIDTH 14 0
BBX 14 8 0 -1
BITMAP
17111115311000
8A12213F211000
9A14FA2F211000
9A21112F211321
9A10012F219611
9A14C12F217311
9B23102F333332
8FD3001FFFFF90
ENDCHAR
STARTCHAR exclam.v
ENCODING 65281
SWIDTH 1000 0
DWIDTH 9 0
BBX 5 8 2 -1
BITMAP
071110
4F0110
4F0110
3F1120
3F8710
2D0110
4F2110
4FF700
ENDCHAR
STARTCHAR quotedbl.v
ENCODING 65282
SWIDTH 1000 0
DWIDTH 9 0
BBX 7 6 1 -1
BITMAP
16135120
9A136110
9A147110
9B047010
8FEDFC10
12112100
ENDCHAR
STARTCHAR percent.v
ENCODING 65285
SWIDTH 1000 0
DWIDTH 9 0
BBX 9 9 0 -2
BITMAP
0011102200
0743272200
1F44122000
1F84222100
09ED212200
0064515210
0282E32300
0AD5EFC200
0100010000
ENDCHAR
STARTCHAR ampersand.v
ENCODING 65286
SWIDTH 1000 0
DWIDTH 9 0
BBX 8 9 1 -2
BITMAP
00111100
08021100
5D12A200
5C233211
8425B112
F4234121
EA211220
7FFFE600
00110000
ENDCHAR
STARTCHAR quotesingle.v
ENCODING 65287
SWIDTH 1000 0
DWIDTH 9 0
BBX 5 6 2 -1
BITMAP
061110
3F0110
3F1110
3F1010
2FF700
022000
ENDCHAR
STARTCHAR asterisk.v
ENCODING 65290
SWIDTH 1000 0
DWIDTH 9 0
BBX 7 7 1 -1
BITMAP
00452100
05653120
78123120
BFA22640
0A236120
2FEBD300
04433000
ENDCHAR
STARTCHAR zero.v
ENCODING 65296
SWIDTH 1000 0
DWIDTH 9 0
BBX 7 9 1 -2
BITMAP
00111210
26111120
B6169110
D619C110
D619B110
D6224210
CC211220
4EFDC500
01330000
ENDCHAR
STARTCHAR one.v
ENCODING 65297
SWIDTH 1000 0
DWIDTH 9 0
BBX 7 9 1 -2
BITMAP
03111100
88011100
BEB21100
36F21100
02F21100
15411120
C6012110
DFFFFE40
11111000
ENDCHAR
STARTCHAR two.v
ENCODING 65298
SWIDTH 1000 0
DWIDTH 9 0
BBX 7 9 1 -2
BITMAP
03111110
78111110
AECB5110
37311110
57226610
C6134220
D6111120
DFFFFE40
11111100
ENDCHAR
STARTCHAR three.v
ENCODING 65299
SWIDTH 1000 0
DWIDTH 9 0
BBX 7 9 1 -2
BITMAP
03111100
A6111110
DDAA2110
4C212220
2F875110
29443210
C6111220
DFFFE700
11110000
ENDCHAR
STARTCHAR four.v
ENCODING 65300
SWIDTH 1000 0
DWIDTH 9 0
BBX 7 9 1 -2
BITMAP
03112110
A616B110
D619B110
D6157110
D7111210
BE986110
288CC020
0007FE40
00001100
ENDCHAR
STARTCHAR five.v
ENCODING 65301
SWIDTH 1000 0
DWIDTH 9 0
BBX 7 9 1 -2
BITMAP
03111110
87211110
C7149920
C7211120
CB775110
89443210
C6111220
DFFFE600
11110000
ENDCHAR
STARTCHAR six.v
ENCODING 65302
SWIDTH 1000 0
DWIDTH 9 0
BBX 7 9 1 -2
BITMAP
00111110
15111010
B5169810
D5211120
E5257110
E6245210
DC211220
5EFDC500
01330000
ENDCHAR
STARTCHAR seven.v
ENCODING 65303
SWIDTH 1000 0
DWIDTH 9 0
BBX 7 9 1 -2
BITMAP
03111110
A6111210
DDBB8110
45752210
06521220
0E418500
0F402000
0FFA1000
01100000
ENDCHAR
STARTCHAR eight.v
ENCODING 65304
SWIDTH 1000 0
DWIDTH 9 0
BBX 7 9 1 -2
BITMAP
00221100
18112110
7C169120
7C222220
76157110
D5256210
DB211120
6FFDD700
01331000
ENDCHAR
STARTCHAR nine.v
ENCODING 65305
SWIDTH 1000 0
DWIDTH 9 0
BBX 7 9 1 -2
BITMAP
00121210
25111220
B518B110
E6123310
CE755110
3D543210
2F111220
3FFFE500
01110000
ENDCHAR
STARTCHAR colon.v
ENCODING 65306
SWIDTH 1000 0
DWIDTH 9 0
BBX 5 8 2 -1
BITMAP
021110
2C0010
6D0110
6E3310
4D8710
4D0110
6D1120
5FF900
ENDCHAR
STARTCHAR semicolon.v
ENCODING 65307
SWIDTH 1000 0
DWIDTH 9 0
BBX 5 9 2 -2
BITMAP
021110
3C0110
6D0010
6FA910
3C1110
6E5210
4F2210
4FD400
021000
ENDCHAR
STARTCHAR question.v
ENCODING 65311
SWIDTH 1000 0
DWIDTH 9 0
BBX 7 8 1 -1
BITMAP
16111220
A8122120
BFDA4110
1A511110
0E726200
0D411000
0F511000
0EFB0000
ENDCHAR
STARTCHAR A.v
ENCODING 65313
SWIDTH 1000 0
DWIDTH 9 0
BBX 7 9 1 -2
BITMAP
00211100
09322110
1D123120
68156110
B6211210
D6167110
D609C020
DFA8FE40
11001100
ENDCHAR
STARTCHAR B.v
ENCODING 65314
SWIDTH 1000 0
DWIDTH 9 0
BBX 7 9 1 -2
BITMAP
03111200
A6211110
D6185210
D6222320
D6157210
D6145210
D6122220
DFFFE700
01110000
ENDCHAR
STARTCHAR C.v
ENCODING 65315
SWIDTH 1000 0
DWIDTH 9 0
BBX 7 9 1 -2
BITMAP
00111110
15111110
B516BB30
D5145300
E5110000
E6211120
CC321120
4EFFFD30
00111000
ENDCHAR
STARTCHAR D.v
ENCODING 65316
SWIDTH 1000 0
DWIDTH 9 0
BBX 7 9 1 -2
BITMAP
03111110
A6211120
D6178110
D617C110
D616C110
D6123210
D6111220
DFFFE500
11110000
ENDCHAR
STARTCHAR E.v
ENCODING 65317
SWIDTH 1000 0
DWIDTH 9 0
BBX 7 9 1 -2
BITMAP
03111110
A6211110
D616AA30
D6211110
D6147500
D6134220
D6111120
DFFFFD30
11111000
ENDCHAR
STARTCHAR F.v
ENCODING 65318
SWIDTH 1000 0
DWIDTH 9 0
BBX 7 9 1 -2
BITMAP
03111110
A6211110
D616CB30
D6113310
D6223210
D618E400
D6020000
DFB10000
11000000
ENDCHAR
STARTCHAR G.v
ENCODING 65319
SWIDTH 1000 0
DWIDTH 9 0
BBX 7 9 1 -2
BITMAP
00111110
25111110
B516B810
D5147220
E515B110
E6223110
CC321120
4DFFFE40
00111100
ENDCHAR
STARTCHAR H.v
ENCODING 65320
SWIDTH 1000 0
DWIDTH 9 0
BBX 7 9 1 -2
BITMAP
03112110
A616B110
D6179110
D6211210
D6134110
D619B110
D609B020
DFB9FE40
11001100
ENDCHAR
STARTCHAR I.v
ENCODING 65321
SWIDTH 1000 0
DWIDTH 9 0
BBX 7 9 1 -2
BITMAP
03111110
97112110
CDB01930
37F01300
04F01100
15401120
B7111120
BFFFFD30
11111000
ENDCHAR
STARTCHAR J.v
ENCODING 65322
SWIDTH 1000 0
DWIDTH 9 0
BBX 7 9 1 -2
BITMAP
00002110
0005B110
0009B110
031AB110
A61AB110
D6233210
CC211120
5EFDC500
01331000
ENDCHAR
STARTCHAR K.v
ENCODING 65323
SWIDTH 1000 0
DWIDTH 9 0
BBX 7 9 1 -2
BITMAP
03112110
A6164120
D6151110
D6212120
D6134110
D618C110
D609C020
DFB8FE40
11001100
ENDCHAR
STARTCHAR L.v
ENCODING 65324
SWIDTH 1000 0
DWIDTH 9 0
BBX 7 9 1 -2
BITMAP
03110000
A6110000
D6110000
D6112120
D615C110
D6124110
D6111120
DFFFFE40
11111100
ENDCHAR
STARTCHAR M.v
ENCODING 65325
SWIDTH 1000 0
DWIDTH 9 0
BBX 9 9 0 -2
BITMAP
0121111200
0C32372110
0F31232110
0F31121110
1F31551110
1F31DF1010
1F306F0110
1FF64FF600
0110011000
ENDCHAR
STARTCHAR N.v
ENCODING 65326
SWIDTH 1000 0
DWIDTH 9 0
BBX 7 9 1 -2
BITMAP
03112110
A622B110
D6124110
D6112110
D6182310
D619A210
D609C020
DFB7FE40
11001100
ENDCHAR
STARTCHAR O.v
ENCODING 65327
SWIDTH 1000 0
DWIDTH 9 0
BBX 7 9 1 -2
BITMAP
00111210
25111110
B5179110
E517C110
E517C110
E6224110
DC211120
5EFDC600
01331000
ENDCHAR
STARTCHAR P.v
ENCODING 65328
SWIDTH 1000 0
DWIDTH 9 0
BBX 7 9 1 -2
BITMAP
03111110
A6211110
D617A110
D6157110
D6211120
D617C700
D6032000
DFB10000
11000000
ENDCHAR
STARTCHAR Q.v
ENCODING 65329
SWIDTH 1000 0
DWIDTH 9 0
BBX 7 9 1 -2
BITMAP
00111210
25111110
B5179110
E517C110
E517C110
E6234110
CC312220
5EF43400
02DD4000
ENDCHAR
STARTCHAR R.v
ENCODING 65330
SWIDTH 1000 0
DWIDTH 9 0
BBX 7 9 1 -2
BITMAP
03111100
A6211110
D6174110
D6131220
D6222210
D619C110
D607D020
DFB6FE50
11001100
ENDCHAR
STARTCHAR S.v
ENCODING 65331
SWIDTH 1000 0
DWIDTH 9 0
BBX 7 9 1 -2
BITMAP
00111110
26111110
B614AA20
D7111120
CE963210
39443210
C6111220
DFFFE600
11110000
ENDCHAR
STARTCHAR T.v
ENCODING 65332
SWIDTH 1000 0
DWIDTH 9 0
BBX 7 9 1 -2
BITMAP
03111110
A6112110
DDB01940
47F01300
04F01100
04F01100
04F00100
03FF8000
00110000
ENDCHAR
STARTCHAR U.v
ENCODING 65333
SWIDTH 1000 0
DWIDTH 9 0
BBX 7 9 1 -2
BITMAP
03112110
A615B110
D618C110
D618C110
D618B110
D6223210
CC211220
4EFDC500
01330000
ENDCHAR
STARTCHAR V.v
ENCODING 65334
SWIDTH 1000 0
DWIDTH 9 0
BBX 7 9 1 -2
BITMAP
03112110
A615C110
D617C110
D617B110
DA247110
9E111110
3F611100
0DFFD200
00110000
ENDCHAR
STARTCHAR W.v
ENCODING 65335
SWIDTH 1000 0
DWIDTH 9 0
BBX 9 9 0 -2
BITMAP
0121112100
0C312D3110
1F313B2210
1F31212210
1F41110200
0F61352100
0DA16A1200
09FCAFB100
0010010000
ENDCHAR
STARTCHAR X.v
ENCODING 65336
SWIDTH 1100 0
DWIDTH 10 0
BBX 8 9 1 -2
BITMAP
02111211
4C11C311
6F216111
2F911220
09422110
1C11F212
6D03F402
6FE5FF90
01101100
ENDCHAR
STARTCHAR Y.v
ENCODING 65337
SWIDTH 1000 0
DWIDTH 9 0
BBX 7 9 1 -2
BITMAP
03112110
A615C110
D617B110
DA123220
9F512110
1DE01100
05F10100
03FF8000
00110000
ENDCHAR
STARTCHAR Z.v
ENCODING 65338
SWIDTH 1000 0
DWIDTH 9 0
BBX 7 9 1 -2
BITMAP
03111110
97111210
CDB91210
35822110
03221100
56202120
D6111120
DFFFFE40
11111100
ENDCHAR
STARTCHAR uni2B24.salt_v
ENCODING 65339
SWIDTH 1280 0
DWIDTH 12 0
BBX 11 11 0 -2
BITMAP
000111111000
009EEEEED400
06FFFFFFFD10
0DFFFFFFFF60
3EFFFFFFFFA0
4FFFFFFFFFC0
3FFFFFFFFFB0
2EFFFFFFFF80
0AFFFFFFFE40
03EFFFFFF900
004888887100
ENDCHAR
STARTCHAR uni25DD.curve_v
ENCODING 65340
SWIDTH 1280 0
DWIDTH 12 0
BBX 11 11 0 -2
BITMAP
000011111110
004BEEEEEE70
04EFFFFFFF80
0BFFFFFFFF80
1EFFFFFFFF80
1EFFFFFFFF80
1EFFFFFFFF80
1EFFFFFFFF80
1EFFFFFFFF80
1EFFFFFFFF80
178888888840
ENDCHAR
STARTCHAR uni2B1B.trapezoid_e_v
ENCODING 65341
SWIDTH 1280 0
DWIDTH 12 0
BBX 11 11 0 -2
BITMAP
1CA742000000
1EFFFEDA7410
1EFFFFFFFF80
1EFFFFFFFF80
1EFFFFFFFF80
1EFFFFFFFF80
1EFFFFFFFF80
1EFFFFFFFF80
1EFFFFFFFF80
1EFFFFFFFF80
178888888840
ENDCHAR
STARTCHAR uni2B1B.trapezoid_w_v
ENCODING 65342
SWIDTH 1280 0
DWIDTH 12 0
BBX 11 12 0 -3
BITMAP
022222222210
1DEEEEEEEE70
1EFFFFFFFF80
1EFFFFFFFF80
1EFFFFFFFF80
1EFFFFFFFF80
1EFFFFFFFF80
1EFFFFFFFF80
1EFFFFFFFF80
1EFFFFFEEC50
1EEEC9631000
053100000000
ENDCHAR
STARTCHAR .notdef
ENCODING -1
SWIDTH 1100 0
DWIDTH 10 0
BBX 10 9 0 -2
BITMAP
0679999981
4E8AAAADC1
5E300008C1
5E300008C1
5E300008C1
5E300008C1
5E311118B1
5FBBBBBB81
1777777610
ENDCHAR
STARTCHAR one.sups
ENCODING -1
SWIDTH 557 0
DWIDTH 5 0
BBX 5 7 0 0
BITMAP
272300
AD5200
4D7200
094220
771220
CFFE40
122100
ENDCHAR
STARTCHAR two.sups
ENCODING -1
SWIDTH 585 0
DWIDTH 5 0
BBX 5 7 0 0
BITMAP
272230
9EB330
382230
962620
D62110
DFFE50
122200
ENDCHAR
STARTCHAR three.sups
ENCODING -1
SWIDTH 584 0
DWIDTH 5 0
BBX 6 7 0 0
BITMAP
262210
BD8210
6E1220
4D9511
671120
CFFC20
122000
ENDCHAR
STARTCHAR four.sups
ENCODING -1
SWIDTH 620 0
DWIDTH 6 0
BBX 6 7 0 0
BITMAP
352511
D54A11
D53811
D82121
BFF911
01AF80
002300
ENDCHAR
ENDFONT
